<?xml version="1.0" encoding="utf-8" standalone="no"?>
<!DOCTYPE svg PUBLIC "-//W3C//DTD SVG 1.1//EN"
  "http://www.w3.org/Graphics/SVG/1.1/DTD/svg11.dtd">
<!-- Created with matplotlib (https://matplotlib.org/) -->
<svg height="125.28pt" version="1.1" viewBox="0 0 1130.4 125.28" width="1130.4pt" xmlns="http://www.w3.org/2000/svg" xmlns:xlink="http://www.w3.org/1999/xlink">
 <metadata>
  <rdf:RDF xmlns:cc="http://creativecommons.org/ns#" xmlns:dc="http://purl.org/dc/elements/1.1/" xmlns:rdf="http://www.w3.org/1999/02/22-rdf-syntax-ns#">
   <cc:Work>
    <dc:type rdf:resource="http://purl.org/dc/dcmitype/StillImage"/>
    <dc:date>2020-12-28T18:30:50.679907</dc:date>
    <dc:format>image/svg+xml</dc:format>
    <dc:creator>
     <cc:Agent>
      <dc:title>Matplotlib v3.3.3, https://matplotlib.org/</dc:title>
     </cc:Agent>
    </dc:creator>
   </cc:Work>
  </rdf:RDF>
 </metadata>
 <defs>
  <style type="text/css">*{stroke-linecap:butt;stroke-linejoin:round;}</style>
 </defs>
 <g id="figure_1">
  <g id="patch_1">
   <path d="M 0 125.28 
L 1130.4 125.28 
L 1130.4 0 
L 0 0 
z
" style="fill:none;"/>
  </g>
  <g id="axes_1">
   <g id="line2d_1">
    <path clip-path="url(#p91c1f86d57)" d="M 7.2 41.973347 
L 7.944 45.062855 
L 9.432 52.554422 
L 13.152 72.640305 
L 13.896 75.817006 
L 14.64 78.447801 
L 15.384 80.451771 
L 16.128 81.769538 
L 16.872 82.364956 
L 17.616 82.226037 
L 18.36 81.365103 
L 19.104 79.818156 
L 19.848 77.643495 
L 20.592 74.919633 
L 22.08 68.222673 
L 25.8 49.85529 
L 26.544 46.90316 
L 27.288 44.449303 
L 28.032 42.576749 
L 28.776 41.34958 
L 29.52 40.810985 
L 30.264 40.981989 
L 31.008 41.860883 
L 31.752 43.423388 
L 32.496 45.623508 
L 33.24 48.39508 
L 34.728 55.300586 
L 39.192 78.688341 
L 39.936 81.712362 
L 40.68 84.204719 
L 41.424 86.089649 
L 42.168 87.310017 
L 42.912 87.828994 
L 43.656 87.631094 
L 44.4 86.722555 
L 45.144 85.131048 
L 45.888 82.904734 
L 46.632 80.110699 
L 48.12 73.169113 
L 52.584 49.534742 
L 53.328 46.405512 
L 54.072 43.778314 
L 54.816 41.72571 
L 55.56 40.302473 
L 56.304 39.544051 
L 57.048 39.46562 
L 57.792 40.061773 
L 58.536 41.306817 
L 59.28 43.155699 
L 60.024 45.545512 
L 61.512 51.619691 
L 65.976 72.674299 
L 66.72 75.454199 
L 67.464 77.773347 
L 68.208 79.564707 
L 68.952 80.778185 
L 69.696 81.38207 
L 70.44 81.36392 
L 71.184 80.730848 
L 71.928 79.509208 
L 72.672 77.743693 
L 73.416 75.495872 
L 74.904 69.871656 
L 79.368 51.188368 
L 80.112 48.894919 
L 80.856 47.071751 
L 81.6 45.779504 
L 82.344 45.061943 
L 83.088 44.944573 
L 83.832 45.433809 
L 84.576 46.516739 
L 85.32 48.161484 
L 86.064 50.318143 
L 87.552 55.887021 
L 89.784 66.002481 
L 91.272 72.682495 
L 92.76 78.308359 
L 93.504 80.487848 
L 94.248 82.141429 
L 94.992 83.210537 
L 95.736 83.65432 
L 96.48 83.451022 
L 97.224 82.598786 
L 97.968 81.115847 
L 98.712 79.04011 
L 99.456 76.428116 
L 100.944 69.904518 
L 105.408 47.449308 
L 106.152 44.478458 
L 106.896 42.004299 
L 107.64 40.104908 
L 108.384 38.841425 
L 109.128 38.256083 
L 109.872 38.370783 
L 110.616 39.186305 
L 111.36 40.682155 
L 112.104 42.817073 
L 112.848 45.530181 
L 114.336 52.360513 
L 116.568 64.531514 
L 118.056 72.527671 
L 119.544 79.311253 
L 120.288 81.986746 
L 121.032 84.072621 
L 121.776 85.506828 
L 122.52 86.247451 
L 123.264 86.274092 
L 124.008 85.588593 
L 124.752 84.21506 
L 125.496 82.199186 
L 126.24 79.606891 
L 127.728 73.045222 
L 132.192 50.638502 
L 132.936 47.786389 
L 133.68 45.471425 
L 134.424 43.769019 
L 135.168 42.734744 
L 135.912 42.402428 
L 136.656 42.782938 
L 137.4 43.863688 
L 138.144 45.608911 
L 138.888 47.960667 
L 140.376 54.152306 
L 142.608 65.51113 
L 144.096 72.973076 
L 145.584 79.139333 
L 146.328 81.45249 
L 147.072 83.130718 
L 147.816 84.107229 
L 148.56 84.337769 
L 149.304 83.802309 
L 150.048 82.505954 
L 150.792 80.479051 
L 151.536 77.776474 
L 153.024 70.676524 
L 155.256 57.512595 
L 156.744 48.669273 
L 158.232 41.11591 
L 158.976 38.149964 
L 159.72 35.869762 
L 160.464 34.359356 
L 161.208 33.679236 
L 161.952 33.864132 
L 162.696 34.921629 
L 163.44 36.831644 
L 164.184 39.546798 
L 164.928 42.993675 
L 166.416 51.672205 
L 168.648 67.141059 
L 170.136 77.28481 
L 171.624 85.842219 
L 172.368 89.185261 
L 173.112 91.758529 
L 173.856 93.481499 
L 174.6 94.300253 
L 175.344 94.189366 
L 176.088 93.152872 
L 176.832 91.224284 
L 177.576 88.465647 
L 178.32 84.965657 
L 179.808 76.212274 
L 184.272 46.888088 
L 185.016 43.223944 
L 185.76 40.274476 
L 186.504 38.132945 
L 187.248 36.865704 
L 187.992 36.509897 
L 188.736 37.072111 
L 189.48 38.528034 
L 190.224 40.823148 
L 190.968 43.874418 
L 192.456 51.78754 
L 196.92 78.948462 
L 197.664 82.253383 
L 198.408 84.826489 
L 199.152 86.568261 
L 199.896 87.406992 
L 200.64 87.301446 
L 201.384 86.242503 
L 202.128 84.253741 
L 202.872 81.390931 
L 203.616 77.740445 
L 205.104 68.558191 
L 209.568 37.776406 
L 210.312 34.03593 
L 211.056 31.113316 
L 211.8 29.120995 
L 212.544 28.142099 
L 213.288 28.227418 
L 214.032 29.393406 
L 214.776 31.621318 
L 215.52 34.8575 
L 216.264 39.014849 
L 217.752 49.593865 
L 219.984 68.636552 
L 221.472 81.196554 
L 222.96 91.824868 
L 223.704 95.984904 
L 224.448 99.191031 
L 225.192 101.341294 
L 225.936 102.367232 
L 226.68 102.236274 
L 227.424 100.952948 
L 228.168 98.558867 
L 228.912 95.131496 
L 229.656 90.78171 
L 231.144 79.903147 
L 235.608 43.494278 
L 236.352 38.946147 
L 237.096 35.28134 
L 237.84 32.612832 
L 238.584 31.019843 
L 239.328 30.54513 
L 240.072 31.193503 
L 240.816 32.931611 
L 241.56 35.689013 
L 242.304 39.360506 
L 243.792 48.873256 
L 248.256 81.177295 
L 249 85.028761 
L 249.744 87.988685 
L 250.488 89.943131 
L 251.232 90.812786 
L 251.976 90.55588 
L 252.72 89.169835 
L 253.464 86.691594 
L 254.208 83.196612 
L 254.952 78.796529 
L 256.44 67.885988 
L 260.16 37.514642 
L 260.904 32.616211 
L 261.648 28.568339 
L 262.392 25.524871 
L 263.136 23.607651 
L 263.88 22.902158 
L 264.624 23.45434 
L 265.368 25.268761 
L 266.112 28.308117 
L 266.856 32.494169 
L 267.6 37.710046 
L 269.088 50.593499 
L 273.552 93.563135 
L 274.296 98.979365 
L 275.04 103.367001 
L 275.784 106.586496 
L 276.528 108.535615 
L 277.272 109.152926 
L 278.016 108.419941 
L 278.76 106.361828 
L 279.504 103.04667 
L 280.248 98.583282 
L 280.992 93.11767 
L 282.48 79.919839 
L 286.2 44.216022 
L 286.944 38.460894 
L 287.688 33.639747 
L 288.432 29.900874 
L 289.176 27.355413 
L 289.92 26.073625 
L 290.664 26.082545 
L 291.408 27.365099 
L 292.152 29.860713 
L 292.896 33.4674 
L 293.64 38.045255 
L 295.128 49.395167 
L 298.848 80.23705 
L 299.592 85.002907 
L 300.336 88.83611 
L 301.08 91.591906 
L 301.824 93.163231 
L 302.568 93.484544 
L 303.312 92.534251 
L 304.056 90.335634 
L 304.8 86.95624 
L 305.544 82.505759 
L 307.032 71.018243 
L 311.496 31.496823 
L 312.24 26.649057 
L 312.984 22.858406 
L 313.728 20.274081 
L 314.472 19.006005 
L 315.216 19.120825 
L 315.96 20.639367 
L 316.704 23.535646 
L 317.448 27.737432 
L 318.192 33.128403 
L 319.68 46.815327 
L 321.912 71.330993 
L 323.4 87.38848 
L 324.888 100.858318 
L 325.632 106.074404 
L 326.376 110.046142 
L 327.12 112.64833 
L 327.864 113.80002 
L 328.608 113.467269 
L 329.352 111.664314 
L 330.096 108.453139 
L 330.84 103.941433 
L 331.584 98.279013 
L 333.072 84.280709 
L 336.792 45.041269 
L 338.28 32.928222 
L 339.024 28.492096 
L 339.768 25.324996 
L 340.512 23.514736 
L 341.256 23.102368 
L 342 24.080897 
L 342.744 26.395625 
L 343.488 29.946126 
L 344.232 34.589782 
L 345.72 46.406215 
L 349.44 79.673458 
L 350.184 84.985835 
L 350.928 89.338086 
L 351.672 92.566682 
L 352.416 94.547866 
L 353.16 95.202035 
L 353.904 94.496601 
L 354.648 92.447251 
L 355.392 89.117544 
L 356.136 84.616859 
L 357.624 72.745946 
L 359.856 51.011238 
L 361.344 36.847457 
L 362.832 25.315569 
L 363.576 21.087619 
L 364.32 18.116666 
L 365.064 16.526387 
L 365.808 16.394802 
L 366.552 17.751373 
L 367.296 20.575751 
L 368.04 24.798203 
L 368.784 30.301713 
L 370.272 44.471226 
L 372.504 70.216176 
L 373.992 87.275941 
L 375.48 101.749433 
L 376.224 107.42929 
L 376.968 111.820821 
L 377.712 114.786903 
L 378.456 116.236746 
L 379.2 116.128922 
L 379.944 114.47275 
L 380.688 111.327955 
L 381.432 106.802644 
L 382.176 101.049646 
L 383.664 86.663173 
L 388.128 38.795101 
L 388.872 32.865939 
L 389.616 28.103186 
L 390.36 24.647879 
L 391.104 22.595475 
L 391.848 21.992767 
L 392.592 22.836452 
L 393.336 25.073427 
L 394.08 28.602771 
L 394.824 33.279375 
L 396.312 45.305095 
L 400.032 79.578299 
L 400.776 85.102844 
L 401.52 89.650335 
L 402.264 93.049837 
L 403.008 95.171383 
L 403.752 95.930531 
L 404.496 95.291369 
L 405.24 93.267833 
L 405.984 89.923322 
L 406.728 85.368598 
L 407.472 79.758052 
L 408.96 66.172421 
L 411.936 36.49364 
L 413.424 24.601062 
L 414.168 20.217796 
L 414.912 17.11501 
L 415.656 15.42026 
L 416.4 15.214336 
L 417.144 16.528308 
L 417.888 19.342251 
L 418.632 23.585715 
L 419.376 29.139897 
L 420.864 43.487965 
L 423.096 69.632164 
L 424.584 86.990191 
L 426.072 101.744487 
L 426.816 107.548681 
L 427.56 112.050052 
L 428.304 115.109584 
L 429.048 116.635395 
L 429.792 116.585758 
L 430.536 114.970442 
L 431.28 111.850307 
L 432.024 107.335177 
L 432.768 101.58006 
L 434.256 87.16268 
L 438.72 39.171276 
L 439.464 33.23655 
L 440.208 28.474406 
L 440.952 25.025394 
L 441.696 22.984003 
L 442.44 22.395639 
L 443.184 23.25529 
L 443.928 25.507924 
L 444.672 29.050595 
L 445.416 33.736189 
L 446.904 45.759708 
L 450.624 79.864323 
L 451.368 85.328252 
L 452.112 89.809224 
L 452.856 93.138539 
L 453.6 95.188774 
L 454.344 95.878239 
L 455.088 95.17384 
L 455.832 93.092273 
L 456.576 89.699493 
L 457.32 85.108479 
L 458.808 72.994175 
L 461.04 50.821857 
L 462.528 36.383307 
L 464.016 24.631756 
L 464.76 20.321337 
L 465.504 17.2876 
L 466.248 15.653961 
L 466.992 15.497174 
L 467.736 16.844565 
L 468.48 19.67293 
L 469.224 23.909168 
L 469.968 29.432602 
L 471.456 43.645651 
L 473.688 69.418896 
L 475.176 86.452638 
L 476.664 100.866991 
L 477.408 106.510382 
L 478.152 110.865451 
L 478.896 113.799303 
L 479.64 115.22574 
L 480.384 115.108071 
L 481.128 113.460222 
L 481.872 110.346152 
L 482.616 105.877568 
L 483.36 100.210033 
L 484.848 86.086153 
L 488.568 46.248798 
L 490.056 33.936012 
L 490.8 29.426731 
L 491.544 26.205969 
L 492.288 24.360916 
L 493.032 23.930645 
L 493.776 24.90502 
L 494.52 27.225299 
L 495.264 30.786401 
L 496.008 35.440759 
L 497.496 47.259603 
L 501.216 80.266893 
L 501.96 85.474375 
L 502.704 89.708533 
L 503.448 92.810083 
L 504.192 94.660391 
L 504.936 95.18559 
L 505.68 94.35914 
L 506.424 92.202752 
L 507.168 88.785648 
L 507.912 84.222174 
L 509.4 72.314051 
L 513.864 30.789005 
L 514.608 25.623518 
L 515.352 21.545572 
L 516.096 18.710292 
L 516.84 17.231465 
L 517.584 17.177558 
L 518.328 18.569272 
L 519.072 21.378734 
L 519.816 25.530332 
L 520.56 30.90319 
L 522.048 44.628288 
L 524.28 69.302622 
L 525.768 85.480184 
L 527.256 99.061207 
L 528 104.330758 
L 528.744 108.357781 
L 529.488 111.020853 
L 530.232 112.243584 
L 530.976 111.997047 
L 531.72 110.3006 
L 532.464 107.221072 
L 533.208 102.870349 
L 533.952 97.401442 
L 535.44 83.893636 
L 539.16 46.369664 
L 539.904 40.205137 
L 540.648 34.994364 
L 541.392 30.896897 
L 542.136 28.032678 
L 542.88 26.478168 
L 543.624 26.263997 
L 544.368 27.374176 
L 545.112 29.746923 
L 545.856 33.277043 
L 546.6 37.819802 
L 548.088 49.19903 
L 551.808 80.378506 
L 552.552 85.212269 
L 553.296 89.105937 
L 554.04 91.914102 
L 554.784 93.53027 
L 555.528 93.890515 
L 556.272 92.975654 
L 557.016 90.811875 
L 557.76 87.469796 
L 558.504 83.061995 
L 559.992 71.684546 
L 564.456 32.642567 
L 565.2 27.85376 
L 565.944 24.097209 
L 566.688 21.513554 
L 567.432 20.204267 
L 568.176 20.228142 
L 568.92 21.599243 
L 569.664 24.286375 
L 570.408 28.214107 
L 571.152 33.265283 
L 572.64 46.085628 
L 577.104 90.430346 
L 577.848 96.204979 
L 578.592 100.964907 
L 579.336 104.564146 
L 580.08 106.895271 
L 580.824 107.892882 
L 581.568 107.535636 
L 582.312 105.846782 
L 583.056 102.893191 
L 583.8 98.782912 
L 584.544 93.661346 
L 586.032 81.12121 
L 589.752 46.787572 
L 590.496 41.229509 
L 591.24 36.567589 
L 591.984 32.944309 
L 592.728 30.465264 
L 593.472 29.195794 
L 594.216 29.159019 
L 594.96 30.335327 
L 595.704 32.663328 
L 596.448 36.042228 
L 597.192 40.335549 
L 598.68 50.971652 
L 601.656 74.589719 
L 603.144 84.122226 
L 603.888 87.65955 
L 604.632 90.194252 
L 605.376 91.63253 
L 606.12 91.919591 
L 606.864 91.041449 
L 607.608 89.025324 
L 608.352 85.938618 
L 609.096 81.886518 
L 610.584 71.472447 
L 615.048 35.954967 
L 615.792 31.611936 
L 616.536 28.204575 
L 617.28 25.857521 
L 618.024 24.659842 
L 618.768 24.662018 
L 619.512 25.87424 
L 620.256 28.266081 
L 621 31.767552 
L 621.744 36.271494 
L 623.232 47.69531 
L 627.696 87.050648 
L 628.44 92.144195 
L 629.184 96.329158 
L 629.928 99.477462 
L 630.672 101.495613 
L 631.416 102.327667 
L 632.16 101.95691 
L 632.904 100.406228 
L 633.648 97.73712 
L 634.392 94.047428 
L 635.136 89.467845 
L 636.624 78.297667 
L 640.344 47.893838 
L 641.088 42.997563 
L 641.832 38.900972 
L 642.576 35.728847 
L 643.32 33.573279 
L 644.064 32.490791 
L 644.808 32.500698 
L 645.552 33.584732 
L 646.296 35.687953 
L 647.04 38.7209 
L 647.784 42.562908 
L 649.272 52.062474 
L 652.992 77.782684 
L 653.736 81.766844 
L 654.48 84.989549 
L 655.224 87.336759 
L 655.968 88.725635 
L 656.712 89.107253 
L 657.456 88.468137 
L 658.2 86.830575 
L 658.944 84.251711 
L 659.688 80.821449 
L 661.176 71.90991 
L 665.64 40.998172 
L 666.384 37.136222 
L 667.128 34.063318 
L 667.872 31.888386 
L 668.616 30.690036 
L 669.36 30.513975 
L 670.104 31.371545 
L 670.848 33.239421 
L 671.592 36.060493 
L 672.336 39.745878 
L 673.824 49.214623 
L 676.056 66.265277 
L 677.544 77.418423 
L 679.032 86.742479 
L 679.776 90.341405 
L 680.52 93.075764 
L 681.264 94.863953 
L 682.008 95.655828 
L 682.752 95.434179 
L 683.496 94.215093 
L 684.24 92.047192 
L 684.984 89.009795 
L 685.728 85.210058 
L 687.216 75.867979 
L 690.936 50.066629 
L 691.68 45.84067 
L 692.424 42.270384 
L 693.168 39.463814 
L 693.912 37.502216 
L 694.656 36.437591 
L 695.4 36.291203 
L 696.144 37.053162 
L 696.888 38.683042 
L 697.632 41.111538 
L 698.376 44.243072 
L 699.864 52.123161 
L 703.584 74.198326 
L 704.328 77.775364 
L 705.072 80.755306 
L 705.816 83.038268 
L 706.56 84.549164 
L 707.304 85.240067 
L 708.048 85.091632 
L 708.792 84.113539 
L 709.536 82.343957 
L 710.28 79.848043 
L 711.024 76.715539 
L 712.512 69.002698 
L 716.232 47.905853 
L 716.976 44.547042 
L 717.72 41.774802 
L 718.464 39.683686 
L 719.208 38.344993 
L 719.952 37.804512 
L 720.696 38.081122 
L 721.44 39.166313 
L 722.184 41.024625 
L 722.928 43.594983 
L 723.672 46.792883 
L 725.16 54.634511 
L 728.88 76.355598 
L 729.624 79.936593 
L 730.368 82.971148 
L 731.112 85.364925 
L 731.856 87.045044 
L 732.6 87.962306 
L 733.344 88.092623 
L 734.088 87.437603 
L 734.832 86.024278 
L 735.576 83.904002 
L 736.32 81.15055 
L 737.808 74.134979 
L 742.272 50.022923 
L 743.016 46.911893 
L 743.76 44.352713 
L 744.504 42.419396 
L 745.248 41.164687 
L 745.992 40.618589 
L 746.736 40.787652 
L 747.48 41.655042 
L 748.224 43.181382 
L 748.968 45.306317 
L 749.712 47.950761 
L 751.2 54.405645 
L 754.92 71.925606 
L 755.664 74.735387 
L 756.408 77.081702 
L 757.152 78.893498 
L 757.896 80.118417 
L 758.64 80.724282 
L 759.384 80.699905 
L 760.128 80.055195 
L 760.872 78.820565 
L 761.616 77.045676 
L 762.36 74.79756 
L 763.848 69.221602 
L 767.568 53.789427 
L 768.312 51.288518 
L 769.056 49.196756 
L 769.8 47.581546 
L 770.544 46.493874 
L 771.288 45.966807 
L 772.032 46.014595 
L 772.776 46.632397 
L 773.52 47.796631 
L 774.264 49.465933 
L 775.008 51.582683 
L 776.496 56.859399 
L 780.216 71.786641 
L 781.704 76.425467 
L 782.448 78.128696 
L 783.192 79.345355 
L 783.936 80.037974 
L 784.68 80.185914 
L 785.424 79.785869 
L 786.168 78.851788 
L 786.912 77.414271 
L 787.656 75.519433 
L 789.144 70.60978 
L 791.376 61.650646 
L 793.608 52.952237 
L 795.096 48.44998 
L 795.84 46.796227 
L 796.584 45.605643 
L 797.328 44.909083 
L 798.072 44.722134 
L 798.816 45.044846 
L 799.56 45.861942 
L 800.304 47.143494 
L 801.048 48.846041 
L 802.536 53.28205 
L 804.768 61.422851 
L 807 69.4069 
L 808.488 73.624485 
L 809.232 75.218814 
L 809.976 76.41342 
L 810.72 77.181401 
L 811.464 77.509194 
L 812.208 77.396766 
L 812.952 76.857403 
L 813.696 75.917084 
L 814.44 74.613502 
L 815.928 71.117587 
L 818.16 64.595462 
L 820.392 58.216788 
L 821.88 54.922115 
L 822.624 53.719255 
L 823.368 52.861029 
L 824.112 52.369908 
L 824.856 52.256603 
L 825.6 52.519857 
L 826.344 53.146594 
L 827.088 54.112421 
L 827.832 55.382458 
L 829.32 58.650278 
L 833.784 69.956842 
L 834.528 71.394392 
L 835.272 72.554097 
L 836.016 73.394794 
L 836.76 73.884889 
L 837.504 74.003312 
L 838.248 73.740161 
L 838.992 73.097032 
L 839.736 72.087012 
L 840.48 70.734337 
L 841.968 67.149485 
L 843.456 62.727062 
L 846.432 53.390105 
L 847.92 49.554603 
L 848.664 48.061234 
L 849.408 46.916583 
L 850.152 46.158694 
L 850.896 45.815132 
L 851.64 45.902103 
L 852.384 46.4239 
L 853.128 47.372679 
L 853.872 48.728576 
L 854.616 50.460166 
L 856.104 54.871978 
L 858.336 62.969119 
L 860.568 71.140105 
L 862.056 75.66028 
L 862.8 77.450496 
L 863.544 78.860278 
L 864.288 79.852094 
L 865.032 80.400146 
L 865.776 80.491188 
L 866.52 80.124998 
L 867.264 79.314467 
L 868.008 78.085304 
L 868.752 76.475362 
L 870.24 72.318708 
L 872.472 64.730831 
L 874.704 57.333512 
L 876.192 53.492129 
L 876.936 52.081361 
L 877.68 51.069011 
L 878.424 50.48356 
L 879.168 50.339919 
L 879.912 50.638836 
L 880.656 51.366742 
L 881.4 52.496035 
L 882.144 53.98581 
L 883.632 57.824049 
L 888.096 70.832313 
L 888.84 72.374041 
L 889.584 73.54555 
L 890.328 74.295393 
L 891.072 74.585377 
L 891.816 74.392054 
L 892.56 73.707769 
L 893.304 72.541219 
L 894.048 70.917493 
L 894.792 68.877588 
L 896.28 63.786222 
L 900.744 46.523755 
L 901.488 44.360901 
L 902.232 42.641543 
L 902.976 41.435077 
L 903.72 40.79643 
L 904.464 40.764007 
L 905.208 41.358119 
L 905.952 42.579969 
L 906.696 44.411228 
L 907.44 46.814231 
L 908.928 53.093629 
L 910.416 60.776026 
L 913.392 76.891294 
L 914.88 83.462763 
L 915.624 86.006583 
L 916.368 87.945869 
L 917.112 89.219545 
L 917.856 89.786314 
L 918.6 89.626201 
L 919.344 88.741438 
L 920.088 87.156633 
L 920.832 84.918229 
L 921.576 82.09325 
L 923.064 75.042288 
L 927.528 51.163638 
L 928.272 48.09764 
L 929.016 45.584903 
L 929.76 43.702307 
L 930.504 42.506043 
L 931.248 42.029596 
L 931.992 42.28246 
L 932.736 43.249636 
L 933.48 44.891939 
L 934.224 47.147112 
L 935.712 53.14381 
L 937.944 64.119429 
L 939.432 71.203287 
L 940.176 74.271418 
L 940.92 76.861893 
L 941.664 78.871585 
L 942.408 80.216497 
L 943.152 80.834877 
L 943.896 80.689632 
L 944.64 79.769929 
L 945.384 78.091946 
L 946.128 75.698708 
L 946.872 72.659019 
L 948.36 65.031876 
L 952.824 39.597531 
L 953.568 36.560764 
L 954.312 34.229352 
L 955.056 32.70199 
L 955.8 32.052741 
L 956.544 32.328165 
L 957.288 33.54534 
L 958.032 35.690826 
L 958.776 38.720641 
L 959.52 42.561241 
L 961.008 52.245686 
L 963.24 69.608591 
L 964.728 81.080699 
L 966.216 90.830637 
L 966.96 94.667315 
L 967.704 97.640567 
L 968.448 99.653741 
L 969.192 100.639848 
L 969.936 100.564014 
L 970.68 99.4249 
L 971.424 97.25501 
L 972.168 94.119898 
L 972.912 90.116264 
L 974.4 80.027277 
L 978.864 45.587081 
L 979.608 41.168847 
L 980.352 37.556825 
L 981.096 34.862788 
L 981.84 33.167746 
L 982.584 32.519087 
L 983.328 32.92883 
L 984.072 34.373061 
L 984.816 36.79257 
L 985.56 40.094693 
L 987.048 48.827804 
L 991.512 79.345621 
L 992.256 83.071026 
L 993 85.963299 
L 993.744 87.906819 
L 994.488 88.818442 
L 995.232 88.650665 
L 995.976 87.393596 
L 996.72 85.075665 
L 997.464 81.76303 
L 998.208 77.557697 
L 999.696 67.036307 
L 1003.416 37.299399 
L 1004.16 32.439782 
L 1004.904 28.402145 
L 1005.648 25.344236 
L 1006.392 23.393278 
L 1007.136 22.641304 
L 1007.88 23.141641 
L 1008.624 24.906657 
L 1009.368 27.906869 
L 1010.112 32.071452 
L 1010.856 37.290132 
L 1012.344 50.272185 
L 1016.808 94.327215 
L 1017.552 99.995861 
L 1018.296 104.634111 
L 1019.04 108.091694 
L 1019.784 110.255423 
L 1020.528 111.053165 
L 1021.272 110.456478 
L 1022.016 108.481798 
L 1022.76 105.190139 
L 1023.504 100.685303 
L 1024.248 95.110645 
L 1025.736 81.494438 
L 1029.456 43.88385 
L 1030.2 37.693572 
L 1030.944 32.454784 
L 1031.688 28.331973 
L 1032.432 25.451872 
L 1033.176 23.899108 
L 1033.92 23.713245 
L 1034.664 24.887339 
L 1035.408 27.368075 
L 1036.152 31.057454 
L 1036.896 35.816023 
L 1038.384 47.804786 
L 1042.104 81.307352 
L 1042.848 86.644177 
L 1043.592 91.011437 
L 1044.336 94.242889 
L 1045.08 96.211374 
L 1045.824 96.83343 
L 1046.568 96.072457 
L 1047.312 93.940282 
L 1048.056 90.497088 
L 1048.8 85.849696 
L 1049.544 80.148225 
L 1051.032 66.36974 
L 1054.008 36.193365 
L 1055.496 24.004509 
L 1056.24 19.474841 
L 1056.984 16.235506 
L 1057.728 14.421651 
L 1058.472 14.122034 
L 1059.216 15.375625 
L 1059.96 18.169853 
L 1060.704 22.440585 
L 1061.448 28.073846 
L 1062.936 42.744895 
L 1065.168 69.756836 
L 1066.656 87.865004 
L 1068.144 103.389226 
L 1068.888 109.54575 
L 1069.632 114.354872 
L 1070.376 117.66073 
L 1071.12 119.355693 
L 1071.864 119.384129 
L 1072.608 117.744448 
L 1073.352 114.489336 
L 1074.096 109.724184 
L 1074.84 103.603733 
L 1076.328 88.131033 
L 1080.792 35.528903 
L 1081.536 28.869926 
L 1082.28 23.471983 
L 1083.024 19.502989 
L 1083.768 17.08217 
L 1084.512 16.276003 
L 1085.256 17.095932 
L 1086 19.497952 
L 1086.744 23.384062 
L 1087.488 28.605558 
L 1088.976 42.238113 
L 1093.44 89.107878 
L 1094.184 94.783525 
L 1094.928 99.190783 
L 1095.672 102.163236 
L 1096.416 103.584179 
L 1097.16 103.390841 
L 1097.904 101.576777 
L 1098.648 98.192352 
L 1099.392 93.343274 
L 1100.136 87.18725 
L 1101.624 71.812648 
L 1105.344 28.621312 
L 1106.088 21.596879 
L 1106.832 15.76291 
L 1107.576 11.338045 
L 1108.32 8.495286 
L 1109.064 7.355838 
L 1109.808 7.984673 
L 1110.552 10.387981 
L 1111.296 14.512591 
L 1112.04 20.247394 
L 1112.784 27.426737 
L 1114.272 45.216829 
L 1118.736 104.49169 
L 1119.48 111.901323 
L 1120.224 117.867416 
L 1120.968 122.197977 
L 1121.712 124.753985 
L 1122.456 125.454134 
L 1122.456 125.454134 
" style="fill:none;stroke:#0e85ea;stroke-linecap:square;stroke-width:2;"/>
   </g>
  </g>
 </g>
 <defs>
  <clipPath id="p91c1f86d57">
   <rect height="110.88" width="1116" x="7.2" y="7.2"/>
  </clipPath>
 </defs>
</svg>
