<?xml version="1.0" encoding="utf-8" standalone="no"?>
<!DOCTYPE svg PUBLIC "-//W3C//DTD SVG 1.1//EN"
  "http://www.w3.org/Graphics/SVG/1.1/DTD/svg11.dtd">
<!-- Created with matplotlib (https://matplotlib.org/) -->
<svg height="125.28pt" version="1.1" viewBox="0 0 1130.4 125.28" width="1130.4pt" xmlns="http://www.w3.org/2000/svg" xmlns:xlink="http://www.w3.org/1999/xlink">
 <metadata>
  <rdf:RDF xmlns:cc="http://creativecommons.org/ns#" xmlns:dc="http://purl.org/dc/elements/1.1/" xmlns:rdf="http://www.w3.org/1999/02/22-rdf-syntax-ns#">
   <cc:Work>
    <dc:type rdf:resource="http://purl.org/dc/dcmitype/StillImage"/>
    <dc:date>2020-12-28T19:00:49.122909</dc:date>
    <dc:format>image/svg+xml</dc:format>
    <dc:creator>
     <cc:Agent>
      <dc:title>Matplotlib v3.3.3, https://matplotlib.org/</dc:title>
     </cc:Agent>
    </dc:creator>
   </cc:Work>
  </rdf:RDF>
 </metadata>
 <defs>
  <style type="text/css">*{stroke-linecap:butt;stroke-linejoin:round;}</style>
 </defs>
 <g id="figure_1">
  <g id="patch_1">
   <path d="M 0 125.28 
L 1130.4 125.28 
L 1130.4 0 
L 0 0 
z
" style="fill:none;"/>
  </g>
  <g id="axes_1">
   <g id="line2d_1">
    <path clip-path="url(#pf29d6f7c98)" d="M 7.2 56.593721 
L 7.944 56.598485 
L 8.688 56.795647 
L 9.432 57.178928 
L 10.176 57.736123 
L 11.664 59.296301 
L 13.152 61.279021 
L 16.128 65.488132 
L 17.616 67.182618 
L 18.36 67.825403 
L 19.104 68.303054 
L 19.848 68.60036 
L 20.592 68.707852 
L 21.336 68.622107 
L 22.08 68.345856 
L 22.824 67.887896 
L 23.568 67.262812 
L 25.056 65.595585 
L 27.288 62.474051 
L 29.52 59.399076 
L 31.008 57.809181 
L 31.752 57.233379 
L 32.496 56.829755 
L 33.24 56.611165 
L 33.984 56.584569 
L 34.728 56.750814 
L 35.472 57.104607 
L 36.216 57.634679 
L 37.704 59.151065 
L 39.192 61.108346 
L 42.912 66.25556 
L 44.4 67.731957 
L 45.144 68.237551 
L 45.888 68.564885 
L 46.632 68.703535 
L 47.376 68.649086 
L 48.12 68.403272 
L 48.864 67.973921 
L 49.608 67.374706 
L 51.096 65.747815 
L 53.328 62.649777 
L 55.56 59.548996 
L 57.048 57.917549 
L 57.792 57.315431 
L 58.536 56.882878 
L 59.28 56.633667 
L 60.024 56.575733 
L 60.768 56.710922 
L 61.512 57.034928 
L 62.256 57.537433 
L 63.744 59.008755 
L 65.232 60.938956 
L 68.952 66.112918 
L 70.44 67.63424 
L 71.184 68.167353 
L 71.928 68.524441 
L 72.672 68.694133 
L 73.416 68.671026 
L 74.16 68.455855 
L 74.904 68.055472 
L 75.648 67.482628 
L 77.136 65.897439 
L 78.624 63.900608 
L 81.6 59.701509 
L 83.088 58.029879 
L 83.832 57.401949 
L 84.576 56.940829 
L 85.32 56.661206 
L 86.064 56.571983 
L 86.808 56.676002 
L 87.552 56.96995 
L 88.296 57.444467 
L 89.784 58.869491 
L 91.272 60.770993 
L 94.992 65.967364 
L 96.48 67.532334 
L 97.224 68.092518 
L 97.968 68.479061 
L 98.712 68.679654 
L 99.456 68.687907 
L 100.2 68.503559 
L 100.944 68.13248 
L 101.688 67.586488 
L 103.176 66.044331 
L 104.664 64.071968 
L 107.64 59.856486 
L 109.128 58.146075 
L 109.872 57.49286 
L 110.616 57.003561 
L 111.36 56.69376 
L 112.104 56.573322 
L 112.848 56.646084 
L 113.592 56.909728 
L 114.336 57.355859 
L 115.08 57.970268 
L 116.568 59.62092 
L 118.8 62.733018 
L 121.032 65.819019 
L 122.52 67.426325 
L 123.264 68.01311 
L 124.008 68.428784 
L 124.752 68.660108 
L 125.496 68.699716 
L 126.24 68.546346 
L 126.984 68.204882 
L 127.728 67.6862 
L 129.216 66.188367 
L 130.704 64.242127 
L 134.424 59.083286 
L 135.912 57.588089 
L 136.656 57.07102 
L 137.4 56.731301 
L 138.144 56.57975 
L 138.888 56.621194 
L 139.632 56.854313 
L 140.376 57.271682 
L 141.12 57.860011 
L 142.608 59.469756 
L 144.84 62.557277 
L 147.072 65.668007 
L 148.56 67.316301 
L 149.304 67.929196 
L 150.048 68.373651 
L 150.792 68.635513 
L 151.536 68.706441 
L 152.28 68.584178 
L 153.024 68.272617 
L 153.768 67.781679 
L 155.256 66.329427 
L 156.744 64.410943 
L 160.464 59.227151 
L 161.952 57.687555 
L 162.696 57.14315 
L 163.44 56.773798 
L 164.184 56.591261 
L 164.928 56.601352 
L 165.672 56.80375 
L 166.416 57.192009 
L 167.16 57.753764 
L 168.648 59.321251 
L 170.136 61.308128 
L 173.112 65.514456 
L 174.6 67.202355 
L 175.344 67.840845 
L 176.088 68.31371 
L 176.832 68.605889 
L 177.576 68.708079 
L 178.32 68.617025 
L 179.064 68.335627 
L 179.808 67.872845 
L 180.552 67.243419 
L 182.04 65.569478 
L 184.272 62.444213 
L 186.504 59.373879 
L 187.992 57.791174 
L 188.736 57.219891 
L 189.48 56.821215 
L 190.224 56.607845 
L 190.968 56.586575 
L 191.712 56.758082 
L 192.456 57.116905 
L 193.2 57.651616 
L 194.688 59.17553 
L 196.176 61.137249 
L 199.152 65.358494 
L 200.64 67.084582 
L 201.384 67.748132 
L 202.128 68.249009 
L 202.872 68.571262 
L 203.616 68.704627 
L 204.36 68.644859 
L 205.104 68.393859 
L 205.848 67.959623 
L 206.592 67.355978 
L 208.08 65.722139 
L 210.312 62.619926 
L 212.544 59.523346 
L 214.032 57.898861 
L 214.776 57.301177 
L 215.52 56.873513 
L 216.264 56.629489 
L 217.008 56.576875 
L 217.752 56.717348 
L 218.496 57.046433 
L 219.24 57.553651 
L 220.728 59.032715 
L 222.216 60.967631 
L 225.936 66.137355 
L 227.424 67.651135 
L 228.168 68.179604 
L 228.912 68.531659 
L 229.656 68.696089 
L 230.4 68.667656 
L 231.144 68.447266 
L 231.888 68.041939 
L 232.632 67.464581 
L 234.12 65.872214 
L 235.608 63.871393 
L 238.584 59.675427 
L 240.072 58.010524 
L 240.816 57.386942 
L 241.56 56.930648 
L 242.304 56.656174 
L 243.048 56.572261 
L 243.792 56.681581 
L 244.536 56.980653 
L 245.28 57.459952 
L 246.768 58.892925 
L 248.256 60.799415 
L 251.976 65.992287 
L 253.464 67.549935 
L 254.208 68.105553 
L 254.952 68.487115 
L 255.696 68.68247 
L 256.44 68.685397 
L 257.184 68.495802 
L 257.928 68.119723 
L 258.672 67.569138 
L 260.16 66.019579 
L 261.648 64.042943 
L 264.624 59.829995 
L 266.112 58.126071 
L 266.856 57.477112 
L 267.6 56.992571 
L 268.344 56.687878 
L 269.088 56.572736 
L 269.832 56.650812 
L 270.576 56.91962 
L 271.32 57.370598 
L 272.064 57.989386 
L 273.552 59.64685 
L 275.784 62.762864 
L 278.016 65.844407 
L 279.504 67.444616 
L 280.248 68.026917 
L 280.992 68.437667 
L 281.736 68.663784 
L 282.48 68.698068 
L 283.224 68.539427 
L 283.968 68.192912 
L 284.712 67.66956 
L 286.2 66.164109 
L 287.688 64.213316 
L 291.408 59.059143 
L 292.896 57.571613 
L 293.64 57.059231 
L 294.384 56.724574 
L 295.128 56.5783 
L 295.872 56.625066 
L 296.616 56.863384 
L 297.36 57.285664 
L 298.104 57.878458 
L 299.592 59.495248 
L 301.824 62.587126 
L 304.056 65.693839 
L 305.544 67.335268 
L 306.288 67.943764 
L 307.032 68.383356 
L 307.776 68.640046 
L 308.52 68.705658 
L 309.264 68.578103 
L 310.008 68.261443 
L 310.752 67.765764 
L 312.24 66.305682 
L 313.728 64.38237 
L 317.448 59.20251 
L 318.936 57.670365 
L 319.68 57.130572 
L 320.424 56.766232 
L 321.168 56.588948 
L 321.912 56.604366 
L 322.656 56.811994 
L 323.4 57.205221 
L 324.144 57.771524 
L 325.632 59.346282 
L 327.12 61.337267 
L 330.096 65.540711 
L 331.584 67.221981 
L 332.328 67.856161 
L 333.072 68.324228 
L 333.816 68.611274 
L 334.56 68.70816 
L 335.304 68.611799 
L 336.048 68.32526 
L 336.792 67.857668 
L 337.536 67.223915 
L 339.024 65.543301 
L 341.256 62.414381 
L 343.488 59.34876 
L 344.976 57.773285 
L 345.72 57.206534 
L 346.464 56.812816 
L 347.208 56.604671 
L 347.952 56.588727 
L 348.696 56.765492 
L 349.44 57.129336 
L 350.184 57.668673 
L 351.672 59.20008 
L 353.16 61.166188 
L 356.136 65.385149 
L 357.624 67.104851 
L 358.368 67.764184 
L 359.112 68.260332 
L 359.856 68.577495 
L 360.6 68.705572 
L 361.344 68.640486 
L 362.088 68.384308 
L 362.832 67.945196 
L 363.576 67.337136 
L 365.064 65.696388 
L 367.296 62.590076 
L 369.528 59.497771 
L 371.016 57.880288 
L 371.76 57.287053 
L 372.504 56.864288 
L 373.248 56.625457 
L 373.992 56.578164 
L 374.736 56.723917 
L 375.48 57.058073 
L 376.224 57.569992 
L 377.712 59.056762 
L 379.2 60.996346 
L 382.92 66.161707 
L 384.408 67.667909 
L 385.152 68.191722 
L 385.896 68.538735 
L 386.64 68.697897 
L 387.384 68.66414 
L 388.128 68.438537 
L 388.872 68.028275 
L 389.616 67.446417 
L 391.104 65.846912 
L 393.336 62.765813 
L 395.568 59.649417 
L 397.056 57.991282 
L 397.8 57.372062 
L 398.544 56.920605 
L 399.288 56.651287 
L 400.032 56.572686 
L 400.776 56.687304 
L 401.52 56.991493 
L 402.264 57.475563 
L 403.752 58.91645 
L 405.24 60.827881 
L 408.96 66.017128 
L 410.448 67.567416 
L 411.192 68.118456 
L 411.936 68.495028 
L 412.68 68.685141 
L 413.424 68.682741 
L 414.168 68.487904 
L 414.912 68.106834 
L 415.656 67.551668 
L 417.144 65.994745 
L 418.632 64.013884 
L 421.608 59.803571 
L 423.096 58.106175 
L 423.84 57.461489 
L 424.584 56.981718 
L 425.328 56.68214 
L 426.072 56.572296 
L 426.816 56.655685 
L 427.56 56.929649 
L 428.304 57.385466 
L 429.048 58.008618 
L 430.536 59.672853 
L 432.768 62.792707 
L 435 65.869717 
L 436.488 67.462791 
L 437.232 68.040594 
L 437.976 68.44641 
L 438.72 68.667315 
L 439.464 68.696274 
L 440.208 68.532365 
L 440.952 68.180808 
L 441.696 67.652798 
L 443.184 66.139765 
L 444.672 64.184467 
L 448.392 59.035087 
L 449.88 57.55526 
L 450.624 57.047577 
L 451.368 56.717991 
L 452.112 56.576996 
L 452.856 56.629084 
L 453.6 56.872596 
L 454.344 57.299776 
L 455.088 57.897021 
L 456.576 59.520815 
L 458.808 62.616977 
L 461.04 65.719598 
L 462.528 67.354121 
L 463.272 67.958203 
L 464.016 68.392922 
L 464.76 68.644433 
L 465.504 68.704727 
L 466.248 68.571884 
L 466.992 68.250134 
L 467.736 67.749724 
L 469.224 66.281849 
L 470.712 64.353755 
L 474.432 59.177952 
L 475.92 57.653296 
L 476.664 57.118127 
L 477.408 56.758808 
L 478.152 56.586781 
L 478.896 56.607525 
L 479.64 56.820379 
L 480.384 57.218565 
L 481.128 57.789401 
L 482.616 59.371393 
L 484.104 61.366437 
L 487.08 65.566895 
L 488.568 67.241497 
L 489.312 67.871351 
L 490.056 68.334608 
L 490.8 68.616515 
L 491.544 68.708094 
L 492.288 68.606428 
L 493.032 68.314755 
L 493.776 67.842364 
L 495.264 66.420879 
L 496.752 64.521605 
L 500.472 59.323721 
L 501.96 57.755514 
L 502.704 57.193308 
L 503.448 56.804558 
L 504.192 56.601643 
L 504.936 56.591026 
L 505.68 56.773044 
L 506.424 57.141901 
L 507.168 57.685851 
L 508.656 59.224712 
L 510.144 61.195163 
L 513.12 65.411737 
L 514.608 67.125013 
L 515.352 67.780112 
L 516.096 68.271519 
L 516.84 68.583584 
L 517.584 68.706371 
L 518.328 68.635967 
L 519.072 68.374617 
L 519.816 67.930641 
L 520.56 67.31818 
L 522.048 65.670563 
L 524.28 62.560227 
L 526.512 59.472272 
L 528 57.861829 
L 528.744 57.273058 
L 529.488 56.855203 
L 530.232 56.62157 
L 530.976 56.5796 
L 531.72 56.73063 
L 532.464 57.069849 
L 533.208 57.586455 
L 534.696 59.080896 
L 536.184 61.0251 
L 539.904 66.185973 
L 541.392 67.684561 
L 542.136 68.203705 
L 542.88 68.545668 
L 543.624 68.699559 
L 544.368 68.660478 
L 545.112 68.429668 
L 545.856 68.014481 
L 546.6 67.428137 
L 548.088 65.821531 
L 550.32 62.735967 
L 552.552 59.623479 
L 554.04 57.972152 
L 554.784 57.357309 
L 555.528 56.9107 
L 556.272 56.646545 
L 557.016 56.573258 
L 557.76 56.693172 
L 558.504 57.002469 
L 559.248 57.491298 
L 560.736 58.940065 
L 562.224 60.856392 
L 565.944 66.041888 
L 567.432 67.584779 
L 568.176 68.131226 
L 568.92 68.502799 
L 569.664 68.687666 
L 570.408 68.679938 
L 571.152 68.479863 
L 571.896 68.093812 
L 572.64 67.534079 
L 574.128 65.96983 
L 575.616 63.984792 
L 578.592 59.777217 
L 580.08 58.08639 
L 580.824 57.445992 
L 581.568 56.971002 
L 582.312 56.676547 
L 583.056 56.572004 
L 583.8 56.660702 
L 584.544 56.939817 
L 585.288 57.40046 
L 586.032 58.027961 
L 587.52 59.698928 
L 589.752 62.822547 
L 591.984 65.89495 
L 593.472 67.48085 
L 594.216 68.05414 
L 594.96 68.455012 
L 595.704 68.6707 
L 596.448 68.694333 
L 597.192 68.525161 
L 597.936 68.168569 
L 598.68 67.635915 
L 600.168 66.115337 
L 601.656 64.155581 
L 604.632 59.933355 
L 606.12 58.204447 
L 606.864 57.53903 
L 607.608 57.036059 
L 608.352 56.71155 
L 609.096 56.575839 
L 609.84 56.633247 
L 610.584 56.881946 
L 611.328 57.314016 
L 612.072 57.915698 
L 613.56 59.546458 
L 615.792 62.646827 
L 618.024 65.745281 
L 619.512 67.37286 
L 620.256 67.972514 
L 621 68.402348 
L 621.744 68.648675 
L 622.488 68.70365 
L 623.232 68.565522 
L 623.976 68.238689 
L 624.72 67.733561 
L 626.208 66.257928 
L 627.696 64.325099 
L 631.416 59.153478 
L 632.904 57.636347 
L 633.648 57.105816 
L 634.392 56.751526 
L 635.136 56.584761 
L 635.88 56.610831 
L 636.624 56.828905 
L 637.368 57.23204 
L 638.112 57.807396 
L 639.6 59.396583 
L 641.088 61.395639 
L 644.064 65.593008 
L 645.552 67.260901 
L 646.296 67.886415 
L 647.04 68.344851 
L 647.784 68.621611 
L 648.528 68.707881 
L 649.272 68.600913 
L 650.016 68.304113 
L 650.76 67.826935 
L 652.248 66.397485 
L 653.736 64.493203 
L 657.456 59.298763 
L 658.944 57.737861 
L 659.688 57.180215 
L 660.432 56.796441 
L 661.176 56.598761 
L 661.92 56.593471 
L 662.664 56.780738 
L 663.408 57.154599 
L 664.152 57.703148 
L 665.64 59.249428 
L 667.128 61.224173 
L 670.104 65.438258 
L 671.592 67.145066 
L 672.336 67.795915 
L 673.08 68.282569 
L 673.824 68.58953 
L 674.568 68.707022 
L 675.312 68.631304 
L 676.056 68.364787 
L 676.8 67.915958 
L 677.544 67.299111 
L 679.032 65.644665 
L 681.264 62.53038 
L 683.496 59.446849 
L 684.984 57.843486 
L 685.728 57.259193 
L 686.472 56.846258 
L 687.216 56.617829 
L 687.96 56.581183 
L 688.704 56.737485 
L 689.448 57.081759 
L 690.192 57.603041 
L 691.68 59.105116 
L 693.168 61.053894 
L 696.888 66.210154 
L 698.376 67.701091 
L 699.12 68.215554 
L 699.864 68.552459 
L 700.608 68.701075 
L 701.352 68.65667 
L 702.096 68.420659 
L 702.84 68.000556 
L 703.584 67.409742 
L 705.072 65.796074 
L 707.304 62.706119 
L 709.536 59.597614 
L 711.024 57.953135 
L 711.768 57.342685 
L 712.512 56.900933 
L 713.256 56.641948 
L 714 56.573976 
L 714.744 56.699183 
L 715.488 57.013582 
L 716.232 57.507159 
L 717.72 58.96377 
L 719.208 60.884946 
L 722.928 66.066566 
L 724.416 67.602022 
L 725.16 68.143863 
L 725.904 68.510428 
L 726.648 68.690044 
L 727.392 68.67699 
L 728.136 68.471682 
L 728.88 68.080658 
L 729.624 67.516371 
L 731.112 65.944835 
L 732.6 63.955667 
L 735.576 59.750931 
L 737.064 58.066714 
L 737.808 57.43062 
L 738.552 56.960423 
L 739.296 56.671097 
L 740.04 56.571858 
L 740.784 56.665864 
L 741.528 56.950123 
L 742.272 57.415581 
L 743.016 58.047417 
L 744.504 59.725074 
L 746.736 62.852382 
L 748.968 65.920103 
L 750.456 67.498791 
L 751.2 68.067555 
L 751.944 68.463474 
L 752.688 68.673938 
L 753.432 68.692246 
L 754.176 68.517814 
L 754.92 68.156197 
L 755.664 67.618911 
L 757.152 66.090825 
L 758.64 64.126658 
L 761.616 59.906671 
L 763.104 58.18413 
L 763.848 57.522924 
L 764.592 57.024676 
L 765.336 56.705253 
L 766.08 56.574829 
L 766.824 56.637556 
L 767.568 56.891437 
L 768.312 57.328386 
L 769.056 57.934489 
L 770.544 59.572176 
L 772.776 62.676678 
L 775.008 65.77089 
L 776.496 67.391485 
L 777.24 67.986695 
L 777.984 68.411635 
L 778.728 68.652772 
L 779.472 68.702426 
L 780.216 68.559016 
L 780.96 68.227109 
L 781.704 67.717275 
L 783.192 66.23392 
L 784.68 64.296402 
L 788.4 59.129089 
L 789.888 57.619519 
L 790.632 57.093639 
L 791.376 56.744387 
L 792.12 56.582887 
L 792.864 56.614282 
L 793.608 56.837572 
L 794.352 57.245646 
L 795.096 57.825508 
L 796.584 59.421851 
L 798.072 61.42487 
L 801.048 65.61905 
L 802.536 67.280193 
L 803.28 67.901351 
L 804.024 68.354956 
L 804.768 68.626562 
L 805.512 68.707521 
L 806.256 68.595253 
L 807 68.293334 
L 807.744 67.81138 
L 809.232 66.374 
L 810.72 64.464756 
L 814.44 59.273885 
L 815.928 57.720326 
L 816.672 57.167254 
L 817.416 56.788466 
L 818.16 56.596026 
L 818.904 56.596062 
L 819.648 56.788574 
L 820.392 57.16743 
L 821.136 57.720565 
L 822.624 59.274225 
L 824.112 61.253217 
L 827.088 65.464712 
L 828.576 67.16501 
L 829.32 67.811593 
L 830.064 68.293483 
L 830.808 68.595332 
L 831.552 68.707527 
L 832.296 68.626496 
L 833.04 68.354818 
L 833.784 67.901147 
L 834.528 67.27993 
L 836.016 65.618694 
L 838.248 62.500535 
L 840.48 59.421504 
L 841.968 57.82526 
L 842.712 57.245459 
L 843.456 56.837452 
L 844.2 56.614234 
L 844.944 56.582912 
L 845.688 56.744484 
L 846.432 57.093804 
L 847.176 57.619749 
L 848.664 59.129422 
L 850.152 61.082726 
L 853.872 66.234249 
L 855.36 67.717498 
L 856.104 68.227268 
L 856.848 68.559106 
L 857.592 68.702444 
L 858.336 68.652717 
L 859.08 68.411509 
L 859.824 67.986502 
L 860.568 67.391231 
L 862.056 65.77054 
L 864.288 62.67627 
L 866.52 59.571823 
L 868.008 57.934231 
L 868.752 57.328189 
L 869.496 56.891306 
L 870.24 56.637496 
L 870.984 56.574842 
L 871.728 56.705339 
L 872.472 57.024831 
L 873.216 57.523143 
L 874.704 58.987564 
L 876.192 60.913542 
L 879.912 66.091161 
L 881.4 67.619145 
L 882.144 68.156367 
L 882.888 68.517915 
L 883.632 68.692275 
L 884.376 68.673895 
L 885.12 68.463359 
L 885.864 68.067373 
L 886.608 67.498546 
L 888.096 65.91976 
L 889.584 63.926511 
L 892.56 59.724716 
L 894.048 58.04715 
L 894.792 57.415374 
L 895.536 56.949981 
L 896.28 56.665793 
L 897.024 56.571859 
L 897.768 56.671171 
L 898.512 56.960566 
L 899.256 57.430829 
L 900.744 58.848769 
L 902.232 60.745806 
L 905.952 65.945178 
L 907.44 67.516615 
L 908.184 68.080839 
L 908.928 68.471795 
L 909.672 68.677031 
L 910.416 68.690012 
L 911.16 68.510325 
L 911.904 68.143691 
L 912.648 67.601787 
L 914.136 66.066229 
L 915.624 64.097699 
L 918.6 59.880053 
L 920.088 58.16392 
L 920.832 57.506941 
L 921.576 57.013429 
L 922.32 56.6991 
L 923.064 56.573966 
L 923.808 56.64201 
L 924.552 56.901066 
L 925.296 57.342884 
L 926.04 57.953394 
L 927.528 59.597968 
L 929.76 62.706528 
L 931.992 65.796423 
L 933.48 67.409994 
L 934.224 68.000748 
L 934.968 68.420783 
L 935.712 68.656723 
L 936.456 68.701055 
L 937.2 68.552367 
L 937.944 68.215393 
L 938.688 67.700866 
L 940.176 66.209824 
L 941.664 64.267665 
L 945.384 59.104784 
L 946.872 57.602813 
L 947.616 57.081596 
L 948.36 56.737391 
L 949.104 56.58116 
L 949.848 56.617879 
L 950.592 56.846379 
L 951.336 57.259382 
L 952.08 57.843736 
L 953.568 59.447197 
L 955.8 62.530788 
L 958.032 65.64502 
L 959.52 67.299373 
L 960.264 67.91616 
L 961.008 68.364922 
L 961.752 68.631369 
L 962.496 68.707014 
L 963.24 68.589449 
L 963.984 68.282419 
L 964.728 67.7957 
L 966.216 66.350425 
L 967.704 64.436265 
L 971.424 59.249089 
L 972.912 57.702911 
L 973.656 57.154425 
L 974.4 56.780632 
L 975.144 56.593437 
L 975.888 56.5988 
L 976.632 56.796551 
L 977.376 57.180393 
L 978.12 57.738102 
L 979.608 59.299104 
L 981.096 61.282294 
L 984.072 65.491097 
L 985.56 67.184844 
L 986.304 67.827147 
L 987.048 68.30426 
L 987.792 68.600989 
L 988.536 68.707885 
L 989.28 68.621542 
L 990.024 68.344712 
L 990.768 67.886209 
L 991.512 67.260636 
L 993 65.592651 
L 995.232 62.470694 
L 997.464 59.396237 
L 998.952 57.807149 
L 999.696 57.231855 
L 1000.44 56.828788 
L 1001.184 56.610784 
L 1001.928 56.584788 
L 1002.672 56.751625 
L 1003.416 57.105983 
L 1004.16 57.636578 
L 1005.648 59.153813 
L 1007.136 61.111596 
L 1010.856 66.258256 
L 1012.344 67.733783 
L 1013.088 68.238847 
L 1013.832 68.56561 
L 1014.576 68.703666 
L 1015.32 68.648618 
L 1016.064 68.40222 
L 1016.808 67.972319 
L 1017.552 67.372604 
L 1019.04 65.74493 
L 1021.272 62.646419 
L 1023.504 59.546107 
L 1024.992 57.915441 
L 1025.736 57.313821 
L 1026.48 56.881818 
L 1027.224 56.633189 
L 1027.968 56.575854 
L 1028.712 56.711637 
L 1029.456 57.036215 
L 1030.2 57.539251 
L 1031.688 59.011446 
L 1033.176 60.94218 
L 1036.896 66.115672 
L 1038.384 67.636147 
L 1039.128 68.168738 
L 1039.872 68.52526 
L 1040.616 68.694361 
L 1041.36 68.670654 
L 1042.104 68.454896 
L 1042.848 68.053956 
L 1043.592 67.480603 
L 1045.08 65.894605 
L 1046.568 63.897323 
L 1049.544 59.698571 
L 1051.032 58.027696 
L 1051.776 57.400254 
L 1052.52 56.939677 
L 1053.264 56.660632 
L 1054.008 56.572007 
L 1054.752 56.676622 
L 1055.496 56.971147 
L 1056.24 57.446203 
L 1057.728 58.872122 
L 1059.216 60.774188 
L 1062.936 65.970172 
L 1064.424 67.53432 
L 1065.168 68.093991 
L 1065.912 68.479974 
L 1066.656 68.679978 
L 1067.4 68.687632 
L 1068.144 68.502694 
L 1068.888 68.131052 
L 1069.632 67.584542 
L 1071.12 66.04155 
L 1072.608 64.068705 
L 1075.584 59.853502 
L 1077.072 58.143819 
L 1077.816 57.491082 
L 1078.56 57.002318 
L 1079.304 56.693091 
L 1080.048 56.573249 
L 1080.792 56.646609 
L 1081.536 56.910834 
L 1082.28 57.35751 
L 1083.024 57.972413 
L 1084.512 59.623834 
L 1086.744 62.736376 
L 1088.976 65.821879 
L 1090.464 67.428388 
L 1091.208 68.01467 
L 1091.952 68.42979 
L 1092.696 68.660529 
L 1093.44 68.699538 
L 1094.184 68.545574 
L 1094.928 68.203542 
L 1095.672 67.684334 
L 1097.16 66.185642 
L 1098.648 64.238888 
L 1102.368 59.080565 
L 1103.856 57.586229 
L 1104.6 57.069687 
L 1105.344 56.730537 
L 1106.088 56.57958 
L 1106.832 56.621622 
L 1107.576 56.855326 
L 1108.32 57.273249 
L 1109.064 57.862081 
L 1110.552 59.47262 
L 1112.784 62.560635 
L 1115.016 65.670917 
L 1116.504 67.31844 
L 1117.248 67.930841 
L 1117.992 68.37475 
L 1118.736 68.63603 
L 1119.48 68.706361 
L 1120.224 68.583502 
L 1120.968 68.271366 
L 1121.712 67.779895 
L 1122.456 67.124738 
L 1122.456 67.124738 
" style="fill:none;stroke:#ffffff;stroke-linecap:square;"/>
   </g>
  </g>
 </g>
 <defs>
  <clipPath id="pf29d6f7c98">
   <rect height="110.88" width="1116" x="7.2" y="7.2"/>
  </clipPath>
 </defs>
</svg>
