<?xml version="1.0" encoding="utf-8" standalone="no"?>
<!DOCTYPE svg PUBLIC "-//W3C//DTD SVG 1.1//EN"
  "http://www.w3.org/Graphics/SVG/1.1/DTD/svg11.dtd">
<!-- Created with matplotlib (https://matplotlib.org/) -->
<svg height="125.28pt" version="1.1" viewBox="0 0 1130.4 125.28" width="1130.4pt" xmlns="http://www.w3.org/2000/svg" xmlns:xlink="http://www.w3.org/1999/xlink">
 <metadata>
  <rdf:RDF xmlns:cc="http://creativecommons.org/ns#" xmlns:dc="http://purl.org/dc/elements/1.1/" xmlns:rdf="http://www.w3.org/1999/02/22-rdf-syntax-ns#">
   <cc:Work>
    <dc:type rdf:resource="http://purl.org/dc/dcmitype/StillImage"/>
    <dc:date>2020-12-28T19:00:49.060228</dc:date>
    <dc:format>image/svg+xml</dc:format>
    <dc:creator>
     <cc:Agent>
      <dc:title>Matplotlib v3.3.3, https://matplotlib.org/</dc:title>
     </cc:Agent>
    </dc:creator>
   </cc:Work>
  </rdf:RDF>
 </metadata>
 <defs>
  <style type="text/css">*{stroke-linecap:butt;stroke-linejoin:round;}</style>
 </defs>
 <g id="figure_1">
  <g id="patch_1">
   <path d="M 0 125.28 
L 1130.4 125.28 
L 1130.4 0 
L 0 0 
z
" style="fill:none;"/>
  </g>
  <g id="axes_1">
   <g id="line2d_1">
    <path clip-path="url(#pecb5500763)" d="M 7.2 80.351893 
L 7.944 79.790956 
L 8.688 78.622438 
L 9.432 76.887734 
L 10.176 74.648297 
L 11.664 68.987626 
L 15.384 52.951125 
L 16.128 50.333482 
L 16.872 48.151803 
L 17.616 46.483375 
L 18.36 45.387305 
L 19.104 44.902419 
L 19.848 45.045896 
L 20.592 45.812653 
L 21.336 47.175527 
L 22.08 49.086238 
L 22.824 51.477098 
L 24.312 57.346464 
L 28.032 73.244423 
L 28.776 75.726348 
L 29.52 77.744683 
L 30.264 79.227928 
L 31.008 80.123536 
L 31.752 80.399782 
L 32.496 80.046879 
L 33.24 79.077328 
L 33.984 77.525476 
L 34.728 75.4463 
L 36.216 70.016665 
L 40.68 51.16188 
L 41.424 48.825467 
L 42.168 46.978441 
L 42.912 45.686234 
L 43.656 44.994622 
L 44.4 44.928107 
L 45.144 45.489044 
L 45.888 46.657562 
L 46.632 48.392266 
L 47.376 50.631703 
L 48.864 56.292374 
L 52.584 72.328875 
L 53.328 74.946518 
L 54.072 77.128197 
L 54.816 78.796625 
L 55.56 79.892695 
L 56.304 80.377581 
L 57.048 80.234104 
L 57.792 79.467347 
L 58.536 78.104473 
L 59.28 76.193762 
L 60.024 73.802902 
L 61.512 67.933536 
L 65.232 52.035577 
L 65.976 49.553652 
L 66.72 47.535317 
L 67.464 46.052072 
L 68.208 45.156464 
L 68.952 44.880218 
L 69.696 45.233121 
L 70.44 46.202672 
L 71.184 47.754524 
L 71.928 49.8337 
L 73.416 55.263335 
L 77.88 74.11812 
L 78.624 76.454533 
L 79.368 78.301559 
L 80.112 79.593766 
L 80.856 80.285378 
L 81.6 80.351893 
L 82.344 79.790956 
L 83.088 78.622438 
L 83.832 76.887734 
L 84.576 74.648297 
L 86.064 68.987626 
L 89.784 52.951125 
L 90.528 50.333482 
L 91.272 48.151803 
L 92.016 46.483375 
L 92.76 45.387305 
L 93.504 44.902419 
L 94.248 45.045896 
L 94.992 45.812653 
L 95.736 47.175527 
L 96.48 49.086238 
L 97.224 51.477098 
L 98.712 57.346464 
L 102.432 73.244423 
L 103.176 75.726348 
L 103.92 77.744683 
L 104.664 79.227928 
L 105.408 80.123536 
L 106.152 80.399782 
L 106.896 80.046879 
L 107.64 79.077328 
L 108.384 77.525476 
L 109.128 75.4463 
L 110.616 70.016665 
L 115.08 51.16188 
L 115.824 48.825467 
L 116.568 46.978441 
L 117.312 45.686234 
L 118.056 44.994622 
L 118.8 44.928107 
L 119.544 45.489044 
L 120.288 46.657562 
L 121.032 48.392266 
L 121.776 50.631703 
L 123.264 56.292374 
L 126.984 72.328875 
L 127.728 74.946518 
L 128.472 77.128197 
L 129.216 78.796625 
L 129.96 79.892695 
L 130.704 80.377581 
L 131.448 80.234104 
L 132.192 79.467347 
L 132.936 78.104473 
L 133.68 76.193762 
L 134.424 73.802902 
L 135.912 67.933536 
L 139.632 52.035577 
L 140.376 49.553652 
L 141.12 47.535317 
L 141.864 46.052072 
L 142.608 45.156464 
L 143.352 44.880218 
L 144.096 45.233121 
L 144.84 46.202672 
L 145.584 47.754524 
L 146.328 49.8337 
L 147.816 55.263335 
L 152.28 74.11812 
L 153.024 76.454533 
L 153.768 78.301559 
L 154.512 79.593766 
L 155.256 80.285378 
L 156 80.351893 
L 156.744 79.790956 
L 157.488 78.622438 
L 158.232 76.887734 
L 158.976 74.648297 
L 160.464 68.987626 
L 164.184 52.951125 
L 164.928 50.333482 
L 165.672 48.151803 
L 166.416 46.483375 
L 167.16 45.387305 
L 167.904 44.902419 
L 168.648 45.045896 
L 169.392 45.812653 
L 170.136 47.175527 
L 170.88 49.086238 
L 171.624 51.477098 
L 173.112 57.346464 
L 176.832 73.244423 
L 177.576 75.726348 
L 178.32 77.744683 
L 179.064 79.227928 
L 179.808 80.123536 
L 180.552 80.399782 
L 181.296 80.046879 
L 182.04 79.077328 
L 182.784 77.525476 
L 183.528 75.4463 
L 185.016 70.016665 
L 189.48 51.16188 
L 190.224 48.825467 
L 190.968 46.978441 
L 191.712 45.686234 
L 192.456 44.994622 
L 193.2 44.928107 
L 193.944 45.489044 
L 194.688 46.657562 
L 195.432 48.392266 
L 196.176 50.631703 
L 197.664 56.292374 
L 201.384 72.328875 
L 202.128 74.946518 
L 202.872 77.128197 
L 203.616 78.796625 
L 204.36 79.892695 
L 205.104 80.377581 
L 205.848 80.234104 
L 206.592 79.467347 
L 207.336 78.104473 
L 208.08 76.193762 
L 208.824 73.802902 
L 210.312 67.933536 
L 214.032 52.035577 
L 214.776 49.553652 
L 215.52 47.535317 
L 216.264 46.052072 
L 217.008 45.156464 
L 217.752 44.880218 
L 218.496 45.233121 
L 219.24 46.202672 
L 219.984 47.754524 
L 220.728 49.8337 
L 222.216 55.263335 
L 226.68 74.11812 
L 227.424 76.454533 
L 228.168 78.301559 
L 228.912 79.593766 
L 229.656 80.285378 
L 230.4 80.351893 
L 231.144 79.790956 
L 231.888 78.622438 
L 232.632 76.887734 
L 233.376 74.648297 
L 234.864 68.987626 
L 238.584 52.951125 
L 239.328 50.333482 
L 240.072 48.151803 
L 240.816 46.483375 
L 241.56 45.387305 
L 242.304 44.902419 
L 243.048 45.045896 
L 243.792 45.812653 
L 244.536 47.175527 
L 245.28 49.086238 
L 246.024 51.477098 
L 247.512 57.346464 
L 251.232 73.244423 
L 251.976 75.726348 
L 252.72 77.744683 
L 253.464 79.227928 
L 254.208 80.123536 
L 254.952 80.399782 
L 255.696 80.046879 
L 256.44 79.077328 
L 257.184 77.525476 
L 257.928 75.4463 
L 259.416 70.016665 
L 263.88 51.16188 
L 264.624 48.825467 
L 265.368 46.978441 
L 266.112 45.686234 
L 266.856 44.994622 
L 267.6 44.928107 
L 268.344 45.489044 
L 269.088 46.657562 
L 269.832 48.392266 
L 270.576 50.631703 
L 272.064 56.292374 
L 275.784 72.328875 
L 276.528 74.946518 
L 277.272 77.128197 
L 278.016 78.796625 
L 278.76 79.892695 
L 279.504 80.377581 
L 280.248 80.234104 
L 280.992 79.467347 
L 281.736 78.104473 
L 282.48 76.193762 
L 283.224 73.802902 
L 284.712 67.933536 
L 288.432 52.035577 
L 289.176 49.553652 
L 289.92 47.535317 
L 290.664 46.052072 
L 291.408 45.156464 
L 292.152 44.880218 
L 292.896 45.233121 
L 293.64 46.202672 
L 294.384 47.754524 
L 295.128 49.8337 
L 296.616 55.263335 
L 301.08 74.11812 
L 301.824 76.454533 
L 302.568 78.301559 
L 303.312 79.593766 
L 304.056 80.285378 
L 304.8 80.351893 
L 305.544 79.790956 
L 306.288 78.622438 
L 307.032 76.887734 
L 307.776 74.648297 
L 309.264 68.987626 
L 312.984 52.951125 
L 313.728 50.333482 
L 314.472 48.151803 
L 315.216 46.483375 
L 315.96 45.387305 
L 316.704 44.902419 
L 317.448 45.045896 
L 318.192 45.812653 
L 318.936 47.175527 
L 319.68 49.086238 
L 320.424 51.477098 
L 321.912 57.346464 
L 325.632 73.244423 
L 326.376 75.726348 
L 327.12 77.744683 
L 327.864 79.227928 
L 328.608 80.123536 
L 329.352 80.399782 
L 330.096 80.046879 
L 330.84 79.077328 
L 331.584 77.525476 
L 332.328 75.4463 
L 333.816 70.016665 
L 338.28 51.16188 
L 339.024 48.825467 
L 339.768 46.978441 
L 340.512 45.686234 
L 341.256 44.994622 
L 342 44.928107 
L 342.744 45.489044 
L 343.488 46.657562 
L 344.232 48.392266 
L 344.976 50.631703 
L 346.464 56.292374 
L 350.184 72.328875 
L 350.928 74.946518 
L 351.672 77.128197 
L 352.416 78.796625 
L 353.16 79.892695 
L 353.904 80.377581 
L 354.648 80.234104 
L 355.392 79.467347 
L 356.136 78.104473 
L 356.88 76.193762 
L 357.624 73.802902 
L 359.112 67.933536 
L 362.832 52.035577 
L 363.576 49.553652 
L 364.32 47.535317 
L 365.064 46.052072 
L 365.808 45.156464 
L 366.552 44.880218 
L 367.296 45.233121 
L 368.04 46.202672 
L 368.784 47.754524 
L 369.528 49.8337 
L 371.016 55.263335 
L 375.48 74.11812 
L 376.224 76.454533 
L 376.968 78.301559 
L 377.712 79.593766 
L 378.456 80.285378 
L 379.2 80.351893 
L 379.944 79.790956 
L 380.688 78.622438 
L 381.432 76.887734 
L 382.176 74.648297 
L 383.664 68.987626 
L 387.384 52.951125 
L 388.128 50.333482 
L 388.872 48.151803 
L 389.616 46.483375 
L 390.36 45.387305 
L 391.104 44.902419 
L 391.848 45.045896 
L 392.592 45.812653 
L 393.336 47.175527 
L 394.08 49.086238 
L 394.824 51.477098 
L 396.312 57.346464 
L 400.032 73.244423 
L 400.776 75.726348 
L 401.52 77.744683 
L 402.264 79.227928 
L 403.008 80.123536 
L 403.752 80.399782 
L 404.496 80.046879 
L 405.24 79.077328 
L 405.984 77.525476 
L 406.728 75.4463 
L 408.216 70.016665 
L 412.68 51.16188 
L 413.424 48.825467 
L 414.168 46.978441 
L 414.912 45.686234 
L 415.656 44.994622 
L 416.4 44.928107 
L 417.144 45.489044 
L 417.888 46.657562 
L 418.632 48.392266 
L 419.376 50.631703 
L 420.864 56.292374 
L 424.584 72.328875 
L 425.328 74.946518 
L 426.072 77.128197 
L 426.816 78.796625 
L 427.56 79.892695 
L 428.304 80.377581 
L 429.048 80.234104 
L 429.792 79.467347 
L 430.536 78.104473 
L 431.28 76.193762 
L 432.024 73.802902 
L 433.512 67.933536 
L 437.232 52.035577 
L 437.976 49.553652 
L 438.72 47.535317 
L 439.464 46.052072 
L 440.208 45.156464 
L 440.952 44.880218 
L 441.696 45.233121 
L 442.44 46.202672 
L 443.184 47.754524 
L 443.928 49.8337 
L 445.416 55.263335 
L 449.88 74.11812 
L 450.624 76.454533 
L 451.368 78.301559 
L 452.112 79.593766 
L 452.856 80.285378 
L 453.6 80.351893 
L 454.344 79.790956 
L 455.088 78.622438 
L 455.832 76.887734 
L 456.576 74.648297 
L 458.064 68.987626 
L 461.784 52.951125 
L 462.528 50.333482 
L 463.272 48.151803 
L 464.016 46.483375 
L 464.76 45.387305 
L 465.504 44.902419 
L 466.248 45.045896 
L 466.992 45.812653 
L 467.736 47.175527 
L 468.48 49.086238 
L 469.224 51.477098 
L 470.712 57.346464 
L 474.432 73.244423 
L 475.176 75.726348 
L 475.92 77.744683 
L 476.664 79.227928 
L 477.408 80.123536 
L 478.152 80.399782 
L 478.896 80.046879 
L 479.64 79.077328 
L 480.384 77.525476 
L 481.128 75.4463 
L 482.616 70.016665 
L 487.08 51.16188 
L 487.824 48.825467 
L 488.568 46.978441 
L 489.312 45.686234 
L 490.056 44.994622 
L 490.8 44.928107 
L 491.544 45.489044 
L 492.288 46.657562 
L 493.032 48.392266 
L 493.776 50.631703 
L 495.264 56.292374 
L 498.984 72.328875 
L 499.728 74.946518 
L 500.472 77.128197 
L 501.216 78.796625 
L 501.96 79.892695 
L 502.704 80.377581 
L 503.448 80.234104 
L 504.192 79.467347 
L 504.936 78.104473 
L 505.68 76.193762 
L 506.424 73.802902 
L 507.912 67.933536 
L 511.632 52.035577 
L 512.376 49.553652 
L 513.12 47.535317 
L 513.864 46.052072 
L 514.608 45.156464 
L 515.352 44.880218 
L 516.096 45.233121 
L 516.84 46.202672 
L 517.584 47.754524 
L 518.328 49.8337 
L 519.816 55.263335 
L 524.28 74.11812 
L 525.024 76.454533 
L 525.768 78.301559 
L 526.512 79.593766 
L 527.256 80.285378 
L 528 80.351893 
L 528.744 79.790956 
L 529.488 78.622438 
L 530.232 76.887734 
L 530.976 74.648297 
L 532.464 68.987626 
L 536.184 52.951125 
L 536.928 50.333482 
L 537.672 48.151803 
L 538.416 46.483375 
L 539.16 45.387305 
L 539.904 44.902419 
L 540.648 45.045896 
L 541.392 45.812653 
L 542.136 47.175527 
L 542.88 49.086238 
L 543.624 51.477098 
L 545.112 57.346464 
L 548.832 73.244423 
L 549.576 75.726348 
L 550.32 77.744683 
L 551.064 79.227928 
L 551.808 80.123536 
L 552.552 80.399782 
L 553.296 80.046879 
L 554.04 79.077328 
L 554.784 77.525476 
L 555.528 75.4463 
L 557.016 70.016665 
L 561.48 51.16188 
L 562.224 48.825467 
L 562.968 46.978441 
L 563.712 45.686234 
L 564.456 44.994622 
L 565.2 44.928107 
L 565.944 45.489044 
L 566.688 46.657562 
L 567.432 48.392266 
L 568.176 50.631703 
L 569.664 56.292374 
L 573.384 72.328875 
L 574.128 74.946518 
L 574.872 77.128197 
L 575.616 78.796625 
L 576.36 79.892695 
L 577.104 80.377581 
L 577.848 80.234104 
L 578.592 79.467347 
L 579.336 78.104473 
L 580.08 76.193762 
L 580.824 73.802902 
L 582.312 67.933536 
L 586.032 52.035577 
L 586.776 49.553652 
L 587.52 47.535317 
L 588.264 46.052072 
L 589.008 45.156464 
L 589.752 44.880218 
L 590.496 45.233121 
L 591.24 46.202672 
L 591.984 47.754524 
L 592.728 49.8337 
L 594.216 55.263335 
L 598.68 74.11812 
L 599.424 76.454533 
L 600.168 78.301559 
L 600.912 79.593766 
L 601.656 80.285378 
L 602.4 80.351893 
L 603.144 79.790956 
L 603.888 78.622438 
L 604.632 76.887734 
L 605.376 74.648297 
L 606.864 68.987626 
L 610.584 52.951125 
L 611.328 50.333482 
L 612.072 48.151803 
L 612.816 46.483375 
L 613.56 45.387305 
L 614.304 44.902419 
L 615.048 45.045896 
L 615.792 45.812653 
L 616.536 47.175527 
L 617.28 49.086238 
L 618.024 51.477098 
L 619.512 57.346464 
L 623.232 73.244423 
L 623.976 75.726348 
L 624.72 77.744683 
L 625.464 79.227928 
L 626.208 80.123536 
L 626.952 80.399782 
L 627.696 80.046879 
L 628.44 79.077328 
L 629.184 77.525476 
L 629.928 75.4463 
L 631.416 70.016665 
L 635.88 51.16188 
L 636.624 48.825467 
L 637.368 46.978441 
L 638.112 45.686234 
L 638.856 44.994622 
L 639.6 44.928107 
L 640.344 45.489044 
L 641.088 46.657562 
L 641.832 48.392266 
L 642.576 50.631703 
L 644.064 56.292374 
L 647.784 72.328875 
L 648.528 74.946518 
L 649.272 77.128197 
L 650.016 78.796625 
L 650.76 79.892695 
L 651.504 80.377581 
L 652.248 80.234104 
L 652.992 79.467347 
L 653.736 78.104473 
L 654.48 76.193762 
L 655.224 73.802902 
L 656.712 67.933536 
L 660.432 52.035577 
L 661.176 49.553652 
L 661.92 47.535317 
L 662.664 46.052072 
L 663.408 45.156464 
L 664.152 44.880218 
L 664.896 45.233121 
L 665.64 46.202672 
L 666.384 47.754524 
L 667.128 49.8337 
L 668.616 55.263335 
L 673.08 74.11812 
L 673.824 76.454533 
L 674.568 78.301559 
L 675.312 79.593766 
L 676.056 80.285378 
L 676.8 80.351893 
L 677.544 79.790956 
L 678.288 78.622438 
L 679.032 76.887734 
L 679.776 74.648297 
L 681.264 68.987626 
L 684.984 52.951125 
L 685.728 50.333482 
L 686.472 48.151803 
L 687.216 46.483375 
L 687.96 45.387305 
L 688.704 44.902419 
L 689.448 45.045896 
L 690.192 45.812653 
L 690.936 47.175527 
L 691.68 49.086238 
L 692.424 51.477098 
L 693.912 57.346464 
L 697.632 73.244423 
L 698.376 75.726348 
L 699.12 77.744683 
L 699.864 79.227928 
L 700.608 80.123536 
L 701.352 80.399782 
L 702.096 80.046879 
L 702.84 79.077328 
L 703.584 77.525476 
L 704.328 75.4463 
L 705.816 70.016665 
L 710.28 51.16188 
L 711.024 48.825467 
L 711.768 46.978441 
L 712.512 45.686234 
L 713.256 44.994622 
L 714 44.928107 
L 714.744 45.489044 
L 715.488 46.657562 
L 716.232 48.392266 
L 716.976 50.631703 
L 718.464 56.292374 
L 722.184 72.328875 
L 722.928 74.946518 
L 723.672 77.128197 
L 724.416 78.796625 
L 725.16 79.892695 
L 725.904 80.377581 
L 726.648 80.234104 
L 727.392 79.467347 
L 728.136 78.104473 
L 728.88 76.193762 
L 729.624 73.802902 
L 731.112 67.933536 
L 734.832 52.035577 
L 735.576 49.553652 
L 736.32 47.535317 
L 737.064 46.052072 
L 737.808 45.156464 
L 738.552 44.880218 
L 739.296 45.233121 
L 740.04 46.202672 
L 740.784 47.754524 
L 741.528 49.8337 
L 743.016 55.263335 
L 747.48 74.11812 
L 748.224 76.454533 
L 748.968 78.301559 
L 749.712 79.593766 
L 750.456 80.285378 
L 751.2 80.351893 
L 751.944 79.790956 
L 752.688 78.622438 
L 753.432 76.887734 
L 754.176 74.648297 
L 755.664 68.987626 
L 759.384 52.951125 
L 760.128 50.333482 
L 760.872 48.151803 
L 761.616 46.483375 
L 762.36 45.387305 
L 763.104 44.902419 
L 763.848 45.045896 
L 764.592 45.812653 
L 765.336 47.175527 
L 766.08 49.086238 
L 766.824 51.477098 
L 768.312 57.346464 
L 772.032 73.244423 
L 772.776 75.726348 
L 773.52 77.744683 
L 774.264 79.227928 
L 775.008 80.123536 
L 775.752 80.399782 
L 776.496 80.046879 
L 777.24 79.077328 
L 777.984 77.525476 
L 778.728 75.4463 
L 780.216 70.016665 
L 784.68 51.16188 
L 785.424 48.825467 
L 786.168 46.978441 
L 786.912 45.686234 
L 787.656 44.994622 
L 788.4 44.928107 
L 789.144 45.489044 
L 789.888 46.657562 
L 790.632 48.392266 
L 791.376 50.631703 
L 792.864 56.292374 
L 796.584 72.328875 
L 797.328 74.946518 
L 798.072 77.128197 
L 798.816 78.796625 
L 799.56 79.892695 
L 800.304 80.377581 
L 801.048 80.234104 
L 801.792 79.467347 
L 802.536 78.104473 
L 803.28 76.193762 
L 804.024 73.802902 
L 805.512 67.933536 
L 809.232 52.035577 
L 809.976 49.553652 
L 810.72 47.535317 
L 811.464 46.052072 
L 812.208 45.156464 
L 812.952 44.880218 
L 813.696 45.233121 
L 814.44 46.202672 
L 815.184 47.754524 
L 815.928 49.8337 
L 817.416 55.263335 
L 821.88 74.11812 
L 822.624 76.454533 
L 823.368 78.301559 
L 824.112 79.593766 
L 824.856 80.285378 
L 825.6 80.351893 
L 826.344 79.790956 
L 827.088 78.622438 
L 827.832 76.887734 
L 828.576 74.648297 
L 830.064 68.987626 
L 833.784 52.951125 
L 834.528 50.333482 
L 835.272 48.151803 
L 836.016 46.483375 
L 836.76 45.387305 
L 837.504 44.902419 
L 838.248 45.045896 
L 838.992 45.812653 
L 839.736 47.175527 
L 840.48 49.086238 
L 841.224 51.477098 
L 842.712 57.346464 
L 846.432 73.244423 
L 847.176 75.726348 
L 847.92 77.744683 
L 848.664 79.227928 
L 849.408 80.123536 
L 850.152 80.399782 
L 850.896 80.046879 
L 851.64 79.077328 
L 852.384 77.525476 
L 853.128 75.4463 
L 854.616 70.016665 
L 859.08 51.16188 
L 859.824 48.825467 
L 860.568 46.978441 
L 861.312 45.686234 
L 862.056 44.994622 
L 862.8 44.928107 
L 863.544 45.489044 
L 864.288 46.657562 
L 865.032 48.392266 
L 865.776 50.631703 
L 867.264 56.292374 
L 870.984 72.328875 
L 871.728 74.946518 
L 872.472 77.128197 
L 873.216 78.796625 
L 873.96 79.892695 
L 874.704 80.377581 
L 875.448 80.234104 
L 876.192 79.467347 
L 876.936 78.104473 
L 877.68 76.193762 
L 878.424 73.802902 
L 879.912 67.933536 
L 883.632 52.035577 
L 884.376 49.553652 
L 885.12 47.535317 
L 885.864 46.052072 
L 886.608 45.156464 
L 887.352 44.880218 
L 888.096 45.233121 
L 888.84 46.202672 
L 889.584 47.754524 
L 890.328 49.8337 
L 891.816 55.263335 
L 896.28 74.11812 
L 897.024 76.454533 
L 897.768 78.301559 
L 898.512 79.593766 
L 899.256 80.285378 
L 900 80.351893 
L 900.744 79.790956 
L 901.488 78.622438 
L 902.232 76.887734 
L 902.976 74.648297 
L 904.464 68.987626 
L 908.184 52.951125 
L 908.928 50.333482 
L 909.672 48.151803 
L 910.416 46.483375 
L 911.16 45.387305 
L 911.904 44.902419 
L 912.648 45.045896 
L 913.392 45.812653 
L 914.136 47.175527 
L 914.88 49.086238 
L 915.624 51.477098 
L 917.112 57.346464 
L 920.832 73.244423 
L 921.576 75.726348 
L 922.32 77.744683 
L 923.064 79.227928 
L 923.808 80.123536 
L 924.552 80.399782 
L 925.296 80.046879 
L 926.04 79.077328 
L 926.784 77.525476 
L 927.528 75.4463 
L 929.016 70.016665 
L 933.48 51.16188 
L 934.224 48.825467 
L 934.968 46.978441 
L 935.712 45.686234 
L 936.456 44.994622 
L 937.2 44.928107 
L 937.944 45.489044 
L 938.688 46.657562 
L 939.432 48.392266 
L 940.176 50.631703 
L 941.664 56.292374 
L 945.384 72.328875 
L 946.128 74.946518 
L 946.872 77.128197 
L 947.616 78.796625 
L 948.36 79.892695 
L 949.104 80.377581 
L 949.848 80.234104 
L 950.592 79.467347 
L 951.336 78.104473 
L 952.08 76.193762 
L 952.824 73.802902 
L 954.312 67.933536 
L 958.032 52.035577 
L 958.776 49.553652 
L 959.52 47.535317 
L 960.264 46.052072 
L 961.008 45.156464 
L 961.752 44.880218 
L 962.496 45.233121 
L 963.24 46.202672 
L 963.984 47.754524 
L 964.728 49.8337 
L 966.216 55.263335 
L 970.68 74.11812 
L 971.424 76.454533 
L 972.168 78.301559 
L 972.912 79.593766 
L 973.656 80.285378 
L 974.4 80.351893 
L 975.144 79.790956 
L 975.888 78.622438 
L 976.632 76.887734 
L 977.376 74.648297 
L 978.864 68.987626 
L 982.584 52.951125 
L 983.328 50.333482 
L 984.072 48.151803 
L 984.816 46.483375 
L 985.56 45.387305 
L 986.304 44.902419 
L 987.048 45.045896 
L 987.792 45.812653 
L 988.536 47.175527 
L 989.28 49.086238 
L 990.024 51.477098 
L 991.512 57.346464 
L 995.232 73.244423 
L 995.976 75.726348 
L 996.72 77.744683 
L 997.464 79.227928 
L 998.208 80.123536 
L 998.952 80.399782 
L 999.696 80.046879 
L 1000.44 79.077328 
L 1001.184 77.525476 
L 1001.928 75.4463 
L 1003.416 70.016665 
L 1007.88 51.16188 
L 1008.624 48.825467 
L 1009.368 46.978441 
L 1010.112 45.686234 
L 1010.856 44.994622 
L 1011.6 44.928107 
L 1012.344 45.489044 
L 1013.088 46.657562 
L 1013.832 48.392266 
L 1014.576 50.631703 
L 1016.064 56.292374 
L 1019.784 72.328875 
L 1020.528 74.946518 
L 1021.272 77.128197 
L 1022.016 78.796625 
L 1022.76 79.892695 
L 1023.504 80.377581 
L 1024.248 80.234104 
L 1024.992 79.467347 
L 1025.736 78.104473 
L 1026.48 76.193762 
L 1027.224 73.802902 
L 1028.712 67.933536 
L 1032.432 52.035577 
L 1033.176 49.553652 
L 1033.92 47.535317 
L 1034.664 46.052072 
L 1035.408 45.156464 
L 1036.152 44.880218 
L 1036.896 45.233121 
L 1037.64 46.202672 
L 1038.384 47.754524 
L 1039.128 49.8337 
L 1040.616 55.263335 
L 1045.08 74.11812 
L 1045.824 76.454533 
L 1046.568 78.301559 
L 1047.312 79.593766 
L 1048.056 80.285378 
L 1048.8 80.351893 
L 1049.544 79.790956 
L 1050.288 78.622438 
L 1051.032 76.887734 
L 1051.776 74.648297 
L 1053.264 68.987626 
L 1056.984 52.951125 
L 1057.728 50.333482 
L 1058.472 48.151803 
L 1059.216 46.483375 
L 1059.96 45.387305 
L 1060.704 44.902419 
L 1061.448 45.045896 
L 1062.192 45.812653 
L 1062.936 47.175527 
L 1063.68 49.086238 
L 1064.424 51.477098 
L 1065.912 57.346464 
L 1069.632 73.244423 
L 1070.376 75.726348 
L 1071.12 77.744683 
L 1071.864 79.227928 
L 1072.608 80.123536 
L 1073.352 80.399782 
L 1074.096 80.046879 
L 1074.84 79.077328 
L 1075.584 77.525476 
L 1076.328 75.4463 
L 1077.816 70.016665 
L 1082.28 51.16188 
L 1083.024 48.825467 
L 1083.768 46.978441 
L 1084.512 45.686234 
L 1085.256 44.994622 
L 1086 44.928107 
L 1086.744 45.489044 
L 1087.488 46.657562 
L 1088.232 48.392266 
L 1088.976 50.631703 
L 1090.464 56.292374 
L 1094.184 72.328875 
L 1094.928 74.946518 
L 1095.672 77.128197 
L 1096.416 78.796625 
L 1097.16 79.892695 
L 1097.904 80.377581 
L 1098.648 80.234104 
L 1099.392 79.467347 
L 1100.136 78.104473 
L 1100.88 76.193762 
L 1101.624 73.802902 
L 1103.112 67.933536 
L 1106.832 52.035577 
L 1107.576 49.553652 
L 1108.32 47.535317 
L 1109.064 46.052072 
L 1109.808 45.156464 
L 1110.552 44.880218 
L 1111.296 45.233121 
L 1112.04 46.202672 
L 1112.784 47.754524 
L 1113.528 49.8337 
L 1115.016 55.263335 
L 1119.48 74.11812 
L 1120.224 76.454533 
L 1120.968 78.301559 
L 1121.712 79.593766 
L 1122.456 80.285378 
L 1122.456 80.285378 
" style="fill:none;stroke:#ffffff;stroke-linecap:square;"/>
   </g>
  </g>
 </g>
 <defs>
  <clipPath id="pecb5500763">
   <rect height="110.88" width="1116" x="7.2" y="7.2"/>
  </clipPath>
 </defs>
</svg>
