<?xml version="1.0" encoding="utf-8" standalone="no"?>
<!DOCTYPE svg PUBLIC "-//W3C//DTD SVG 1.1//EN"
  "http://www.w3.org/Graphics/SVG/1.1/DTD/svg11.dtd">
<!-- Created with matplotlib (https://matplotlib.org/) -->
<svg height="125.28pt" version="1.1" viewBox="0 0 1130.4 125.28" width="1130.4pt" xmlns="http://www.w3.org/2000/svg" xmlns:xlink="http://www.w3.org/1999/xlink">
 <metadata>
  <rdf:RDF xmlns:cc="http://creativecommons.org/ns#" xmlns:dc="http://purl.org/dc/elements/1.1/" xmlns:rdf="http://www.w3.org/1999/02/22-rdf-syntax-ns#">
   <cc:Work>
    <dc:type rdf:resource="http://purl.org/dc/dcmitype/StillImage"/>
    <dc:date>2020-12-28T19:00:49.091228</dc:date>
    <dc:format>image/svg+xml</dc:format>
    <dc:creator>
     <cc:Agent>
      <dc:title>Matplotlib v3.3.3, https://matplotlib.org/</dc:title>
     </cc:Agent>
    </dc:creator>
   </cc:Work>
  </rdf:RDF>
 </metadata>
 <defs>
  <style type="text/css">*{stroke-linecap:butt;stroke-linejoin:round;}</style>
 </defs>
 <g id="figure_1">
  <g id="patch_1">
   <path d="M 0 125.28 
L 1130.4 125.28 
L 1130.4 0 
L 0 0 
z
" style="fill:none;"/>
  </g>
  <g id="axes_1">
   <g id="line2d_1">
    <path clip-path="url(#pfa5e2964bd)" d="M 7.2 55.923751 
L 8.688 55.767766 
L 10.176 55.856563 
L 11.664 56.186981 
L 13.152 56.74725 
L 14.64 57.517414 
L 16.872 59.004395 
L 19.104 60.781662 
L 25.8 66.389152 
L 28.032 67.851374 
L 29.52 68.600946 
L 31.008 69.138193 
L 32.496 69.443981 
L 33.984 69.507416 
L 35.472 69.32624 
L 36.96 68.906905 
L 38.448 68.264348 
L 39.936 67.421457 
L 42.168 65.848861 
L 45.144 63.378381 
L 49.608 59.591628 
L 51.84 57.989677 
L 53.328 57.121218 
L 54.816 56.449332 
L 56.304 55.997953 
L 57.792 55.783159 
L 59.28 55.812599 
L 60.768 56.085226 
L 62.256 56.591328 
L 63.744 57.312879 
L 65.976 58.741072 
L 68.208 60.480576 
L 75.648 66.665244 
L 77.88 68.063472 
L 79.368 68.760597 
L 80.856 69.239711 
L 82.344 69.483749 
L 83.832 69.484018 
L 85.32 69.240509 
L 86.808 68.761895 
L 88.296 68.065225 
L 89.784 67.175312 
L 92.016 65.549063 
L 94.992 63.044751 
L 99.456 59.295256 
L 101.688 57.748697 
L 103.176 56.928195 
L 104.664 56.311144 
L 106.152 55.919521 
L 107.64 55.767275 
L 109.128 55.859831 
L 110.616 56.19389 
L 112.104 56.757555 
L 113.592 57.530747 
L 115.824 59.021352 
L 118.056 60.800887 
L 124.752 66.405868 
L 126.984 67.86437 
L 128.472 68.610864 
L 129.96 69.14468 
L 131.448 69.446805 
L 132.936 69.506477 
L 134.424 69.321571 
L 135.912 68.898673 
L 137.4 68.252847 
L 138.888 67.407095 
L 141.12 65.831194 
L 144.096 63.358533 
L 148.56 59.57375 
L 150.792 57.974996 
L 152.28 57.109339 
L 153.768 56.440679 
L 155.256 55.992834 
L 156.744 55.781755 
L 158.232 55.814962 
L 159.72 56.09127 
L 161.208 56.600839 
L 162.696 57.325518 
L 164.928 58.757529 
L 167.16 60.499536 
L 174.6 66.681408 
L 176.832 68.075715 
L 178.32 68.76966 
L 179.808 69.245271 
L 181.296 69.485607 
L 182.784 69.482109 
L 184.272 69.234901 
L 185.76 68.752788 
L 187.248 68.052942 
L 188.736 67.160292 
L 190.968 65.530965 
L 193.944 63.024823 
L 197.664 59.858675 
L 199.896 58.211079 
L 201.384 57.302082 
L 202.872 56.583216 
L 204.36 56.080089 
L 205.848 55.81062 
L 207.336 55.784407 
L 208.824 56.002386 
L 210.312 56.45679 
L 211.8 57.131436 
L 213.288 58.002291 
L 215.52 59.606972 
L 218.496 62.098107 
L 222.96 65.863981 
L 225.192 67.433734 
L 226.68 68.274168 
L 228.168 68.913918 
L 229.656 69.330196 
L 231.144 69.508174 
L 232.632 69.441514 
L 234.12 69.13259 
L 235.608 68.592405 
L 237.096 67.8402 
L 239.328 66.374801 
L 241.56 64.611196 
L 248.256 58.989886 
L 250.488 57.50602 
L 251.976 56.738457 
L 253.464 56.181102 
L 254.952 55.853808 
L 256.44 55.768232 
L 257.928 55.927422 
L 259.416 56.32571 
L 260.904 56.948907 
L 262.392 57.774815 
L 264.624 59.32769 
L 267.6 61.784903 
L 272.064 65.582607 
L 274.296 67.203104 
L 275.784 68.087912 
L 277.272 68.778671 
L 278.76 69.250775 
L 280.248 69.487409 
L 281.736 69.480143 
L 283.224 69.229238 
L 284.712 68.743629 
L 286.2 68.040614 
L 287.688 67.145234 
L 289.92 65.512842 
L 292.896 63.004891 
L 296.616 59.840432 
L 298.848 58.195831 
L 300.336 57.289526 
L 301.824 56.5738 
L 303.312 56.074147 
L 304.8 55.808364 
L 306.288 55.785918 
L 307.776 56.007609 
L 309.264 56.46554 
L 310.752 57.143401 
L 312.24 58.017046 
L 314.472 59.624898 
L 317.448 62.118009 
L 321.912 65.881597 
L 324.144 67.448022 
L 325.632 68.285582 
L 327.12 68.922051 
L 328.608 69.334759 
L 330.096 69.509006 
L 331.584 69.438584 
L 333.072 69.126002 
L 334.56 68.582394 
L 336.048 67.827123 
L 338.28 66.358027 
L 340.512 64.592065 
L 347.208 58.972987 
L 349.44 57.492767 
L 350.928 56.728245 
L 352.416 56.174294 
L 353.904 55.850646 
L 355.392 55.76883 
L 356.88 55.931758 
L 358.368 56.333629 
L 359.856 56.960128 
L 361.344 57.788938 
L 363.576 59.345196 
L 366.552 61.804712 
L 371.016 65.600634 
L 373.248 67.218014 
L 374.736 68.100064 
L 376.224 68.78763 
L 377.712 69.256223 
L 379.2 69.489152 
L 380.688 69.47812 
L 382.176 69.223519 
L 383.664 68.734419 
L 385.152 68.028241 
L 386.64 67.130138 
L 388.872 65.494696 
L 391.848 62.984957 
L 395.568 59.822213 
L 397.8 58.180621 
L 399.288 57.277015 
L 400.776 56.564434 
L 402.264 56.06826 
L 403.752 55.806165 
L 405.24 55.787487 
L 406.728 56.012889 
L 408.216 56.474343 
L 409.704 57.155412 
L 411.192 58.031839 
L 413.424 59.642849 
L 416.4 62.137914 
L 420.864 65.899186 
L 423.096 67.462268 
L 424.584 68.296948 
L 426.072 68.930132 
L 427.56 69.339266 
L 429.048 69.509779 
L 430.536 69.435595 
L 432.024 69.119359 
L 433.512 68.572332 
L 435 67.814001 
L 437.232 66.341221 
L 439.464 64.572917 
L 446.16 58.956118 
L 448.392 57.479557 
L 449.88 56.718082 
L 451.368 56.16754 
L 452.856 55.847542 
L 454.344 55.769485 
L 455.832 55.936151 
L 457.32 56.341602 
L 458.808 56.971397 
L 460.296 57.803102 
L 462.528 59.362729 
L 465.504 61.824529 
L 469.968 65.618637 
L 472.2 67.232886 
L 473.688 68.112169 
L 475.176 68.796538 
L 476.664 69.261616 
L 478.152 69.490838 
L 479.64 69.476038 
L 481.128 69.217745 
L 482.616 68.725158 
L 484.104 68.015822 
L 485.592 67.115004 
L 487.824 65.476525 
L 491.544 62.315576 
L 495.264 59.225727 
L 497.496 57.692923 
L 498.984 56.88415 
L 500.472 56.280395 
L 501.96 55.903164 
L 503.448 55.765894 
L 504.936 55.873474 
L 506.424 56.222071 
L 507.912 56.79927 
L 509.4 57.584511 
L 511.632 59.089481 
L 514.608 61.512854 
L 519.816 65.916748 
L 522.048 67.476474 
L 523.536 68.308266 
L 525.024 68.938159 
L 526.512 69.343717 
L 528 69.510494 
L 529.488 69.43255 
L 530.976 69.112661 
L 532.464 68.562221 
L 533.952 67.800836 
L 536.184 66.324385 
L 538.416 64.553753 
L 545.112 58.939281 
L 547.344 57.466391 
L 548.832 56.707969 
L 550.32 56.160841 
L 551.808 55.844495 
L 553.296 55.770199 
L 554.784 55.9406 
L 556.272 56.349628 
L 557.76 56.982714 
L 559.248 57.817307 
L 561.48 59.380289 
L 564.456 61.844353 
L 568.92 65.636614 
L 571.152 67.247719 
L 572.64 68.124228 
L 574.128 68.805394 
L 575.616 69.266953 
L 577.104 69.492466 
L 578.592 69.473899 
L 580.08 69.211915 
L 581.568 68.715845 
L 583.056 68.003358 
L 585.288 66.586252 
L 587.52 64.854056 
L 594.96 58.661612 
L 597.192 57.252129 
L 598.68 56.545857 
L 600.168 56.056652 
L 601.656 55.801942 
L 603.144 55.790797 
L 604.632 56.023615 
L 606.12 56.492103 
L 607.608 57.179574 
L 609.096 58.061541 
L 611.328 59.678828 
L 614.304 62.177738 
L 618.768 65.934281 
L 621 67.490639 
L 622.488 68.319537 
L 623.976 68.946134 
L 625.464 69.348111 
L 626.952 69.511152 
L 628.44 69.429447 
L 629.928 69.105909 
L 631.416 68.552059 
L 632.904 67.787628 
L 635.136 66.307517 
L 637.368 64.534573 
L 644.064 58.922474 
L 646.296 57.453268 
L 647.784 56.697906 
L 649.272 56.154196 
L 650.76 55.841505 
L 652.248 55.77097 
L 653.736 55.945105 
L 655.224 56.357707 
L 656.712 56.994078 
L 658.2 57.831553 
L 660.432 59.397877 
L 663.408 61.864183 
L 667.872 65.654567 
L 670.104 67.262513 
L 671.592 68.136241 
L 673.08 68.814198 
L 674.568 69.272234 
L 676.056 69.494036 
L 677.544 69.471703 
L 679.032 69.20603 
L 680.52 68.706481 
L 682.008 67.990848 
L 684.24 66.56989 
L 686.472 64.83515 
L 693.912 58.64535 
L 696.144 57.239754 
L 697.632 56.536645 
L 699.12 56.050932 
L 700.608 55.799916 
L 702.096 55.792539 
L 703.584 56.029062 
L 705.072 56.501061 
L 706.56 57.191724 
L 708.048 58.07645 
L 710.28 59.696855 
L 713.256 62.197656 
L 717.72 65.951787 
L 719.952 67.504764 
L 721.44 68.330759 
L 722.928 68.954055 
L 724.416 69.352449 
L 725.904 69.511751 
L 727.392 69.426287 
L 728.88 69.099102 
L 730.368 68.541848 
L 731.856 67.774376 
L 734.088 66.290619 
L 736.32 64.515377 
L 743.016 58.905699 
L 745.248 57.440189 
L 746.736 56.687893 
L 748.224 56.147606 
L 749.712 55.838572 
L 751.2 55.7718 
L 752.688 55.949667 
L 754.176 56.365838 
L 755.664 57.00549 
L 757.152 57.845839 
L 759.384 59.415493 
L 762.36 61.88402 
L 766.824 65.672493 
L 769.056 67.277269 
L 770.544 68.148208 
L 772.032 68.822949 
L 773.52 69.277459 
L 775.008 69.495548 
L 776.496 69.469448 
L 777.984 69.200089 
L 779.472 68.697065 
L 780.96 67.978294 
L 783.192 66.553496 
L 785.424 64.816224 
L 792.864 58.629121 
L 795.096 57.227425 
L 796.584 56.527485 
L 798.072 56.045267 
L 799.56 55.797948 
L 801.048 55.794338 
L 802.536 56.034564 
L 804.024 56.510071 
L 805.512 57.20392 
L 807 58.091398 
L 809.232 59.714906 
L 812.208 62.217577 
L 816.672 65.969266 
L 818.904 67.518847 
L 820.392 68.341934 
L 821.88 68.961923 
L 823.368 69.35673 
L 824.856 69.512293 
L 826.344 69.42307 
L 827.832 69.092241 
L 829.32 68.531587 
L 830.808 67.761081 
L 833.04 66.273689 
L 835.272 64.496165 
L 841.968 58.888956 
L 844.2 57.427154 
L 845.688 56.67793 
L 847.176 56.141071 
L 848.664 55.835697 
L 850.152 55.772687 
L 851.64 55.954285 
L 853.128 56.374023 
L 854.616 57.01695 
L 856.104 57.860165 
L 858.336 59.433135 
L 861.312 61.903863 
L 865.776 65.690395 
L 868.008 67.291985 
L 869.496 68.160128 
L 870.984 68.831649 
L 872.472 69.282628 
L 873.96 69.497003 
L 875.448 69.467137 
L 876.936 69.194094 
L 878.424 68.687599 
L 879.912 67.965694 
L 882.144 66.537069 
L 884.376 64.797281 
L 891.816 58.612927 
L 894.048 57.215141 
L 895.536 56.518376 
L 897.024 56.039658 
L 898.512 55.796038 
L 900 55.796195 
L 901.488 56.040123 
L 902.976 56.519132 
L 904.464 57.216162 
L 905.952 58.106384 
L 908.184 59.732982 
L 911.16 62.237502 
L 915.624 65.986716 
L 917.856 67.532889 
L 919.344 68.35306 
L 920.832 68.969737 
L 922.32 69.360954 
L 923.808 69.512776 
L 925.296 69.419796 
L 926.784 69.085325 
L 928.272 68.521277 
L 929.76 67.747742 
L 931.992 66.256729 
L 934.224 64.476938 
L 940.92 58.872244 
L 943.152 57.414163 
L 944.64 56.668018 
L 946.128 56.13459 
L 947.616 55.832879 
L 949.104 55.773633 
L 950.592 55.95896 
L 952.08 56.382261 
L 953.568 57.028457 
L 955.056 57.874532 
L 957.288 59.450805 
L 960.264 61.923712 
L 964.728 65.70827 
L 966.96 67.306662 
L 968.448 68.172002 
L 969.936 68.840296 
L 971.424 69.287741 
L 972.912 69.4984 
L 974.4 69.464767 
L 975.888 69.188043 
L 977.376 68.678082 
L 978.864 67.95305 
L 981.096 66.520608 
L 983.328 64.778319 
L 990.768 58.596766 
L 993 57.202903 
L 994.488 56.509319 
L 995.976 56.034104 
L 997.464 55.794186 
L 998.952 55.79811 
L 1000.44 56.045736 
L 1001.928 56.528245 
L 1003.416 57.228449 
L 1004.904 58.121409 
L 1007.136 59.751083 
L 1010.112 62.257431 
L 1013.832 65.423389 
L 1016.064 67.070647 
L 1017.552 67.97934 
L 1019.04 68.697851 
L 1020.528 69.200586 
L 1022.016 69.469638 
L 1023.504 69.495425 
L 1024.992 69.277026 
L 1026.48 68.822223 
L 1027.968 68.147214 
L 1029.456 67.276042 
L 1031.688 65.671002 
L 1034.664 63.179642 
L 1039.128 59.414026 
L 1041.36 57.844648 
L 1042.848 57.004539 
L 1044.336 56.36516 
L 1045.824 55.949285 
L 1047.312 55.771729 
L 1048.8 55.838814 
L 1050.288 56.148152 
L 1051.776 56.688724 
L 1053.264 57.441276 
L 1055.496 58.907094 
L 1057.728 60.670967 
L 1064.424 66.292026 
L 1066.656 67.77548 
L 1068.144 68.5427 
L 1069.632 69.09967 
L 1071.12 69.426553 
L 1072.608 69.511704 
L 1074.096 69.35209 
L 1075.584 68.953398 
L 1077.072 68.329827 
L 1078.56 67.50359 
L 1080.792 65.950332 
L 1083.768 63.492858 
L 1088.232 59.695353 
L 1090.464 58.075208 
L 1091.952 57.190711 
L 1093.44 56.500314 
L 1094.928 56.028606 
L 1096.416 55.792391 
L 1097.904 55.800083 
L 1099.392 56.051406 
L 1100.88 56.53741 
L 1102.368 57.240782 
L 1103.856 58.136471 
L 1106.088 59.769208 
L 1109.064 62.277362 
L 1112.784 65.441629 
L 1115.016 67.08589 
L 1116.504 67.991891 
L 1117.992 68.707262 
L 1119.48 69.206522 
L 1120.968 69.471888 
L 1122.456 69.493907 
L 1122.456 69.493907 
" style="fill:none;stroke:#ffffff;stroke-linecap:square;"/>
   </g>
  </g>
 </g>
 <defs>
  <clipPath id="pfa5e2964bd">
   <rect height="110.88" width="1116" x="7.2" y="7.2"/>
  </clipPath>
 </defs>
</svg>
