<?xml version="1.0" encoding="utf-8" standalone="no"?>
<!DOCTYPE svg PUBLIC "-//W3C//DTD SVG 1.1//EN"
  "http://www.w3.org/Graphics/SVG/1.1/DTD/svg11.dtd">
<!-- Created with matplotlib (https://matplotlib.org/) -->
<svg height="125.28pt" version="1.1" viewBox="0 0 1130.4 125.28" width="1130.4pt" xmlns="http://www.w3.org/2000/svg" xmlns:xlink="http://www.w3.org/1999/xlink">
 <metadata>
  <rdf:RDF xmlns:cc="http://creativecommons.org/ns#" xmlns:dc="http://purl.org/dc/elements/1.1/" xmlns:rdf="http://www.w3.org/1999/02/22-rdf-syntax-ns#">
   <cc:Work>
    <dc:type rdf:resource="http://purl.org/dc/dcmitype/StillImage"/>
    <dc:date>2020-12-28T19:00:49.153336</dc:date>
    <dc:format>image/svg+xml</dc:format>
    <dc:creator>
     <cc:Agent>
      <dc:title>Matplotlib v3.3.3, https://matplotlib.org/</dc:title>
     </cc:Agent>
    </dc:creator>
   </cc:Work>
  </rdf:RDF>
 </metadata>
 <defs>
  <style type="text/css">*{stroke-linecap:butt;stroke-linejoin:round;}</style>
 </defs>
 <g id="figure_1">
  <g id="patch_1">
   <path d="M 0 125.28 
L 1130.4 125.28 
L 1130.4 0 
L 0 0 
z
" style="fill:none;"/>
  </g>
  <g id="axes_1">
   <g id="line2d_1">
    <path clip-path="url(#p2bbb09124e)" d="M 7.2 58.974335 
L 8.688 60.410084 
L 11.664 63.979025 
L 13.152 65.608254 
L 14.64 66.818342 
L 15.384 67.209764 
L 16.128 67.438415 
L 16.872 67.49615 
L 17.616 67.380913 
L 18.36 67.096809 
L 19.104 66.653957 
L 20.592 65.360198 
L 22.08 63.682325 
L 25.056 60.142739 
L 26.544 58.780843 
L 27.288 58.294984 
L 28.032 57.963891 
L 28.776 57.799357 
L 29.52 57.807242 
L 30.264 57.987267 
L 31.008 58.333017 
L 31.752 58.832179 
L 33.24 60.214787 
L 35.472 62.855661 
L 37.704 65.429032 
L 39.192 66.700444 
L 39.936 67.129421 
L 40.68 67.398489 
L 41.424 67.498063 
L 42.168 67.424597 
L 42.912 67.180708 
L 43.656 66.775083 
L 45.144 65.541661 
L 46.632 63.898502 
L 49.608 60.336174 
L 51.096 58.920034 
L 51.84 58.399079 
L 52.584 58.029182 
L 53.328 57.823519 
L 54.072 57.789415 
L 54.816 57.928085 
L 55.56 58.234589 
L 56.304 58.69801 
L 57.792 60.024576 
L 60.024 62.633204 
L 62.256 65.24396 
L 63.744 66.57403 
L 64.488 67.039662 
L 65.232 67.348583 
L 65.976 67.489788 
L 66.72 67.458247 
L 67.464 67.255084 
L 68.208 66.887536 
L 69.696 65.717039 
L 71.184 64.11204 
L 74.904 59.749251 
L 76.392 58.512069 
L 77.136 58.104145 
L 77.88 57.857784 
L 78.624 57.781761 
L 79.368 57.878786 
L 80.112 58.1454 
L 80.856 58.572109 
L 82.344 59.83985 
L 83.832 61.502995 
L 86.808 65.053427 
L 88.296 66.439364 
L 89.04 66.940676 
L 89.784 67.288801 
L 90.528 67.47134 
L 91.272 67.48179 
L 92.016 67.31978 
L 92.76 66.99108 
L 93.504 66.507399 
L 94.992 65.148909 
L 97.224 62.521436 
L 99.456 59.931074 
L 100.944 58.633717 
L 101.688 58.18862 
L 102.432 57.902078 
L 103.176 57.784297 
L 103.92 57.839472 
L 104.664 58.065638 
L 105.408 58.454739 
L 106.896 59.660998 
L 108.384 61.287915 
L 112.104 65.630541 
L 113.592 66.83267 
L 114.336 67.219269 
L 115.08 67.442759 
L 115.824 67.495179 
L 116.568 67.374661 
L 117.312 67.085499 
L 118.056 66.637992 
L 119.544 65.336774 
L 121.032 63.65475 
L 124.008 60.118579 
L 125.496 58.763767 
L 126.24 58.282432 
L 126.984 57.95631 
L 127.728 57.797017 
L 128.472 57.810228 
L 129.216 57.99547 
L 129.96 58.346147 
L 130.704 58.849768 
L 132.192 60.239276 
L 134.424 62.883844 
L 136.656 65.452088 
L 138.144 66.715869 
L 138.888 67.140133 
L 139.632 67.404106 
L 140.376 67.498385 
L 141.12 67.419612 
L 141.864 67.170594 
L 142.608 66.7602 
L 144.096 65.518982 
L 145.584 63.871229 
L 148.56 60.311372 
L 150.048 58.901947 
L 150.792 58.385383 
L 151.536 58.020366 
L 152.28 57.819895 
L 153.024 57.791113 
L 153.768 57.935044 
L 154.512 58.246562 
L 155.256 58.71457 
L 156.744 60.048398 
L 158.976 62.66142 
L 161.208 65.267737 
L 162.696 66.590521 
L 163.44 67.051558 
L 164.184 67.35546 
L 164.928 67.4914 
L 165.672 67.454538 
L 166.416 67.246186 
L 167.16 66.873766 
L 168.648 65.695152 
L 170.136 64.085126 
L 173.856 59.726622 
L 175.344 58.497258 
L 176.088 58.09411 
L 176.832 57.852882 
L 177.576 57.782168 
L 178.32 57.884486 
L 179.064 58.156191 
L 179.808 58.587605 
L 181.296 59.862955 
L 182.784 61.530446 
L 185.76 65.077874 
L 187.248 66.456886 
L 187.992 66.953731 
L 188.736 67.296924 
L 189.48 67.474241 
L 190.224 67.479367 
L 190.968 67.312118 
L 191.712 66.978452 
L 192.456 66.490255 
L 193.944 65.124705 
L 196.176 62.493232 
L 198.408 59.907697 
L 199.896 58.617822 
L 200.64 58.177389 
L 201.384 57.89591 
L 202.128 57.783412 
L 202.872 57.843901 
L 203.616 58.075224 
L 204.36 58.46914 
L 205.848 59.683337 
L 207.336 61.315038 
L 211.056 65.652728 
L 212.544 66.846856 
L 213.288 67.228621 
L 214.032 67.446942 
L 214.776 67.494045 
L 215.52 67.36825 
L 216.264 67.07404 
L 217.008 66.621892 
L 218.496 65.313259 
L 219.984 63.62714 
L 222.96 60.094503 
L 224.448 58.746822 
L 225.192 58.270027 
L 225.936 57.948888 
L 226.68 57.794842 
L 227.424 57.813376 
L 228.168 58.003831 
L 228.912 58.359422 
L 230.4 59.50992 
L 231.888 61.10241 
L 235.608 65.475049 
L 237.096 66.731157 
L 237.84 67.150693 
L 238.584 67.409562 
L 239.328 67.498542 
L 240.072 67.414466 
L 240.816 67.160327 
L 241.56 66.745178 
L 243.048 65.496206 
L 244.536 63.843915 
L 247.512 60.286648 
L 249 58.883987 
L 249.744 58.371831 
L 250.488 58.011704 
L 251.232 57.816434 
L 251.976 57.792974 
L 252.72 57.942162 
L 253.464 58.258683 
L 254.208 58.731262 
L 255.696 60.072307 
L 257.928 62.689634 
L 260.16 65.291425 
L 261.648 66.606878 
L 262.392 67.063305 
L 263.136 67.362178 
L 263.88 67.49285 
L 264.624 67.450668 
L 265.368 67.237133 
L 266.112 66.859853 
L 267.6 65.673162 
L 269.088 64.058164 
L 272.808 59.704092 
L 274.296 58.482587 
L 275.04 58.084228 
L 275.784 57.848142 
L 276.528 57.782738 
L 277.272 57.890346 
L 278.016 58.167132 
L 278.76 58.603238 
L 280.248 59.886154 
L 281.736 61.557934 
L 284.712 65.102239 
L 286.2 66.474279 
L 286.944 66.96664 
L 287.688 67.304889 
L 288.432 67.476979 
L 289.176 67.47678 
L 289.92 67.304298 
L 290.664 66.965678 
L 291.408 66.472981 
L 292.896 65.100417 
L 295.128 62.465032 
L 297.36 59.884413 
L 298.848 58.602063 
L 299.592 58.166307 
L 300.336 57.889901 
L 301.08 57.78269 
L 301.824 57.848492 
L 302.568 58.084963 
L 303.312 58.483681 
L 304.8 59.705776 
L 306.288 61.342206 
L 309.264 64.907889 
L 310.752 66.333639 
L 311.496 66.8609 
L 312.24 67.237817 
L 312.984 67.450963 
L 313.728 67.492747 
L 314.472 67.36168 
L 315.216 67.062431 
L 315.96 66.605658 
L 317.448 65.289653 
L 318.936 63.599497 
L 321.912 60.070514 
L 323.4 58.730007 
L 324.144 58.25777 
L 324.888 57.941623 
L 325.632 57.792829 
L 326.376 57.816687 
L 327.12 58.012348 
L 327.864 58.372841 
L 329.352 59.531552 
L 330.84 61.129201 
L 334.56 65.497915 
L 336.048 66.746308 
L 336.792 67.161101 
L 337.536 67.414857 
L 338.28 67.498536 
L 339.024 67.409159 
L 339.768 67.149907 
L 340.512 66.730017 
L 342 65.473333 
L 343.488 63.816559 
L 346.464 60.262003 
L 347.952 58.866153 
L 348.696 58.358423 
L 349.44 58.003199 
L 350.184 57.813135 
L 350.928 57.794999 
L 351.672 57.949438 
L 352.416 58.270951 
L 353.16 58.748086 
L 354.648 60.096304 
L 356.88 62.717847 
L 359.112 65.315023 
L 360.6 66.623102 
L 361.344 67.074903 
L 362.088 67.368736 
L 362.832 67.494136 
L 363.576 67.446635 
L 364.32 67.227925 
L 365.064 66.845798 
L 366.552 65.651069 
L 368.04 64.031154 
L 371.76 59.68166 
L 373.248 58.468056 
L 373.992 58.0745 
L 374.736 57.843564 
L 375.48 57.783472 
L 376.224 57.896366 
L 376.968 58.178225 
L 377.712 58.619008 
L 379.2 59.909445 
L 380.688 61.585459 
L 383.664 65.126521 
L 385.152 66.491543 
L 385.896 66.979403 
L 386.64 67.312697 
L 387.384 67.479554 
L 388.128 67.474029 
L 388.872 67.296321 
L 389.616 66.952758 
L 390.36 66.455578 
L 391.848 65.076046 
L 394.08 62.436838 
L 396.312 59.861221 
L 397.8 58.58644 
L 398.544 58.155377 
L 399.288 57.884053 
L 400.032 57.782132 
L 400.776 57.853244 
L 401.52 58.094856 
L 402.264 58.498363 
L 403.752 59.728314 
L 405.24 61.369418 
L 408.216 64.932803 
L 409.704 66.351906 
L 410.448 66.874802 
L 411.192 67.246858 
L 411.936 67.454822 
L 412.68 67.491285 
L 413.424 67.35495 
L 414.168 67.050672 
L 414.912 66.58929 
L 416.4 65.265959 
L 418.632 62.659306 
L 420.864 60.046611 
L 422.352 58.713325 
L 423.096 58.24566 
L 423.84 57.934517 
L 424.584 57.79098 
L 425.328 57.820161 
L 426.072 58.021021 
L 426.816 58.386404 
L 428.304 59.553289 
L 429.792 61.156042 
L 433.512 65.520684 
L 435 66.761319 
L 435.744 67.171357 
L 436.488 67.419991 
L 437.232 67.498366 
L 437.976 67.40369 
L 438.72 67.139336 
L 439.464 66.714719 
L 440.952 65.450364 
L 442.44 63.789164 
L 445.416 60.237439 
L 446.904 58.848446 
L 447.648 58.345159 
L 448.392 57.99485 
L 449.136 57.809998 
L 449.88 57.797187 
L 450.624 57.956873 
L 451.368 58.283367 
L 452.112 58.765042 
L 453.6 60.120385 
L 455.832 62.746057 
L 458.064 65.338531 
L 459.552 66.639192 
L 460.296 67.086351 
L 461.04 67.375135 
L 461.784 67.495258 
L 462.528 67.44244 
L 463.272 67.218563 
L 464.016 66.831601 
L 465.504 65.628876 
L 466.992 64.004097 
L 470.712 59.659328 
L 472.2 58.453666 
L 472.944 58.064926 
L 473.688 57.839147 
L 474.432 57.78437 
L 475.176 57.902547 
L 475.92 58.189468 
L 476.664 58.634913 
L 478.152 59.932829 
L 479.64 61.613019 
L 482.616 65.150719 
L 484.104 66.508677 
L 484.848 66.99202 
L 485.592 67.320348 
L 486.336 67.481965 
L 487.08 67.471116 
L 487.824 67.288187 
L 488.568 66.939692 
L 489.312 66.438047 
L 490.8 65.051593 
L 493.032 62.408651 
L 495.264 59.838123 
L 496.752 58.570953 
L 497.496 58.144598 
L 498.24 57.878365 
L 498.984 57.781738 
L 499.728 57.858157 
L 500.472 58.104903 
L 501.216 58.513184 
L 502.704 59.75095 
L 504.192 61.396672 
L 507.168 64.95764 
L 508.656 66.370049 
L 509.4 66.888561 
L 510.144 67.255744 
L 510.888 67.458518 
L 511.632 67.48966 
L 512.376 67.348061 
L 513.12 67.038765 
L 513.864 66.572789 
L 515.352 65.242176 
L 517.584 62.631091 
L 519.816 60.022795 
L 521.304 58.696775 
L 522.048 58.233698 
L 522.792 57.92757 
L 523.536 57.789295 
L 524.28 57.823797 
L 525.024 58.029849 
L 525.768 58.400111 
L 527.256 59.57513 
L 528.744 61.182934 
L 532.464 65.543356 
L 533.952 66.776192 
L 534.696 67.18146 
L 535.44 67.424964 
L 536.184 67.498033 
L 536.928 67.398062 
L 537.672 67.128613 
L 538.416 66.699283 
L 539.904 65.427301 
L 541.392 63.76173 
L 544.368 60.212956 
L 545.856 58.830867 
L 546.6 58.33204 
L 547.344 57.986658 
L 548.088 57.807025 
L 548.832 57.799538 
L 549.576 57.964465 
L 550.32 58.29593 
L 551.064 58.782128 
L 552.552 60.144552 
L 554.784 62.774263 
L 557.016 65.361949 
L 558.504 66.655147 
L 559.248 67.09765 
L 559.992 67.381375 
L 560.736 67.496216 
L 561.48 67.438083 
L 562.224 67.209046 
L 562.968 66.817263 
L 564.456 65.606581 
L 565.944 63.976994 
L 569.664 59.637097 
L 571.152 58.439417 
L 571.896 58.055507 
L 572.64 57.834892 
L 573.384 57.785432 
L 574.128 57.908887 
L 574.872 58.200861 
L 575.616 58.650953 
L 577.104 59.956303 
L 578.592 61.640614 
L 581.568 65.174832 
L 583.056 66.525681 
L 583.8 67.004491 
L 584.544 67.327841 
L 585.288 67.484214 
L 586.032 67.46804 
L 586.776 67.279896 
L 587.52 66.926482 
L 588.264 66.420387 
L 589.752 65.027058 
L 591.984 62.380472 
L 594.216 59.81512 
L 595.704 58.555604 
L 596.448 58.13397 
L 597.192 57.872838 
L 597.936 57.781507 
L 598.68 57.863232 
L 599.424 58.115102 
L 600.168 58.528144 
L 601.656 59.773683 
L 603.144 61.423969 
L 606.12 64.982399 
L 607.608 66.388065 
L 608.352 66.902177 
L 609.096 67.264475 
L 609.84 67.462052 
L 610.584 67.487871 
L 611.328 67.341014 
L 612.072 67.02671 
L 612.816 66.556156 
L 614.304 65.218305 
L 616.536 62.602876 
L 618.768 59.999068 
L 620.256 58.680358 
L 621 58.221885 
L 621.744 57.920782 
L 622.488 57.787773 
L 623.232 57.827596 
L 623.976 58.038833 
L 624.72 58.41396 
L 626.208 59.597075 
L 627.696 61.209875 
L 631.416 65.56593 
L 632.904 66.790925 
L 633.648 67.191409 
L 634.392 67.429776 
L 635.136 67.497535 
L 635.88 67.392272 
L 636.624 67.117738 
L 637.368 66.68371 
L 638.856 65.404144 
L 640.344 63.734259 
L 643.32 60.188554 
L 644.808 58.813417 
L 645.552 58.319066 
L 646.296 57.978623 
L 647.04 57.804215 
L 647.784 57.802053 
L 648.528 57.972215 
L 649.272 58.30864 
L 650.016 58.799344 
L 651.504 60.168803 
L 653.736 62.802465 
L 655.968 65.385274 
L 657.456 66.670966 
L 658.2 67.108798 
L 658.944 67.387454 
L 659.688 67.49701 
L 660.432 67.433564 
L 661.176 67.199374 
L 661.92 66.802784 
L 663.408 65.584186 
L 664.896 63.949846 
L 667.872 60.383183 
L 669.36 58.954501 
L 670.104 58.42531 
L 670.848 58.046242 
L 671.592 57.8308 
L 672.336 57.786657 
L 673.08 57.915387 
L 673.824 58.212404 
L 674.568 58.667127 
L 676.056 59.979869 
L 677.544 61.668242 
L 680.52 65.19886 
L 682.008 66.542553 
L 682.752 67.016814 
L 683.496 67.335175 
L 684.24 67.486299 
L 684.984 67.464801 
L 685.728 67.271448 
L 686.472 66.913127 
L 687.96 65.758053 
L 689.448 64.162685 
L 693.168 59.792212 
L 694.656 58.540393 
L 695.4 58.123495 
L 696.144 57.867471 
L 696.888 57.781441 
L 697.632 57.868468 
L 698.376 58.125454 
L 699.12 58.543244 
L 700.608 59.796514 
L 702.096 61.451306 
L 705.072 65.007079 
L 706.56 66.405955 
L 707.304 66.91565 
L 708.048 67.273049 
L 708.792 67.465423 
L 709.536 67.485919 
L 710.28 67.333808 
L 711.024 67.014507 
L 711.768 66.53939 
L 713.256 65.194347 
L 715.488 62.574663 
L 717.72 59.975429 
L 719.208 58.664075 
L 719.952 58.210221 
L 720.696 57.914152 
L 721.44 57.786414 
L 722.184 57.831557 
L 722.928 58.047973 
L 723.672 58.427952 
L 725.16 59.619122 
L 726.648 61.236864 
L 730.368 65.588406 
L 731.856 66.805518 
L 732.6 67.201205 
L 733.344 67.434426 
L 734.088 67.496873 
L 734.832 67.386323 
L 735.576 67.106712 
L 736.32 66.668001 
L 737.808 65.380894 
L 739.296 63.70675 
L 742.272 60.164236 
L 743.76 58.796096 
L 744.504 58.306238 
L 745.248 57.970745 
L 745.992 57.801568 
L 746.736 57.804731 
L 747.48 57.980123 
L 748.224 58.321495 
L 748.968 58.816689 
L 750.456 60.193138 
L 752.688 62.830661 
L 754.92 65.408507 
L 756.408 66.68665 
L 757.152 67.119795 
L 757.896 67.393374 
L 758.64 67.497641 
L 759.384 67.428883 
L 760.128 67.189549 
L 760.872 66.788164 
L 762.36 65.561692 
L 763.848 63.922653 
L 766.824 60.358234 
L 768.312 58.936178 
L 769.056 58.411344 
L 769.8 58.037132 
L 770.544 57.826869 
L 771.288 57.788046 
L 772.032 57.922046 
L 772.776 58.224096 
L 773.52 58.683436 
L 775.008 60.003524 
L 777.24 62.608183 
L 779.472 65.222801 
L 780.96 66.559294 
L 781.704 67.028989 
L 782.448 67.342352 
L 783.192 67.48822 
L 783.936 67.461399 
L 784.68 67.262844 
L 785.424 66.899627 
L 786.912 65.736362 
L 788.4 64.135866 
L 792.12 59.7694 
L 793.608 58.52532 
L 794.352 58.113172 
L 795.096 57.862265 
L 795.84 57.781538 
L 796.584 57.873865 
L 797.328 58.135958 
L 798.072 58.558481 
L 799.56 59.81944 
L 801.048 61.478684 
L 804.024 65.031679 
L 805.512 66.423719 
L 806.256 66.928978 
L 807 67.281467 
L 807.744 67.468631 
L 808.488 67.483803 
L 809.232 67.326443 
L 809.976 67.002156 
L 810.72 66.522493 
L 812.208 65.170303 
L 814.44 62.546452 
L 816.672 59.951881 
L 818.16 58.647925 
L 818.904 58.198706 
L 819.648 57.907682 
L 820.392 57.78522 
L 821.136 57.83568 
L 821.88 58.057267 
L 822.624 58.442086 
L 824.112 59.641271 
L 825.6 61.2639 
L 829.32 65.610782 
L 830.808 66.819971 
L 831.552 67.210847 
L 832.296 67.438914 
L 833.04 67.496048 
L 833.784 67.380213 
L 834.528 67.095536 
L 835.272 66.652156 
L 836.76 65.357551 
L 838.248 63.679206 
L 841.224 60.14 
L 842.712 58.778904 
L 843.456 58.293556 
L 844.2 57.963025 
L 844.944 57.799084 
L 845.688 57.807572 
L 846.432 57.988187 
L 847.176 58.334496 
L 847.92 58.834164 
L 849.408 60.217555 
L 851.64 62.858851 
L 853.872 65.431646 
L 855.36 66.702197 
L 856.104 67.130641 
L 856.848 67.399133 
L 857.592 67.498108 
L 858.336 67.424041 
L 859.08 67.179571 
L 859.824 66.773405 
L 861.312 65.539099 
L 862.8 63.895418 
L 865.776 60.333363 
L 867.264 58.91798 
L 868.008 58.397522 
L 868.752 58.028177 
L 869.496 57.823101 
L 870.24 57.789599 
L 870.984 57.928864 
L 871.728 58.235937 
L 872.472 58.699878 
L 873.96 60.027268 
L 876.192 62.636398 
L 878.424 65.246656 
L 879.912 66.575903 
L 880.656 67.041016 
L 881.4 67.349369 
L 882.144 67.489978 
L 882.888 67.457835 
L 883.632 67.254085 
L 884.376 66.885984 
L 885.864 65.714567 
L 887.352 64.108996 
L 891.072 59.746685 
L 892.56 58.510386 
L 893.304 58.103001 
L 894.048 57.857221 
L 894.792 57.781799 
L 895.536 57.879423 
L 896.28 58.146614 
L 897.024 58.573856 
L 898.512 59.842461 
L 900 61.506101 
L 902.976 65.056198 
L 904.464 66.441354 
L 905.208 66.942161 
L 905.952 67.289729 
L 906.696 67.471677 
L 907.44 67.481524 
L 908.184 67.318921 
L 908.928 66.989658 
L 909.672 66.505465 
L 911.16 65.146174 
L 913.392 62.518243 
L 915.624 59.928423 
L 917.112 58.631911 
L 917.856 58.187341 
L 918.6 57.901372 
L 919.344 57.784189 
L 920.088 57.839966 
L 920.832 58.066715 
L 921.576 58.456362 
L 923.064 59.663521 
L 924.552 61.290983 
L 928.272 65.633058 
L 929.76 66.834282 
L 930.504 67.220336 
L 931.248 67.443241 
L 931.992 67.495059 
L 932.736 67.373944 
L 933.48 67.084209 
L 934.224 66.636176 
L 935.712 65.334117 
L 937.2 63.651626 
L 940.176 60.115849 
L 941.664 58.761842 
L 942.408 58.281021 
L 943.152 57.955462 
L 943.896 57.796763 
L 944.64 57.810576 
L 945.384 57.996409 
L 946.128 58.347643 
L 946.872 58.851767 
L 948.36 60.242053 
L 950.592 62.887034 
L 952.824 65.454692 
L 954.312 66.717607 
L 955.056 67.141336 
L 955.8 67.404731 
L 956.544 67.498411 
L 957.288 67.419038 
L 958.032 67.169439 
L 958.776 66.758506 
L 960.264 65.516409 
L 961.752 63.86814 
L 964.728 60.308569 
L 966.216 58.899908 
L 966.96 58.383842 
L 967.704 58.019377 
L 968.448 57.819495 
L 969.192 57.791315 
L 969.936 57.935842 
L 970.68 58.247926 
L 971.424 58.716453 
L 972.912 60.0511 
L 975.144 62.664613 
L 977.376 65.270422 
L 978.864 66.592379 
L 979.608 67.052895 
L 980.352 67.356228 
L 981.096 67.491573 
L 981.84 67.454108 
L 982.584 67.245169 
L 983.328 66.872198 
L 984.816 65.692668 
L 986.304 64.082077 
L 990.024 59.724067 
L 991.512 58.495591 
L 992.256 58.092984 
L 993 57.852338 
L 993.744 57.782224 
L 994.488 57.885141 
L 995.232 58.157421 
L 995.976 58.589368 
L 997.464 59.865576 
L 998.952 61.533556 
L 1001.928 65.080636 
L 1003.416 66.458861 
L 1004.16 66.955199 
L 1004.904 67.297833 
L 1005.648 67.474559 
L 1006.392 67.479082 
L 1007.136 67.311241 
L 1007.88 66.977014 
L 1008.624 66.488306 
L 1010.112 65.12196 
L 1012.344 62.490039 
L 1014.576 59.905057 
L 1016.064 58.616031 
L 1016.808 58.176127 
L 1017.552 57.895222 
L 1018.296 57.783322 
L 1019.04 57.844413 
L 1019.784 58.076318 
L 1020.528 58.470779 
L 1022.016 59.685872 
L 1023.504 61.318111 
L 1027.224 65.655233 
L 1028.712 66.848453 
L 1029.456 67.229669 
L 1030.2 67.447406 
L 1030.944 67.493906 
L 1031.688 67.367515 
L 1032.432 67.072733 
L 1033.176 66.620061 
L 1034.664 65.310591 
L 1036.152 63.624013 
L 1039.128 60.091784 
L 1040.616 58.744912 
L 1041.36 58.268632 
L 1042.104 57.948057 
L 1042.848 57.794606 
L 1043.592 57.813743 
L 1044.336 58.004787 
L 1045.08 58.360934 
L 1046.568 59.512363 
L 1048.056 61.10544 
L 1051.776 65.477642 
L 1053.264 66.732879 
L 1054.008 67.151879 
L 1054.752 67.410169 
L 1055.496 67.49855 
L 1056.24 67.413873 
L 1056.984 67.159155 
L 1057.728 66.743469 
L 1059.216 65.493621 
L 1060.704 63.84082 
L 1063.68 60.283854 
L 1065.168 58.881962 
L 1065.912 58.370306 
L 1066.656 58.010734 
L 1067.4 57.816052 
L 1068.144 57.793195 
L 1068.888 57.942977 
L 1069.632 58.260064 
L 1070.376 58.73316 
L 1071.864 60.075019 
L 1074.096 62.692827 
L 1076.328 65.2941 
L 1077.816 66.608722 
L 1078.56 67.064626 
L 1079.304 67.362928 
L 1080.048 67.493004 
L 1080.792 67.450219 
L 1081.536 67.236099 
L 1082.28 66.858269 
L 1083.768 65.670666 
L 1085.256 64.055109 
L 1088.976 59.701548 
L 1090.464 58.480935 
L 1091.208 58.083119 
L 1091.952 57.847616 
L 1092.696 57.782813 
L 1093.44 57.891019 
L 1094.184 58.16838 
L 1094.928 58.605016 
L 1096.416 59.888785 
L 1097.904 61.561048 
L 1100.88 65.104992 
L 1102.368 66.47624 
L 1103.112 66.968092 
L 1103.856 67.305781 
L 1104.6 67.477279 
L 1105.344 67.476476 
L 1106.088 67.303403 
L 1106.832 66.964223 
L 1107.576 66.471018 
L 1109.064 65.097662 
L 1111.296 62.46184 
L 1113.528 59.881783 
L 1115.016 58.600287 
L 1115.76 58.165063 
L 1116.504 57.889231 
L 1117.248 57.782618 
L 1117.992 57.849022 
L 1118.736 58.086075 
L 1119.48 58.485336 
L 1120.968 59.708322 
L 1122.456 61.345284 
L 1122.456 61.345284 
" style="fill:none;stroke:#ffffff;stroke-linecap:square;"/>
   </g>
  </g>
 </g>
 <defs>
  <clipPath id="p2bbb09124e">
   <rect height="110.88" width="1116" x="7.2" y="7.2"/>
  </clipPath>
 </defs>
</svg>
