<?xml version="1.0" encoding="utf-8" standalone="no"?>
<!DOCTYPE svg PUBLIC "-//W3C//DTD SVG 1.1//EN"
  "http://www.w3.org/Graphics/SVG/1.1/DTD/svg11.dtd">
<!-- Created with matplotlib (https://matplotlib.org/) -->
<svg height="125.28pt" version="1.1" viewBox="0 0 1130.4 125.28" width="1130.4pt" xmlns="http://www.w3.org/2000/svg" xmlns:xlink="http://www.w3.org/1999/xlink">
 <metadata>
  <rdf:RDF xmlns:cc="http://creativecommons.org/ns#" xmlns:dc="http://purl.org/dc/elements/1.1/" xmlns:rdf="http://www.w3.org/1999/02/22-rdf-syntax-ns#">
   <cc:Work>
    <dc:type rdf:resource="http://purl.org/dc/dcmitype/StillImage"/>
    <dc:date>2020-12-28T19:00:49.246676</dc:date>
    <dc:format>image/svg+xml</dc:format>
    <dc:creator>
     <cc:Agent>
      <dc:title>Matplotlib v3.3.3, https://matplotlib.org/</dc:title>
     </cc:Agent>
    </dc:creator>
   </cc:Work>
  </rdf:RDF>
 </metadata>
 <defs>
  <style type="text/css">*{stroke-linecap:butt;stroke-linejoin:round;}</style>
 </defs>
 <g id="figure_1">
  <g id="patch_1">
   <path d="M 0 125.28 
L 1130.4 125.28 
L 1130.4 0 
L 0 0 
z
" style="fill:none;"/>
  </g>
  <g id="axes_1">
   <g id="line2d_1">
    <path clip-path="url(#p19f05571ee)" d="M 7.2 63.849202 
L 8.688 63.775923 
L 10.92 63.377088 
L 13.896 62.522022 
L 16.872 61.73074 
L 18.36 61.501136 
L 19.848 61.43105 
L 21.336 61.530299 
L 23.568 61.960192 
L 30.264 63.716532 
L 31.752 63.843914 
L 33.24 63.802667 
L 35.472 63.443582 
L 38.448 62.608139 
L 41.424 61.789921 
L 43.656 61.461374 
L 45.144 61.443926 
L 46.632 61.594008 
L 48.864 62.081514 
L 54.816 63.674475 
L 56.304 63.8325 
L 57.792 63.823496 
L 59.28 63.648722 
L 61.512 63.134859 
L 66.72 61.695364 
L 68.208 61.483761 
L 69.696 61.43411 
L 71.184 61.553364 
L 73.416 62.006448 
L 80.112 63.740527 
L 81.6 63.847999 
L 83.088 63.78627 
L 85.32 63.401587 
L 88.296 62.55312 
L 91.272 61.751624 
L 93.504 61.450213 
L 94.992 61.453378 
L 96.48 61.62275 
L 98.712 62.130942 
L 103.92 63.574811 
L 105.408 63.791559 
L 106.896 63.847011 
L 108.384 63.733401 
L 110.616 63.286793 
L 117.312 61.546041 
L 118.8 61.432904 
L 120.288 61.488842 
L 122.52 61.866353 
L 125.496 62.711308 
L 128.472 63.517711 
L 130.704 63.826875 
L 132.192 63.82955 
L 133.68 63.665609 
L 135.912 63.163171 
L 141.12 61.71517 
L 142.608 61.493313 
L 144.096 61.432069 
L 145.584 61.540016 
L 147.816 61.980074 
L 154.512 63.72721 
L 156 63.845992 
L 157.488 63.795854 
L 159.72 63.425579 
L 162.696 62.584276 
L 165.672 61.7731 
L 167.904 61.456235 
L 169.392 61.447719 
L 170.88 61.606203 
L 173.112 62.102802 
L 179.064 63.686648 
L 180.552 63.836269 
L 182.04 63.818331 
L 183.528 63.635348 
L 185.76 63.112975 
L 190.968 61.680634 
L 192.456 61.476973 
L 193.944 61.436213 
L 195.432 61.564065 
L 197.664 62.026911 
L 203.616 63.640761 
L 205.104 63.820459 
L 206.592 63.834813 
L 208.08 63.681813 
L 210.312 63.191135 
L 216.264 61.601262 
L 217.752 61.446141 
L 219.24 61.458242 
L 220.728 61.635868 
L 222.96 62.152701 
L 228.168 63.589781 
L 229.656 63.798642 
L 231.144 63.845215 
L 232.632 63.722976 
L 234.864 63.26649 
L 241.56 61.536066 
L 243.048 61.431604 
L 244.536 61.496398 
L 246.768 61.884858 
L 249.744 62.73513 
L 252.72 63.533969 
L 254.952 63.83125 
L 256.44 63.824989 
L 257.928 63.65275 
L 260.16 63.141541 
L 265.368 61.699961 
L 266.856 61.485936 
L 268.344 61.433558 
L 269.832 61.550163 
L 272.064 62.000213 
L 278.76 63.737464 
L 280.248 63.8476 
L 281.736 63.788591 
L 283.968 63.40727 
L 286.944 62.560435 
L 289.92 61.756617 
L 292.152 61.451557 
L 293.64 61.451978 
L 295.128 61.618802 
L 297.36 62.1243 
L 302.568 63.57014 
L 304.056 63.789294 
L 305.544 63.847468 
L 307.032 63.736516 
L 309.264 63.292977 
L 315.96 61.54919 
L 317.448 61.433398 
L 318.936 61.486611 
L 321.168 61.86073 
L 324.144 62.703987 
L 327.12 63.512649 
L 329.352 63.825438 
L 330.84 63.830858 
L 332.328 63.669477 
L 334.56 63.169773 
L 339.768 61.719913 
L 341.256 61.495668 
L 342.744 61.431706 
L 344.232 61.536987 
L 346.464 61.973941 
L 353.16 63.723976 
L 354.648 63.845404 
L 356.136 63.797994 
L 358.368 63.43114 
L 361.344 62.591602 
L 364.32 61.77823 
L 366.552 61.457764 
L 368.04 61.446505 
L 369.528 61.602415 
L 371.76 62.096242 
L 377.712 63.682953 
L 379.2 63.835161 
L 380.688 63.819966 
L 382.176 63.639496 
L 384.408 63.119716 
L 389.616 61.685118 
L 391.104 61.479009 
L 392.592 61.435517 
L 394.08 61.560734 
L 396.312 62.020601 
L 402.264 63.636624 
L 403.752 63.818837 
L 405.24 63.835934 
L 406.728 63.685519 
L 408.96 63.197652 
L 414.912 61.605038 
L 416.4 61.447342 
L 417.888 61.456699 
L 419.376 61.631798 
L 421.608 62.145999 
L 426.816 63.585223 
L 428.304 63.796515 
L 429.792 63.845816 
L 431.28 63.726222 
L 433.512 63.272751 
L 440.208 61.539083 
L 441.696 61.431953 
L 443.184 61.49403 
L 445.416 61.879144 
L 448.392 62.727818 
L 451.368 63.529014 
L 453.6 63.829956 
L 455.088 63.826439 
L 456.576 63.656741 
L 458.808 63.148205 
L 464.016 61.704593 
L 465.504 61.488154 
L 466.992 61.433051 
L 468.48 61.547002 
L 470.712 61.994002 
L 477.408 63.73436 
L 478.896 63.847156 
L 480.384 63.790869 
L 482.616 63.412924 
L 485.592 62.567753 
L 488.568 61.761642 
L 490.8 61.452944 
L 492.288 61.450621 
L 493.776 61.61489 
L 496.008 62.117677 
L 501.216 63.565435 
L 502.704 63.786986 
L 504.192 63.847881 
L 505.68 63.739592 
L 507.912 63.299138 
L 514.608 61.552379 
L 516.096 61.433936 
L 517.584 61.484423 
L 519.816 61.855136 
L 522.792 62.696663 
L 525.768 63.507555 
L 528 63.823958 
L 529.488 63.832122 
L 530.976 63.673308 
L 533.208 63.176355 
L 539.16 61.592881 
L 540.648 61.443592 
L 542.136 61.461882 
L 543.624 61.645187 
L 545.856 62.16789 
L 551.064 63.599938 
L 552.552 63.803285 
L 554.04 63.843694 
L 555.528 63.715505 
L 557.76 63.252278 
L 563.712 61.638711 
L 565.2 61.459337 
L 566.688 61.445334 
L 568.176 61.598665 
L 570.408 62.089702 
L 576.36 63.67922 
L 577.848 63.83401 
L 579.336 63.821558 
L 580.824 63.643608 
L 583.056 63.126438 
L 588.264 61.689637 
L 589.752 61.481088 
L 591.24 61.434866 
L 592.728 61.557443 
L 594.96 62.014315 
L 601.656 63.744318 
L 603.144 63.848438 
L 604.632 63.783295 
L 606.864 63.394407 
L 609.84 62.543933 
L 612.816 61.745397 
L 615.048 61.448587 
L 616.536 61.4552 
L 618.024 61.627765 
L 620.256 62.139315 
L 625.464 63.580631 
L 626.952 63.794345 
L 628.44 63.846374 
L 629.928 63.729429 
L 632.16 63.278989 
L 638.856 61.542141 
L 640.344 61.432347 
L 641.832 61.491705 
L 644.064 61.873457 
L 647.04 62.720503 
L 650.016 63.524025 
L 652.248 63.828618 
L 653.736 63.827845 
L 655.224 63.660694 
L 657.456 63.154849 
L 662.664 61.709259 
L 664.152 61.490414 
L 665.64 61.432588 
L 667.128 61.543881 
L 669.36 61.987814 
L 676.056 63.731216 
L 677.544 63.846668 
L 679.032 63.793105 
L 681.264 63.418551 
L 684.24 62.575074 
L 687.216 61.7667 
L 689.448 61.454375 
L 690.936 61.449307 
L 692.424 61.611017 
L 694.656 62.111073 
L 699.864 63.560697 
L 701.352 63.784636 
L 702.84 63.84825 
L 704.328 63.742627 
L 706.56 63.305274 
L 713.256 61.555607 
L 714.744 61.434518 
L 716.232 61.482278 
L 718.464 61.849571 
L 721.44 62.689338 
L 724.416 63.50243 
L 726.648 63.822434 
L 728.136 63.833342 
L 729.624 63.677101 
L 731.856 63.182918 
L 737.808 61.596571 
L 739.296 61.444694 
L 740.784 61.460241 
L 742.272 61.641034 
L 744.504 62.161148 
L 749.712 63.595459 
L 751.2 63.801254 
L 752.688 63.844396 
L 754.176 63.718841 
L 756.408 63.258591 
L 762.36 61.642844 
L 763.848 61.460953 
L 765.336 61.444208 
L 766.824 61.594954 
L 769.056 62.083183 
L 775.008 63.675448 
L 776.496 63.832814 
L 777.984 63.823106 
L 779.472 63.647683 
L 781.704 63.133143 
L 786.912 61.69419 
L 788.4 61.48321 
L 789.888 61.434258 
L 791.376 61.554192 
L 793.608 62.008051 
L 800.304 63.741306 
L 801.792 63.848094 
L 803.28 63.785668 
L 805.512 63.400125 
L 808.488 62.551244 
L 811.464 61.750349 
L 813.696 61.449876 
L 815.184 61.453745 
L 816.672 61.623769 
L 818.904 62.132649 
L 824.112 63.576003 
L 825.6 63.792133 
L 827.088 63.846887 
L 828.576 63.732595 
L 830.808 63.285203 
L 837.504 61.54524 
L 838.992 61.432785 
L 840.48 61.489421 
L 842.712 61.867799 
L 845.688 62.713185 
L 848.664 63.519004 
L 850.896 63.827236 
L 852.384 63.829208 
L 853.872 63.66461 
L 856.104 63.161475 
L 861.312 61.713959 
L 862.8 61.492716 
L 864.288 61.432169 
L 865.776 61.5408 
L 868.008 61.981651 
L 874.704 63.728033 
L 876.192 63.846136 
L 877.68 63.795298 
L 879.912 63.424148 
L 882.888 62.582397 
L 885.864 61.77179 
L 888.096 61.45585 
L 889.584 61.448038 
L 891.072 61.607181 
L 893.304 62.104488 
L 898.512 63.555924 
L 900 63.782245 
L 901.488 63.848574 
L 902.976 63.745622 
L 905.208 63.311386 
L 911.904 61.558876 
L 913.392 61.435145 
L 914.88 61.480175 
L 917.112 61.844035 
L 920.088 62.68201 
L 923.064 63.497272 
L 925.296 63.820867 
L 926.784 63.834518 
L 928.272 63.680856 
L 930.504 63.18946 
L 936.456 61.600299 
L 937.944 61.44584 
L 939.432 61.458644 
L 940.92 61.636917 
L 943.152 62.154423 
L 948.36 63.590945 
L 949.848 63.799181 
L 951.336 63.845053 
L 952.824 63.722137 
L 955.056 63.264881 
L 961.752 61.535298 
L 963.24 61.431521 
L 964.728 61.497012 
L 966.96 61.886328 
L 969.936 62.737004 
L 972.912 63.535235 
L 975.144 63.831575 
L 976.632 63.82461 
L 978.12 63.65172 
L 980.352 63.139829 
L 985.56 61.698779 
L 987.048 61.485374 
L 988.536 61.433695 
L 990.024 61.55098 
L 992.256 62.00181 
L 998.952 63.738253 
L 1000.44 63.847706 
L 1001.928 63.788 
L 1004.16 63.405815 
L 1007.136 62.558559 
L 1010.112 61.755334 
L 1012.344 61.451208 
L 1013.832 61.452333 
L 1015.32 61.619811 
L 1017.552 62.126002 
L 1022.76 63.571341 
L 1024.248 63.789879 
L 1025.736 63.847355 
L 1027.224 63.735721 
L 1029.456 63.291393 
L 1036.152 61.548378 
L 1037.64 61.433267 
L 1039.128 61.487179 
L 1041.36 61.862169 
L 1044.336 62.705865 
L 1047.312 63.51395 
L 1049.544 63.825811 
L 1051.032 63.830527 
L 1052.52 63.668489 
L 1054.752 63.168082 
L 1059.96 61.718694 
L 1061.448 61.49506 
L 1062.936 61.431795 
L 1064.424 61.53776 
L 1066.656 61.975512 
L 1073.352 63.724809 
L 1074.84 63.845559 
L 1076.328 63.79745 
L 1078.56 63.429717 
L 1081.536 62.589723 
L 1084.512 61.776911 
L 1086.744 61.457368 
L 1088.232 61.446812 
L 1089.72 61.603383 
L 1091.952 62.097923 
L 1097.904 63.683904 
L 1099.392 63.835449 
L 1100.88 63.819551 
L 1102.368 63.638436 
L 1104.6 63.117989 
L 1109.808 61.683965 
L 1111.296 61.478483 
L 1112.784 61.435692 
L 1114.272 61.561585 
L 1116.504 62.022218 
L 1122.456 63.637688 
L 1122.456 63.637688 
" style="fill:none;stroke:#ffffff;stroke-linecap:square;"/>
   </g>
  </g>
 </g>
 <defs>
  <clipPath id="p19f05571ee">
   <rect height="110.88" width="1116" x="7.2" y="7.2"/>
  </clipPath>
 </defs>
</svg>
