<?xml version="1.0" encoding="utf-8" standalone="no"?>
<!DOCTYPE svg PUBLIC "-//W3C//DTD SVG 1.1//EN"
  "http://www.w3.org/Graphics/SVG/1.1/DTD/svg11.dtd">
<!-- Created with matplotlib (https://matplotlib.org/) -->
<svg height="125.28pt" version="1.1" viewBox="0 0 1130.4 125.28" width="1130.4pt" xmlns="http://www.w3.org/2000/svg" xmlns:xlink="http://www.w3.org/1999/xlink">
 <metadata>
  <rdf:RDF xmlns:cc="http://creativecommons.org/ns#" xmlns:dc="http://purl.org/dc/elements/1.1/" xmlns:rdf="http://www.w3.org/1999/02/22-rdf-syntax-ns#">
   <cc:Work>
    <dc:type rdf:resource="http://purl.org/dc/dcmitype/StillImage"/>
    <dc:date>2020-12-28T19:00:49.184561</dc:date>
    <dc:format>image/svg+xml</dc:format>
    <dc:creator>
     <cc:Agent>
      <dc:title>Matplotlib v3.3.3, https://matplotlib.org/</dc:title>
     </cc:Agent>
    </dc:creator>
   </cc:Work>
  </rdf:RDF>
 </metadata>
 <defs>
  <style type="text/css">*{stroke-linecap:butt;stroke-linejoin:round;}</style>
 </defs>
 <g id="figure_1">
  <g id="patch_1">
   <path d="M 0 125.28 
L 1130.4 125.28 
L 1130.4 0 
L 0 0 
z
" style="fill:none;"/>
  </g>
  <g id="axes_1">
   <g id="line2d_1">
    <path clip-path="url(#p1d1b37ef79)" d="M 7.2 66.805542 
L 9.432 66.41403 
L 11.664 65.763328 
L 13.896 64.898122 
L 16.872 63.515169 
L 23.568 60.289817 
L 25.8 59.443084 
L 28.032 58.815909 
L 30.264 58.451363 
L 32.496 58.374482 
L 34.728 58.590548 
L 36.96 59.084721 
L 39.192 59.823062 
L 42.168 61.097697 
L 51.84 65.614284 
L 54.072 66.309545 
L 56.304 66.75279 
L 58.536 66.913578 
L 60.768 66.780867 
L 63 66.363771 
L 65.232 65.690935 
L 67.464 64.808568 
L 71.184 63.041694 
L 76.392 60.519637 
L 78.624 59.62835 
L 80.856 58.943896 
L 83.088 58.513281 
L 85.32 58.36608 
L 87.552 58.512402 
L 89.784 58.942198 
L 92.016 59.62595 
L 94.992 60.849377 
L 99.456 63.038326 
L 103.176 64.805652 
L 105.408 65.688565 
L 107.64 66.36211 
L 109.872 66.780029 
L 112.104 66.91362 
L 114.336 66.753709 
L 116.568 66.311278 
L 118.8 65.616712 
L 121.776 64.38296 
L 126.24 62.189587 
L 129.96 60.429383 
L 132.192 59.554977 
L 134.424 58.892443 
L 136.656 58.487283 
L 138.888 58.367321 
L 141.12 58.540797 
L 143.352 58.995797 
L 145.584 59.701072 
L 148.56 60.944964 
L 153.768 63.511858 
L 157.488 65.204246 
L 159.72 66.004522 
L 161.952 66.573729 
L 164.184 66.872778 
L 166.416 66.881128 
L 168.648 66.598209 
L 170.88 66.043448 
L 173.112 65.254947 
L 176.088 63.935472 
L 184.272 60.034069 
L 186.504 59.243452 
L 188.736 58.686101 
L 190.968 58.400294 
L 193.2 58.405661 
L 195.432 58.701833 
L 197.664 59.268468 
L 199.896 60.066653 
L 202.872 61.394507 
L 211.056 65.287224 
L 213.288 66.068066 
L 215.52 66.613476 
L 217.752 66.885998 
L 219.984 66.866914 
L 222.216 66.557535 
L 224.448 65.979109 
L 226.68 65.171361 
L 229.656 63.835327 
L 237.84 59.95188 
L 240.072 59.180931 
L 242.304 58.647543 
L 244.536 58.388347 
L 246.768 58.421145 
L 249 58.743684 
L 251.232 59.333814 
L 253.464 60.151004 
L 256.44 61.495018 
L 263.88 65.070332 
L 266.112 65.900263 
L 268.344 66.506286 
L 270.576 66.846783 
L 272.808 66.898367 
L 275.04 66.657496 
L 277.272 66.140713 
L 279.504 65.38351 
L 282.48 64.091744 
L 291.408 59.871304 
L 293.64 59.120486 
L 295.872 58.61138 
L 298.104 58.378951 
L 300.336 58.439161 
L 302.568 58.787874 
L 304.8 59.401143 
L 307.032 60.236848 
L 310.008 61.596216 
L 317.448 65.155711 
L 319.68 65.966971 
L 321.912 66.549743 
L 324.144 66.864002 
L 326.376 66.888167 
L 328.608 66.620577 
L 330.84 66.079611 
L 333.072 65.30242 
L 336.048 63.992852 
L 344.976 59.792388 
L 347.208 59.062152 
L 349.44 58.577635 
L 351.672 58.372111 
L 353.904 58.459696 
L 356.136 58.834375 
L 358.368 59.470415 
L 360.6 60.324135 
L 363.576 61.69804 
L 370.272 64.932793 
L 372.504 65.791143 
L 374.736 66.433079 
L 376.968 66.814515 
L 379.2 66.909256 
L 381.432 66.710794 
L 383.664 66.232759 
L 385.896 65.507982 
L 388.872 64.245852 
L 398.544 59.715181 
L 400.776 59.005966 
L 403.008 58.546327 
L 405.24 58.367832 
L 407.472 58.48274 
L 409.704 58.883159 
L 411.936 59.541589 
L 414.168 60.41281 
L 417.888 62.170308 
L 423.096 64.700746 
L 426.072 65.860917 
L 428.304 66.48018 
L 430.536 66.835709 
L 432.768 66.903086 
L 435 66.677684 
L 437.232 66.174984 
L 439.464 65.429509 
L 442.44 64.148359 
L 452.112 59.639729 
L 454.344 58.951959 
L 456.576 58.517475 
L 458.808 58.366117 
L 461.04 58.508278 
L 463.272 58.934197 
L 465.504 59.614622 
L 468.48 60.834854 
L 472.944 63.022385 
L 476.664 64.791836 
L 478.896 65.677324 
L 481.128 66.354216 
L 483.36 66.776024 
L 485.592 66.91378 
L 487.824 66.758022 
L 490.056 66.319448 
L 492.288 65.628178 
L 495.264 64.397565 
L 499.728 62.205509 
L 503.448 60.443099 
L 505.68 59.566078 
L 507.912 58.900166 
L 510.144 58.491097 
L 512.376 58.366965 
L 514.608 58.536296 
L 516.84 58.987459 
L 519.072 59.68947 
L 522.048 60.930281 
L 527.256 63.49618 
L 530.976 65.191421 
L 533.208 65.994626 
L 535.44 66.567443 
L 537.672 66.870532 
L 539.904 66.883078 
L 542.136 66.604219 
L 544.368 66.053107 
L 546.6 65.267591 
L 549.576 63.950718 
L 557.76 60.046776 
L 559.992 59.253192 
L 562.224 58.692206 
L 564.456 58.402346 
L 566.688 58.403517 
L 568.92 58.695641 
L 571.152 59.258654 
L 573.384 60.05389 
L 576.36 61.379202 
L 584.544 65.274637 
L 586.776 66.058482 
L 589.008 66.607552 
L 591.24 66.884141 
L 593.472 66.869252 
L 595.704 66.563907 
L 597.936 65.989078 
L 600.168 65.184242 
L 603.144 63.850688 
L 611.328 59.964344 
L 613.56 59.190357 
L 615.792 58.653284 
L 618.024 58.390009 
L 620.256 58.418613 
L 622.488 58.737133 
L 624.72 59.323692 
L 626.952 60.138008 
L 629.928 61.479603 
L 637.368 65.057146 
L 639.6 65.889889 
L 641.832 66.499436 
L 644.064 66.843927 
L 646.296 66.899701 
L 648.528 66.66293 
L 650.76 66.149872 
L 652.992 65.395765 
L 655.968 64.10679 
L 664.896 59.883518 
L 667.128 59.129593 
L 669.36 58.616754 
L 671.592 58.380222 
L 673.824 58.436242 
L 676.056 58.780967 
L 678.288 59.39072 
L 680.52 60.223627 
L 683.496 61.5807 
L 690.936 65.142752 
L 693.168 65.956899 
L 695.4 66.543249 
L 697.632 66.861533 
L 699.864 66.889892 
L 702.096 66.626378 
L 704.328 66.089089 
L 706.56 65.314924 
L 709.536 64.008027 
L 718.464 59.804346 
L 720.696 59.070934 
L 722.928 58.582638 
L 725.16 58.372991 
L 727.392 58.456393 
L 729.624 58.827116 
L 731.856 59.459698 
L 734.088 60.310696 
L 737.064 61.682432 
L 743.76 64.919267 
L 745.992 65.780306 
L 748.224 66.425675 
L 750.456 66.811054 
L 752.688 66.909974 
L 754.92 66.715642 
L 757.152 66.241404 
L 759.384 65.519831 
L 762.36 64.260676 
L 772.032 59.726875 
L 774.264 59.014417 
L 776.496 58.550956 
L 778.728 58.368321 
L 780.96 58.479055 
L 783.192 58.875553 
L 785.424 59.530584 
L 787.656 60.399163 
L 791.376 62.1544 
L 796.584 64.686707 
L 799.56 65.850372 
L 801.792 66.473126 
L 804.024 66.832631 
L 806.256 66.904195 
L 808.488 66.682905 
L 810.72 66.183957 
L 812.952 65.441618 
L 815.928 64.163327 
L 825.6 59.651151 
L 827.832 58.960075 
L 830.064 58.521727 
L 832.296 58.366213 
L 834.528 58.504212 
L 836.76 58.926248 
L 838.992 59.603336 
L 841.968 60.820356 
L 846.432 63.006438 
L 850.152 64.77799 
L 852.384 65.666041 
L 854.616 66.34627 
L 856.848 66.771961 
L 859.08 66.913879 
L 861.312 66.762277 
L 863.544 66.327567 
L 865.776 65.639602 
L 868.752 64.412144 
L 873.216 62.221438 
L 876.936 60.456846 
L 879.168 59.577221 
L 881.4 58.907941 
L 883.632 58.49497 
L 885.864 58.366669 
L 888.096 58.531852 
L 890.328 58.979172 
L 892.56 59.677909 
L 895.536 60.915621 
L 900 63.110624 
L 903.72 64.86799 
L 905.952 65.739057 
L 908.184 66.397288 
L 910.416 66.797477 
L 912.648 66.912141 
L 914.88 66.733403 
L 917.112 66.273541 
L 919.344 65.564135 
L 922.32 64.316355 
L 927.528 61.748251 
L 931.248 60.059519 
L 933.48 59.26298 
L 935.712 58.698367 
L 937.944 58.404456 
L 940.176 58.401433 
L 942.408 58.689504 
L 944.64 59.248887 
L 946.872 60.041163 
L 949.848 61.363915 
L 958.032 65.262014 
L 960.264 66.048849 
L 962.496 66.601573 
L 964.728 66.882225 
L 966.96 66.871531 
L 969.192 66.570225 
L 971.424 65.999 
L 973.656 65.197087 
L 976.632 63.866032 
L 984.816 59.976846 
L 987.048 59.199832 
L 989.28 58.659081 
L 991.512 58.39173 
L 993.744 58.416141 
L 995.976 58.730636 
L 998.208 59.313617 
L 1000.44 60.125047 
L 1003.416 61.464204 
L 1010.856 65.043927 
L 1013.088 65.879469 
L 1015.32 66.492532 
L 1017.552 66.841012 
L 1019.784 66.900976 
L 1022.016 66.668306 
L 1024.248 66.158982 
L 1026.48 65.407982 
L 1029.456 64.121816 
L 1038.384 59.895771 
L 1040.616 59.138749 
L 1042.848 58.622184 
L 1045.08 58.381553 
L 1047.312 58.433383 
L 1049.544 58.774113 
L 1051.776 59.380344 
L 1054.008 60.21044 
L 1056.984 61.565198 
L 1064.424 65.129758 
L 1066.656 65.946781 
L 1068.888 66.536701 
L 1071.12 66.859005 
L 1073.352 66.891557 
L 1075.584 66.632122 
L 1077.816 66.098518 
L 1080.048 65.327391 
L 1083.024 64.023184 
L 1091.952 59.816343 
L 1094.184 59.079766 
L 1096.416 58.587697 
L 1098.648 58.373931 
L 1100.88 58.453149 
L 1103.112 58.81991 
L 1105.344 59.449026 
L 1107.576 60.297291 
L 1110.552 61.666837 
L 1117.248 64.905709 
L 1119.48 65.769425 
L 1121.712 66.418219 
L 1122.456 66.578532 
L 1122.456 66.578532 
" style="fill:none;stroke:#ffffff;stroke-linecap:square;"/>
   </g>
  </g>
 </g>
 <defs>
  <clipPath id="p1d1b37ef79">
   <rect height="110.88" width="1116" x="7.2" y="7.2"/>
  </clipPath>
 </defs>
</svg>
