<?xml version="1.0" encoding="utf-8" standalone="no"?>
<!DOCTYPE svg PUBLIC "-//W3C//DTD SVG 1.1//EN"
  "http://www.w3.org/Graphics/SVG/1.1/DTD/svg11.dtd">
<!-- Created with matplotlib (https://matplotlib.org/) -->
<svg height="125.28pt" version="1.1" viewBox="0 0 1130.4 125.28" width="1130.4pt" xmlns="http://www.w3.org/2000/svg" xmlns:xlink="http://www.w3.org/1999/xlink">
 <metadata>
  <rdf:RDF xmlns:cc="http://creativecommons.org/ns#" xmlns:dc="http://purl.org/dc/elements/1.1/" xmlns:rdf="http://www.w3.org/1999/02/22-rdf-syntax-ns#">
   <cc:Work>
    <dc:type rdf:resource="http://purl.org/dc/dcmitype/StillImage"/>
    <dc:date>2020-12-28T19:00:49.028038</dc:date>
    <dc:format>image/svg+xml</dc:format>
    <dc:creator>
     <cc:Agent>
      <dc:title>Matplotlib v3.3.3, https://matplotlib.org/</dc:title>
     </cc:Agent>
    </dc:creator>
   </cc:Work>
  </rdf:RDF>
 </metadata>
 <defs>
  <style type="text/css">*{stroke-linecap:butt;stroke-linejoin:round;}</style>
 </defs>
 <g id="figure_1">
  <g id="patch_1">
   <path d="M 0 125.28 
L 1130.4 125.28 
L 1130.4 0 
L 0 0 
z
" style="fill:none;"/>
  </g>
  <g id="axes_1">
   <g id="line2d_1">
    <path clip-path="url(#p5b19e64cf8)" d="M 7.2 35.013558 
L 7.944 38.41453 
L 8.688 42.61672 
L 10.176 52.846932 
L 13.896 80.741506 
L 14.64 85.233206 
L 15.384 88.977671 
L 16.128 91.851061 
L 16.872 93.758341 
L 17.616 94.636432 
L 18.36 94.456291 
L 19.104 93.223878 
L 19.848 90.979952 
L 20.592 87.798727 
L 21.336 83.785417 
L 22.824 73.816609 
L 26.544 45.765386 
L 27.288 41.108693 
L 28.032 37.164113 
L 28.776 34.062108 
L 29.52 31.905271 
L 30.264 30.764936 
L 31.008 30.678818 
L 31.752 31.649765 
L 32.496 33.645665 
L 33.24 36.600505 
L 33.984 40.416561 
L 35.472 50.103167 
L 39.936 83.064488 
L 40.68 87.200951 
L 41.424 90.525101 
L 42.168 92.926995 
L 42.912 94.327195 
L 43.656 94.679391 
L 44.4 93.971936 
L 45.144 92.228228 
L 45.888 89.505935 
L 46.632 85.895095 
L 48.12 76.5109 
L 50.352 59.477578 
L 51.84 48.322153 
L 53.328 39.045226 
L 54.072 35.505868 
L 54.816 32.863928 
L 55.56 31.206784 
L 56.304 30.589243 
L 57.048 31.031731 
L 57.792 32.519611 
L 58.536 35.003675 
L 59.28 38.401766 
L 60.024 42.601498 
L 61.512 52.828368 
L 65.232 80.725411 
L 65.976 85.21937 
L 66.72 88.966553 
L 67.464 91.843027 
L 68.208 93.753658 
L 68.952 94.635254 
L 69.696 94.458658 
L 70.44 93.22971 
L 71.184 90.989057 
L 71.928 87.810804 
L 72.672 83.800067 
L 74.16 73.834881 
L 77.88 45.781966 
L 78.624 41.123141 
L 79.368 37.175951 
L 80.112 34.070945 
L 80.856 31.910814 
L 81.6 30.767002 
L 82.344 30.677338 
L 83.088 31.644788 
L 83.832 33.637356 
L 84.576 36.58914 
L 85.32 40.402514 
L 86.808 50.085225 
L 91.272 83.049457 
L 92.016 87.188418 
L 92.76 90.51548 
L 93.504 92.920604 
L 94.248 94.324246 
L 94.992 94.679982 
L 95.736 93.976047 
L 96.48 92.235722 
L 97.224 89.516566 
L 97.968 85.90851 
L 99.456 76.528475 
L 101.688 59.496981 
L 103.176 48.3396 
L 104.664 39.058428 
L 105.408 35.516253 
L 106.152 32.871153 
L 106.896 31.21061 
L 107.64 30.589543 
L 108.384 31.028495 
L 109.128 32.512946 
L 109.872 34.993802 
L 110.616 38.389011 
L 111.36 42.586283 
L 112.848 52.809808 
L 116.568 80.70931 
L 117.312 85.205527 
L 118.056 88.955425 
L 118.8 91.834983 
L 119.544 93.748963 
L 120.288 94.634064 
L 121.032 94.461012 
L 121.776 93.235531 
L 122.52 90.998152 
L 123.264 87.822872 
L 124.008 83.814709 
L 125.496 73.85315 
L 129.216 45.798553 
L 129.96 41.137597 
L 130.704 37.187799 
L 131.448 34.079792 
L 132.192 31.916368 
L 132.936 30.769079 
L 133.68 30.67587 
L 134.424 31.639823 
L 135.168 33.629058 
L 135.912 36.577784 
L 136.656 40.388475 
L 138.144 50.067287 
L 142.608 83.034418 
L 143.352 87.175876 
L 144.096 90.505848 
L 144.84 92.914202 
L 145.584 94.321286 
L 146.328 94.680561 
L 147.072 93.980146 
L 147.816 92.243205 
L 148.56 89.527186 
L 149.304 85.921916 
L 150.792 76.546045 
L 153.024 59.516386 
L 154.512 48.357053 
L 156 39.071639 
L 156.744 35.526649 
L 157.488 32.878389 
L 158.232 31.214447 
L 158.976 30.589855 
L 159.72 31.025271 
L 160.464 32.506293 
L 161.208 34.983939 
L 161.952 38.376265 
L 162.696 42.571076 
L 164.184 52.791251 
L 167.904 80.693201 
L 168.648 85.191675 
L 169.392 88.944287 
L 170.136 91.826927 
L 170.88 93.744256 
L 171.624 94.632862 
L 172.368 94.463355 
L 173.112 93.241341 
L 173.856 91.007236 
L 174.6 87.834931 
L 175.344 83.829343 
L 176.832 73.871413 
L 180.552 45.815146 
L 181.296 41.152061 
L 182.04 37.199656 
L 182.784 34.08865 
L 183.528 31.921933 
L 184.272 30.771168 
L 185.016 30.674413 
L 185.76 31.63487 
L 186.504 33.620771 
L 187.248 36.566437 
L 187.992 40.374445 
L 189.48 50.049354 
L 193.944 83.019372 
L 194.688 87.163324 
L 195.432 90.496207 
L 196.176 92.907789 
L 196.92 94.318313 
L 197.664 94.681128 
L 198.408 93.984233 
L 199.152 92.250678 
L 199.896 89.537797 
L 200.64 85.935314 
L 202.128 76.56361 
L 204.36 59.535792 
L 205.848 48.374511 
L 207.336 39.084859 
L 208.08 35.537054 
L 208.824 32.885636 
L 209.568 31.218296 
L 210.312 30.590179 
L 211.056 31.022058 
L 211.8 32.49965 
L 212.544 34.974086 
L 213.288 38.363529 
L 214.032 42.555876 
L 215.52 52.772698 
L 219.24 80.677087 
L 219.984 85.177814 
L 220.728 88.933139 
L 221.472 91.818861 
L 222.216 93.739539 
L 222.96 94.631649 
L 223.704 94.465686 
L 224.448 93.247139 
L 225.192 91.01631 
L 225.936 87.84698 
L 226.68 83.84397 
L 228.168 73.889673 
L 231.888 45.831745 
L 232.632 41.166534 
L 233.376 37.211523 
L 234.12 34.097518 
L 234.864 31.92751 
L 235.608 30.773269 
L 236.352 30.672969 
L 237.096 31.629928 
L 237.84 33.612495 
L 238.584 36.5551 
L 239.328 40.360422 
L 240.816 50.031425 
L 245.28 83.004318 
L 246.024 87.150764 
L 246.768 90.486555 
L 247.512 92.901365 
L 248.256 94.31533 
L 249 94.681683 
L 249.744 93.988309 
L 250.488 92.258139 
L 251.232 89.548397 
L 251.976 85.948703 
L 253.464 76.58117 
L 255.696 59.555199 
L 257.184 48.391974 
L 258.672 39.098088 
L 259.416 35.54747 
L 260.16 32.892894 
L 260.904 31.222157 
L 261.648 30.590514 
L 262.392 31.018857 
L 263.136 32.493019 
L 263.88 34.964244 
L 264.624 38.350801 
L 265.368 42.540684 
L 266.856 52.754149 
L 270.576 80.660965 
L 271.32 85.163945 
L 272.064 88.921982 
L 272.808 91.810784 
L 273.552 93.734809 
L 274.296 94.630423 
L 275.04 94.468005 
L 275.784 93.252926 
L 276.528 91.025374 
L 277.272 87.85902 
L 278.016 83.858588 
L 279.504 73.907929 
L 283.224 45.848351 
L 283.968 41.181014 
L 284.712 37.223398 
L 285.456 34.106397 
L 286.2 31.933098 
L 286.944 30.775382 
L 287.688 30.671536 
L 288.432 31.624997 
L 289.176 33.604229 
L 289.92 36.543773 
L 290.664 40.346408 
L 292.152 50.013502 
L 296.616 82.989257 
L 297.36 87.138194 
L 298.104 90.476892 
L 298.848 92.89493 
L 299.592 94.312334 
L 300.336 94.682226 
L 301.08 93.992373 
L 301.824 92.26559 
L 302.568 89.558988 
L 303.312 85.962083 
L 304.8 76.598725 
L 307.032 59.574607 
L 308.52 48.409443 
L 310.008 39.111325 
L 310.752 35.557895 
L 311.496 32.900163 
L 312.24 31.226029 
L 312.984 30.590862 
L 313.728 31.015668 
L 314.472 32.486399 
L 315.216 34.954412 
L 315.96 38.338082 
L 316.704 42.525499 
L 318.192 52.735603 
L 321.912 80.644837 
L 322.656 85.150068 
L 323.4 88.910815 
L 324.144 91.802697 
L 324.888 93.730068 
L 325.632 94.629186 
L 326.376 94.470312 
L 327.12 93.258702 
L 327.864 91.034427 
L 328.608 87.871051 
L 329.352 83.873199 
L 330.84 73.92618 
L 334.56 45.864962 
L 335.304 41.195502 
L 336.048 37.235284 
L 336.792 34.115286 
L 337.536 31.938698 
L 338.28 30.777506 
L 339.024 30.670115 
L 339.768 31.620078 
L 340.512 33.595974 
L 341.256 36.532456 
L 342 40.332403 
L 343.488 49.995582 
L 347.952 82.974188 
L 348.696 87.125615 
L 349.44 90.46722 
L 350.184 92.888483 
L 350.928 94.309327 
L 351.672 94.682758 
L 352.416 93.996425 
L 353.16 92.27303 
L 353.904 89.569569 
L 354.648 85.975455 
L 356.136 76.616274 
L 358.368 59.594016 
L 359.856 48.426917 
L 361.344 39.124571 
L 362.088 35.568331 
L 362.832 32.907443 
L 363.576 31.229913 
L 364.32 30.591221 
L 365.064 31.012491 
L 365.808 32.47979 
L 366.552 34.944591 
L 367.296 38.325372 
L 368.04 42.510321 
L 369.528 52.717061 
L 373.248 80.628702 
L 373.992 85.136183 
L 374.736 88.899638 
L 375.48 91.794598 
L 376.224 93.725316 
L 376.968 94.627937 
L 377.712 94.472608 
L 378.456 93.264466 
L 379.2 91.043469 
L 379.944 87.883072 
L 380.688 83.887802 
L 382.176 73.944428 
L 385.896 45.88158 
L 386.64 41.209998 
L 387.384 37.247178 
L 388.128 34.124186 
L 388.872 31.944309 
L 389.616 30.779642 
L 390.36 30.668706 
L 391.104 31.61517 
L 391.848 33.58773 
L 392.592 36.521148 
L 393.336 40.318405 
L 394.824 49.977668 
L 399.288 82.959112 
L 400.032 87.113027 
L 400.776 90.457537 
L 401.52 92.882026 
L 402.264 94.306308 
L 403.008 94.683277 
L 403.752 94.000466 
L 404.496 92.280458 
L 405.24 89.580139 
L 405.984 85.988818 
L 407.472 76.633819 
L 409.704 59.613426 
L 411.192 48.444396 
L 412.68 39.137825 
L 413.424 35.578777 
L 414.168 32.914735 
L 414.912 31.233808 
L 415.656 30.591592 
L 416.4 31.009325 
L 417.144 32.473193 
L 417.888 34.934779 
L 418.632 38.312671 
L 419.376 42.495151 
L 420.864 52.698523 
L 424.584 80.612561 
L 425.328 85.122289 
L 426.072 88.888452 
L 426.816 91.786489 
L 427.56 93.720552 
L 428.304 94.626676 
L 429.048 94.474892 
L 429.792 93.270219 
L 430.536 91.052501 
L 431.28 87.895084 
L 432.024 83.902396 
L 433.512 73.962671 
L 437.232 45.898204 
L 437.976 41.224502 
L 438.72 37.259082 
L 439.464 34.133097 
L 440.208 31.949931 
L 440.952 30.78179 
L 441.696 30.667309 
L 442.44 31.610274 
L 443.184 33.579497 
L 443.928 36.50985 
L 444.672 40.304416 
L 446.16 49.959758 
L 450.624 82.944028 
L 451.368 87.100431 
L 452.112 90.447844 
L 452.856 92.875557 
L 453.6 94.303277 
L 454.344 94.683785 
L 455.088 94.004496 
L 455.832 92.287876 
L 456.576 89.5907 
L 457.32 86.002173 
L 458.808 76.651358 
L 461.04 59.632837 
L 462.528 48.46188 
L 464.016 39.151088 
L 464.76 35.589232 
L 465.504 32.922037 
L 466.248 31.237716 
L 466.992 30.591975 
L 467.736 31.006171 
L 468.48 32.466606 
L 469.224 34.924978 
L 469.968 38.29998 
L 470.712 42.479989 
L 472.2 52.679988 
L 475.92 80.596412 
L 476.664 85.108387 
L 477.408 88.877256 
L 478.152 91.778369 
L 478.896 93.715777 
L 479.64 94.625403 
L 480.384 94.477164 
L 481.128 93.275961 
L 481.872 91.061522 
L 482.616 87.907087 
L 483.36 83.916983 
L 484.848 73.98091 
L 488.568 45.914835 
L 489.312 41.239014 
L 490.056 37.270996 
L 490.8 34.142018 
L 491.544 31.955565 
L 492.288 30.78395 
L 493.032 30.665924 
L 493.776 31.605389 
L 494.52 33.571274 
L 495.264 36.498561 
L 496.008 40.290435 
L 497.496 49.941853 
L 501.96 82.928937 
L 502.704 87.087825 
L 503.448 90.43814 
L 504.192 92.869077 
L 504.936 94.300234 
L 505.68 94.684281 
L 506.424 94.008513 
L 507.168 92.295283 
L 507.912 89.601251 
L 508.656 86.015519 
L 510.144 76.668892 
L 512.376 59.65225 
L 513.864 48.479369 
L 515.352 39.16436 
L 516.096 35.599698 
L 516.84 32.92935 
L 517.584 31.241634 
L 518.328 30.592369 
L 519.072 31.003029 
L 519.816 32.460031 
L 520.56 34.915187 
L 521.304 38.287297 
L 522.048 42.464834 
L 523.536 52.661457 
L 527.256 80.580258 
L 528 85.094477 
L 528.744 88.86605 
L 529.488 91.770238 
L 530.232 93.71099 
L 530.976 94.624119 
L 531.72 94.479424 
L 532.464 93.281691 
L 533.208 91.070533 
L 533.952 87.91908 
L 534.696 83.931563 
L 536.184 73.999144 
L 539.904 45.931471 
L 541.392 37.282919 
L 542.136 34.150949 
L 542.88 31.961209 
L 543.624 30.786122 
L 544.368 30.66455 
L 545.112 31.600516 
L 545.856 33.563062 
L 546.6 36.487283 
L 547.344 40.276462 
L 548.832 49.923953 
L 553.296 82.913838 
L 554.04 87.07521 
L 554.784 90.428426 
L 555.528 92.862585 
L 556.272 94.29718 
L 557.016 94.684765 
L 557.76 94.012519 
L 558.504 92.302678 
L 559.248 89.611792 
L 559.992 86.028856 
L 561.48 76.686421 
L 563.712 59.671663 
L 565.2 48.496864 
L 566.688 39.177641 
L 567.432 35.610173 
L 568.176 32.936674 
L 568.92 31.245565 
L 569.664 30.592776 
L 570.408 30.999898 
L 571.152 32.453467 
L 571.896 34.905406 
L 572.64 38.274623 
L 573.384 42.449686 
L 574.872 52.64293 
L 578.592 80.564096 
L 579.336 85.080558 
L 580.08 88.854834 
L 580.824 91.762096 
L 581.568 93.706192 
L 582.312 94.622823 
L 583.056 94.481672 
L 583.8 93.28741 
L 584.544 91.079533 
L 585.288 87.931064 
L 586.032 83.946134 
L 587.52 74.017375 
L 591.24 45.948114 
L 592.728 37.294851 
L 593.472 34.159891 
L 594.216 31.966866 
L 594.96 30.788305 
L 595.704 30.663189 
L 596.448 31.595654 
L 597.192 33.554861 
L 597.936 36.476013 
L 598.68 40.262498 
L 600.168 49.906057 
L 604.632 82.898731 
L 605.376 87.062586 
L 606.12 90.418702 
L 606.864 92.856083 
L 607.608 94.294114 
L 608.352 94.685237 
L 609.096 94.016514 
L 609.84 92.310063 
L 610.584 89.622322 
L 611.328 86.042184 
L 612.816 76.703944 
L 615.048 59.691078 
L 616.536 48.514364 
L 618.024 39.19093 
L 618.768 35.620659 
L 619.512 32.944009 
L 620.256 31.249507 
L 621 30.593195 
L 621.744 30.99678 
L 622.488 32.446913 
L 623.232 34.895636 
L 623.976 38.261958 
L 624.72 42.434546 
L 626.208 52.624407 
L 629.928 80.547928 
L 630.672 85.066631 
L 631.416 88.843609 
L 632.16 91.753944 
L 632.904 93.701382 
L 633.648 94.621514 
L 634.392 94.483909 
L 635.136 93.293118 
L 635.88 91.088523 
L 636.624 87.943039 
L 637.368 83.960697 
L 638.856 74.035601 
L 642.576 45.964763 
L 644.064 37.306793 
L 644.808 34.168844 
L 645.552 31.972533 
L 646.296 30.7905 
L 647.04 30.661839 
L 647.784 31.590804 
L 648.528 33.546671 
L 649.272 36.464754 
L 650.016 40.248541 
L 651.504 49.888166 
L 655.968 82.883617 
L 656.712 87.049953 
L 657.456 90.408968 
L 658.2 92.849569 
L 658.944 94.291037 
L 659.688 94.685697 
L 660.432 94.020497 
L 661.176 92.317437 
L 661.92 89.632843 
L 662.664 86.055504 
L 664.152 76.721463 
L 666.384 59.710494 
L 667.872 48.531869 
L 669.36 39.204228 
L 670.104 35.631155 
L 670.848 32.951355 
L 671.592 31.25346 
L 672.336 30.593625 
L 673.08 30.993672 
L 673.824 32.440372 
L 674.568 34.885875 
L 675.312 38.249302 
L 676.056 42.419413 
L 677.544 52.605887 
L 681.264 80.531754 
L 682.008 85.052696 
L 682.752 88.832374 
L 683.496 91.745781 
L 684.24 93.696561 
L 684.984 94.620194 
L 685.728 94.486134 
L 686.472 93.298814 
L 687.216 91.097502 
L 687.96 87.955004 
L 688.704 83.975253 
L 690.192 74.053823 
L 693.912 45.981418 
L 695.4 37.318744 
L 696.144 34.177807 
L 696.888 31.978212 
L 697.632 30.792707 
L 698.376 30.660501 
L 699.12 31.585965 
L 699.864 33.538492 
L 700.608 36.453504 
L 701.352 40.234593 
L 702.84 49.87028 
L 707.304 82.868496 
L 708.048 87.037311 
L 708.792 90.399224 
L 709.536 92.843044 
L 710.28 94.287947 
L 711.024 94.686145 
L 711.768 94.024468 
L 712.512 92.3248 
L 713.256 89.643354 
L 714 86.068815 
L 715.488 76.738976 
L 717.72 59.729911 
L 719.208 48.54938 
L 720.696 39.217535 
L 721.44 35.64166 
L 722.184 32.958712 
L 722.928 31.257425 
L 723.672 30.594067 
L 724.416 30.990577 
L 725.16 32.433841 
L 725.904 34.876125 
L 726.648 38.236656 
L 727.392 42.404288 
L 728.88 52.587371 
L 732.6 80.515572 
L 733.344 85.038752 
L 734.088 88.821129 
L 734.832 91.737607 
L 735.576 93.691728 
L 736.32 94.618862 
L 737.064 94.488347 
L 737.808 93.304499 
L 738.552 91.106471 
L 739.296 87.96696 
L 740.04 83.9898 
L 741.528 74.072041 
L 745.248 45.998079 
L 746.736 37.330704 
L 747.48 34.186781 
L 748.224 31.983903 
L 748.968 30.794926 
L 749.712 30.659174 
L 750.456 31.581137 
L 751.2 33.530323 
L 751.944 36.442264 
L 752.688 40.220654 
L 754.176 49.852398 
L 758.64 82.853367 
L 759.384 87.02466 
L 760.128 90.389469 
L 760.872 92.836508 
L 761.616 94.284846 
L 762.36 94.686582 
L 763.104 94.028428 
L 763.848 92.332152 
L 764.592 89.653855 
L 765.336 86.082118 
L 766.824 76.756484 
L 769.056 59.749329 
L 770.544 48.566896 
L 772.032 39.23085 
L 772.776 35.652176 
L 773.52 32.96608 
L 774.264 31.261402 
L 775.008 30.594521 
L 775.752 30.987493 
L 776.496 32.427321 
L 777.24 34.866386 
L 777.984 38.224018 
L 778.728 42.38917 
L 780.216 52.568858 
L 783.936 80.499384 
L 784.68 85.0248 
L 785.424 88.809875 
L 786.168 91.729422 
L 786.912 93.686884 
L 787.656 94.617519 
L 788.4 94.490549 
L 789.144 93.310172 
L 789.888 91.115429 
L 790.632 87.978907 
L 791.376 84.00434 
L 792.864 74.090255 
L 796.584 46.014746 
L 798.072 37.342674 
L 798.816 34.195765 
L 799.56 31.989604 
L 800.304 30.797157 
L 801.048 30.65786 
L 801.792 31.576322 
L 802.536 33.522165 
L 803.28 36.431034 
L 804.024 40.206723 
L 805.512 49.834521 
L 809.976 82.838231 
L 810.72 87.012 
L 811.464 90.379704 
L 812.208 92.829961 
L 812.952 94.281734 
L 813.696 94.687007 
L 814.44 94.032376 
L 815.184 92.339492 
L 815.928 89.664346 
L 816.672 86.095412 
L 818.16 76.773987 
L 820.392 59.768748 
L 821.88 48.584417 
L 823.368 39.244174 
L 824.112 35.662701 
L 824.856 32.973459 
L 825.6 31.265391 
L 826.344 30.594987 
L 827.088 30.984421 
L 827.832 32.420813 
L 828.576 34.856656 
L 829.32 38.211389 
L 830.064 42.37406 
L 831.552 52.550349 
L 835.272 80.48319 
L 836.016 85.01084 
L 836.76 88.798611 
L 837.504 91.721227 
L 838.248 93.682028 
L 838.992 94.616163 
L 839.736 94.492738 
L 840.48 93.315835 
L 841.224 91.124377 
L 841.968 87.990844 
L 842.712 84.018872 
L 844.2 74.108464 
L 847.92 46.03142 
L 849.408 37.354653 
L 850.152 34.20476 
L 850.896 31.995318 
L 851.64 30.799399 
L 852.384 30.656557 
L 853.128 31.571517 
L 853.872 33.514017 
L 854.616 36.419813 
L 855.36 40.1928 
L 856.848 49.816649 
L 861.312 82.823087 
L 862.056 86.999331 
L 862.8 90.369928 
L 863.544 92.823403 
L 864.288 94.278609 
L 865.032 94.687419 
L 865.776 94.036312 
L 866.52 92.346822 
L 867.264 89.674826 
L 868.008 86.108697 
L 869.496 76.791484 
L 871.728 59.788168 
L 873.216 48.601943 
L 874.704 39.257507 
L 875.448 35.673237 
L 876.192 32.980849 
L 876.936 31.269391 
L 877.68 30.595465 
L 878.424 30.981361 
L 879.168 32.414316 
L 879.912 34.846937 
L 880.656 38.19877 
L 881.4 42.358957 
L 882.888 52.531844 
L 886.608 80.466989 
L 887.352 84.996872 
L 888.096 88.787337 
L 888.84 91.71302 
L 889.584 93.67716 
L 890.328 94.614796 
L 891.072 94.494916 
L 891.816 93.321485 
L 892.56 91.133314 
L 893.304 88.002771 
L 894.048 84.033396 
L 895.536 74.126669 
L 899.256 46.048099 
L 900.744 37.366641 
L 901.488 34.213765 
L 902.232 32.001042 
L 902.976 30.801653 
L 903.72 30.655267 
L 904.464 31.566724 
L 905.208 33.505881 
L 905.952 36.408602 
L 906.696 40.178885 
L 908.184 49.798782 
L 912.648 82.807936 
L 913.392 86.986653 
L 914.136 90.360143 
L 914.88 92.816833 
L 915.624 94.275473 
L 916.368 94.68782 
L 917.112 94.040237 
L 917.856 92.354141 
L 918.6 89.685297 
L 919.344 86.121973 
L 920.832 76.808976 
L 923.064 59.807589 
L 924.552 48.619474 
L 926.04 39.270848 
L 926.784 35.683782 
L 927.528 32.98825 
L 928.272 31.273402 
L 929.016 30.595954 
L 929.76 30.978312 
L 930.504 32.40783 
L 931.248 34.837228 
L 931.992 38.186159 
L 932.736 42.343862 
L 934.224 52.513343 
L 937.944 80.450781 
L 938.688 84.982895 
L 939.432 88.776053 
L 940.176 91.704804 
L 940.92 93.672282 
L 941.664 94.613417 
L 942.408 94.497082 
L 943.152 93.327125 
L 943.896 91.142241 
L 944.64 88.01469 
L 945.384 84.047912 
L 946.872 74.14487 
L 950.592 46.064785 
L 952.08 37.378639 
L 952.824 34.222781 
L 953.568 32.006778 
L 954.312 30.803919 
L 955.056 30.653988 
L 955.8 31.561943 
L 956.544 33.497755 
L 957.288 36.397401 
L 958.032 40.164978 
L 959.52 49.780919 
L 963.984 82.792777 
L 964.728 86.973966 
L 965.472 90.350347 
L 966.216 92.810253 
L 966.96 94.272325 
L 967.704 94.688209 
L 968.448 94.04415 
L 969.192 92.361449 
L 969.936 89.695758 
L 970.68 86.135241 
L 972.168 76.826464 
L 974.4 59.827011 
L 975.888 48.63701 
L 977.376 39.284198 
L 978.12 35.694338 
L 978.864 32.995662 
L 979.608 31.277425 
L 980.352 30.596456 
L 981.096 30.975275 
L 981.84 32.401355 
L 982.584 34.82753 
L 983.328 38.173558 
L 984.072 42.328774 
L 985.56 52.494846 
L 989.28 80.434567 
L 990.024 84.96891 
L 990.768 88.76476 
L 991.512 91.696576 
L 992.256 93.667391 
L 993 94.612026 
L 993.744 94.499236 
L 994.488 93.332753 
L 995.232 91.151157 
L 995.976 88.026599 
L 996.72 84.06242 
L 998.208 74.163067 
L 1001.928 46.081477 
L 1003.416 37.390646 
L 1004.16 34.231808 
L 1004.904 32.012525 
L 1005.648 30.806197 
L 1006.392 30.652721 
L 1007.136 31.557173 
L 1007.88 33.48964 
L 1008.624 36.386209 
L 1009.368 40.15108 
L 1010.856 49.763061 
L 1015.32 82.777611 
L 1016.064 86.961269 
L 1016.808 90.340541 
L 1017.552 92.803661 
L 1018.296 94.269166 
L 1019.04 94.688587 
L 1019.784 94.048052 
L 1020.528 92.368746 
L 1021.272 89.706209 
L 1022.016 86.1485 
L 1023.504 76.843945 
L 1025.736 59.846434 
L 1027.224 48.654552 
L 1028.712 39.297557 
L 1029.456 35.704903 
L 1030.2 33.003085 
L 1030.944 31.28146 
L 1031.688 30.596969 
L 1032.432 30.97225 
L 1033.176 32.394892 
L 1033.92 34.817842 
L 1034.664 38.160965 
L 1035.408 42.313694 
L 1036.896 52.476352 
L 1040.616 80.418346 
L 1041.36 84.954917 
L 1042.104 88.753458 
L 1042.848 91.688337 
L 1043.592 93.66249 
L 1044.336 94.610623 
L 1045.08 94.501379 
L 1045.824 93.33837 
L 1046.568 91.160062 
L 1047.312 88.038498 
L 1048.056 84.07692 
L 1049.544 74.181259 
L 1053.264 46.098175 
L 1054.752 37.402663 
L 1055.496 34.240844 
L 1056.24 32.018283 
L 1056.984 30.808486 
L 1057.728 30.651466 
L 1058.472 31.552415 
L 1059.216 33.481536 
L 1059.96 36.375027 
L 1060.704 40.137191 
L 1062.192 49.745208 
L 1066.656 82.762437 
L 1067.4 86.948564 
L 1068.144 90.330724 
L 1068.888 92.797058 
L 1069.632 94.265995 
L 1070.376 94.688952 
L 1071.12 94.051942 
L 1071.864 92.376032 
L 1072.608 89.71665 
L 1073.352 86.161751 
L 1074.84 76.861422 
L 1077.072 59.865859 
L 1078.56 48.672099 
L 1080.048 39.310924 
L 1080.792 35.715479 
L 1081.536 33.010519 
L 1082.28 31.285507 
L 1083.024 30.597494 
L 1083.768 30.969237 
L 1084.512 32.388439 
L 1085.256 34.808164 
L 1086 38.148382 
L 1086.744 42.298621 
L 1088.232 52.457862 
L 1091.952 80.402118 
L 1092.696 84.940915 
L 1093.44 88.742145 
L 1094.184 91.680088 
L 1094.928 93.657576 
L 1095.672 94.609208 
L 1096.416 94.503509 
L 1097.16 93.343976 
L 1097.904 91.168957 
L 1098.648 88.050389 
L 1099.392 84.091412 
L 1100.88 74.199447 
L 1104.6 46.114879 
L 1106.088 37.414688 
L 1106.832 34.249892 
L 1107.576 32.024053 
L 1108.32 30.810787 
L 1109.064 30.650222 
L 1109.808 31.547668 
L 1110.552 33.473443 
L 1111.296 36.363855 
L 1112.04 40.123309 
L 1113.528 49.72736 
L 1117.992 82.747256 
L 1118.736 86.93585 
L 1119.48 90.320898 
L 1120.224 92.790443 
L 1120.968 94.262812 
L 1121.712 94.689306 
L 1122.456 94.05582 
L 1122.456 94.05582 
" style="fill:none;stroke:#ffffff;stroke-linecap:square;"/>
   </g>
  </g>
 </g>
 <defs>
  <clipPath id="p5b19e64cf8">
   <rect height="110.88" width="1116" x="7.2" y="7.2"/>
  </clipPath>
 </defs>
</svg>
