<?xml version="1.0" encoding="utf-8" standalone="no"?>
<!DOCTYPE svg PUBLIC "-//W3C//DTD SVG 1.1//EN"
  "http://www.w3.org/Graphics/SVG/1.1/DTD/svg11.dtd">
<!-- Created with matplotlib (https://matplotlib.org/) -->
<svg height="125.28pt" version="1.1" viewBox="0 0 1130.4 125.28" width="1130.4pt" xmlns="http://www.w3.org/2000/svg" xmlns:xlink="http://www.w3.org/1999/xlink">
 <metadata>
  <rdf:RDF xmlns:cc="http://creativecommons.org/ns#" xmlns:dc="http://purl.org/dc/elements/1.1/" xmlns:rdf="http://www.w3.org/1999/02/22-rdf-syntax-ns#">
   <cc:Work>
    <dc:type rdf:resource="http://purl.org/dc/dcmitype/StillImage"/>
    <dc:date>2020-12-28T19:00:49.215242</dc:date>
    <dc:format>image/svg+xml</dc:format>
    <dc:creator>
     <cc:Agent>
      <dc:title>Matplotlib v3.3.3, https://matplotlib.org/</dc:title>
     </cc:Agent>
    </dc:creator>
   </cc:Work>
  </rdf:RDF>
 </metadata>
 <defs>
  <style type="text/css">*{stroke-linecap:butt;stroke-linejoin:round;}</style>
 </defs>
 <g id="figure_1">
  <g id="patch_1">
   <path d="M 0 125.28 
L 1130.4 125.28 
L 1130.4 0 
L 0 0 
z
" style="fill:none;"/>
  </g>
  <g id="axes_1">
   <g id="line2d_1">
    <path clip-path="url(#p799f9e5dfa)" d="M 7.2 62.941345 
L 13.896 61.286614 
L 16.872 60.79319 
L 19.848 60.557743 
L 22.824 60.613162 
L 25.8 60.951706 
L 28.776 61.526086 
L 33.24 62.648012 
L 38.448 63.928381 
L 41.424 64.445714 
L 44.4 64.710811 
L 47.376 64.68664 
L 50.352 64.376577 
L 53.328 63.823936 
L 57.792 62.715693 
L 63 61.418678 
L 65.976 60.878261 
L 68.952 60.583938 
L 71.928 60.576822 
L 74.904 60.857907 
L 77.88 61.38793 
L 82.344 62.480722 
L 88.296 63.951619 
L 91.272 64.460586 
L 94.248 64.715239 
L 97.224 64.680006 
L 100.2 64.359808 
L 103.176 63.799373 
L 107.64 62.686087 
L 112.848 61.394725 
L 115.824 60.862378 
L 118.8 60.578344 
L 121.776 60.582298 
L 124.752 60.873689 
L 127.728 61.411812 
L 132.192 62.510271 
L 138.144 63.974595 
L 141.12 64.475094 
L 144.096 64.719253 
L 147.072 64.672964 
L 150.048 64.342695 
L 153.024 63.774579 
L 157.488 62.656471 
L 162.696 61.371021 
L 165.672 60.846851 
L 168.648 60.573162 
L 171.624 60.588185 
L 174.6 60.889823 
L 177.576 61.43594 
L 182.04 62.539846 
L 187.248 63.841339 
L 190.224 64.388346 
L 193.2 64.691129 
L 196.176 64.707394 
L 199.152 64.434869 
L 202.128 63.911622 
L 205.848 63.018884 
L 212.544 61.34757 
L 215.52 60.831681 
L 218.496 60.568392 
L 221.472 60.594482 
L 224.448 60.906306 
L 227.424 61.460307 
L 231.888 62.56944 
L 237.096 63.865494 
L 240.072 64.404519 
L 243.048 64.697062 
L 246.024 64.702258 
L 249 64.419381 
L 251.976 63.887946 
L 256.44 62.794155 
L 262.392 61.324377 
L 265.368 60.816872 
L 268.344 60.564035 
L 271.32 60.601186 
L 274.296 60.923136 
L 277.272 61.48491 
L 281.736 62.599049 
L 286.944 63.889404 
L 289.92 64.42034 
L 292.896 64.702584 
L 295.872 64.69671 
L 298.848 64.403538 
L 301.824 63.864021 
L 306.288 62.764601 
L 312.24 61.301447 
L 315.216 60.802427 
L 318.192 60.560093 
L 321.168 60.608298 
L 324.144 60.940308 
L 327.12 61.509744 
L 331.584 62.628666 
L 336.792 63.913064 
L 339.768 64.435806 
L 342.744 64.707695 
L 345.72 64.690752 
L 348.696 64.387343 
L 351.672 63.839851 
L 356.136 62.735023 
L 361.344 61.434454 
L 364.32 60.888824 
L 367.296 60.587813 
L 370.272 60.573467 
L 373.248 60.847792 
L 376.224 61.372466 
L 379.944 62.26617 
L 386.64 63.936471 
L 389.616 64.450914 
L 392.592 64.712394 
L 395.568 64.684385 
L 398.544 64.3708 
L 401.52 63.815443 
L 405.984 62.705425 
L 411.192 61.410342 
L 414.168 60.872712 
L 417.144 60.581951 
L 420.12 60.578675 
L 423.096 60.863341 
L 426.072 61.396186 
L 430.536 62.490968 
L 436.488 63.959618 
L 439.464 64.46566 
L 442.44 64.716678 
L 445.416 64.677609 
L 448.392 64.353911 
L 451.368 63.790799 
L 455.832 62.675815 
L 461.04 61.386475 
L 464.016 60.856952 
L 466.992 60.5765 
L 469.968 60.584294 
L 472.944 60.879245 
L 475.92 61.420154 
L 480.384 62.520527 
L 486.336 63.982503 
L 489.312 64.480042 
L 492.288 64.720548 
L 495.264 64.670427 
L 498.24 64.33668 
L 501.216 63.765926 
L 505.68 62.646197 
L 510.888 61.362858 
L 513.864 60.841548 
L 516.84 60.57146 
L 519.816 60.590323 
L 522.792 60.895501 
L 525.768 61.444365 
L 530.232 62.550109 
L 535.44 63.849745 
L 538.416 64.393995 
L 541.392 64.693233 
L 544.368 64.705659 
L 547.344 64.429537 
L 550.32 63.903438 
L 554.04 63.008774 
L 560.736 61.339496 
L 563.712 60.826503 
L 566.688 60.566834 
L 569.664 60.596761 
L 572.64 60.912105 
L 575.616 61.468815 
L 580.08 62.579709 
L 585.288 63.873815 
L 588.264 64.410047 
L 591.24 64.699024 
L 594.216 64.70038 
L 597.192 64.413926 
L 600.168 63.879675 
L 604.632 62.783907 
L 610.584 61.316394 
L 613.56 60.81182 
L 616.536 60.562621 
L 619.512 60.603607 
L 622.488 60.929053 
L 625.464 61.493498 
L 629.928 62.609322 
L 635.136 63.897639 
L 638.112 64.425745 
L 641.088 64.704404 
L 644.064 64.69469 
L 647.04 64.39796 
L 650.016 63.855665 
L 654.48 62.754344 
L 659.688 61.450333 
L 662.664 60.899537 
L 665.64 60.591862 
L 668.616 60.570289 
L 671.592 60.837829 
L 674.568 61.357111 
L 678.288 62.247151 
L 684.984 63.921212 
L 687.96 64.441087 
L 690.936 64.709372 
L 693.912 64.68859 
L 696.888 64.381644 
L 699.864 63.831412 
L 704.328 62.724758 
L 709.536 61.426063 
L 712.512 60.883196 
L 715.488 60.585733 
L 718.464 60.575227 
L 721.44 60.853145 
L 724.416 61.380665 
L 728.88 62.471678 
L 734.832 63.944529 
L 737.808 64.45607 
L 740.784 64.713927 
L 743.76 64.682081 
L 746.736 64.36498 
L 749.712 63.806921 
L 754.176 62.695156 
L 759.384 61.402035 
L 762.36 60.867205 
L 765.336 60.580013 
L 768.312 60.580577 
L 771.288 60.868818 
L 774.264 61.404472 
L 778.728 62.501218 
L 784.68 63.967586 
L 787.656 64.47069 
L 790.632 64.718068 
L 793.608 64.675164 
L 796.584 64.347972 
L 799.56 63.782197 
L 804.024 62.665542 
L 809.232 61.378254 
L 812.208 60.851568 
L 815.184 60.574705 
L 818.16 60.586339 
L 821.136 60.884844 
L 824.112 61.428524 
L 828.576 62.530786 
L 833.784 63.833893 
L 836.76 64.383322 
L 839.736 64.68923 
L 842.712 64.708885 
L 845.688 64.439541 
L 848.664 63.918822 
L 852.384 63.027802 
L 859.08 61.354725 
L 862.056 60.836289 
L 865.032 60.569809 
L 868.008 60.59251 
L 870.984 60.901221 
L 873.96 61.452819 
L 878.424 62.560375 
L 883.632 63.858122 
L 886.608 64.399603 
L 889.584 64.695288 
L 892.56 64.703875 
L 895.536 64.424162 
L 898.512 63.895224 
L 902.976 62.803201 
L 908.928 61.331453 
L 911.904 60.821369 
L 914.88 60.565326 
L 917.856 60.59909 
L 920.832 60.917945 
L 923.808 61.47735 
L 928.272 62.58998 
L 933.48 63.882107 
L 936.456 64.415532 
L 939.432 64.700937 
L 942.408 64.698453 
L 945.384 64.408428 
L 948.36 63.871374 
L 952.824 62.773656 
L 958.776 61.308442 
L 961.752 60.806812 
L 964.728 60.561256 
L 967.704 60.606077 
L 970.68 60.935012 
L 973.656 61.502114 
L 978.12 62.619595 
L 983.328 63.905845 
L 986.304 64.431107 
L 989.28 64.706174 
L 992.256 64.69262 
L 995.232 64.39234 
L 998.208 63.847279 
L 1002.672 62.744084 
L 1007.88 61.441888 
L 1010.856 60.893829 
L 1013.832 60.58969 
L 1016.808 60.571955 
L 1019.784 60.843101 
L 1022.76 61.365252 
L 1026.48 62.257247 
L 1033.176 63.929329 
L 1036.152 64.446325 
L 1039.128 64.710998 
L 1042.104 64.686378 
L 1045.08 64.375903 
L 1048.056 63.822943 
L 1052.52 62.714492 
L 1057.728 61.417701 
L 1060.704 60.877609 
L 1063.68 60.583703 
L 1066.656 60.577036 
L 1069.632 60.858541 
L 1072.608 61.388895 
L 1077.072 62.481921 
L 1083.024 63.952557 
L 1086 64.461182 
L 1088.976 64.71541 
L 1091.952 64.679728 
L 1094.928 64.35912 
L 1097.904 63.798371 
L 1102.368 62.684884 
L 1107.576 61.393758 
L 1110.552 60.861741 
L 1113.528 60.578125 
L 1116.504 60.582529 
L 1119.48 60.874337 
L 1122.456 61.412787 
L 1122.456 61.412787 
" style="fill:none;stroke:#ffffff;stroke-linecap:square;"/>
   </g>
  </g>
 </g>
 <defs>
  <clipPath id="p799f9e5dfa">
   <rect height="110.88" width="1116" x="7.2" y="7.2"/>
  </clipPath>
 </defs>
</svg>
