<svg xmlns="http://www.w3.org/2000/svg" width="1118" height="122" viewBox="0 0 1118 122">
  <g fill="none" fill-rule="evenodd" transform="translate(-6 -5)">
    <polygon points="0 125.28 1130.4 125.28 1130.4 0 0 0"/>
    <polyline stroke="#0E85EA" stroke-linecap="square" stroke-width="2" points=".2 34.973 .944 38.063 2.432 45.554 6.152 65.64 6.896 68.817 7.64 71.448 8.384 73.452 9.128 74.77 9.872 75.365 10.616 75.226 11.36 74.365 12.104 72.818 12.848 70.643 13.592 67.92 15.08 61.223 18.8 42.855 19.544 39.903 20.288 37.449 21.032 35.577 21.776 34.35 22.52 33.811 23.264 33.982 24.008 34.861 24.752 36.423 25.496 38.624 26.24 41.395 27.728 48.301 32.192 71.688 32.936 74.712 33.68 77.205 34.424 79.09 35.168 80.31 35.912 80.829 36.656 80.631 37.4 79.723 38.144 78.131 38.888 75.905 39.632 73.111 41.12 66.169 45.584 42.535 46.328 39.406 47.072 36.778 47.816 34.726 48.56 33.302 49.304 32.544 50.048 32.466 50.792 33.062 51.536 34.307 52.28 36.156 53.024 38.546 54.512 44.62 58.976 65.674 59.72 68.454 60.464 70.773 61.208 72.565 61.952 73.778 62.696 74.382 63.44 74.364 64.184 73.731 64.928 72.509 65.672 70.744 66.416 68.496 67.904 62.872 72.368 44.188 73.112 41.895 73.856 40.072 74.6 38.78 75.344 38.062 76.088 37.945 76.832 38.434 77.576 39.517 78.32 41.161 79.064 43.318 80.552 48.887 82.784 59.002 84.272 65.682 85.76 71.308 86.504 73.488 87.248 75.141 87.992 76.211 88.736 76.654 89.48 76.451 90.224 75.599 90.968 74.116 91.712 72.04 92.456 69.428 93.944 62.905 98.408 40.449 99.152 37.478 99.896 35.004 100.64 33.105 101.384 31.841 102.128 31.256 102.872 31.371 103.616 32.186 104.36 33.682 105.104 35.817 105.848 38.53 107.336 45.361 109.568 57.532 111.056 65.528 112.544 72.311 113.288 74.987 114.032 77.073 114.776 78.507 115.52 79.247 116.264 79.274 117.008 78.589 117.752 77.215 118.496 75.199 119.24 72.607 120.728 66.045 125.192 43.639 125.936 40.786 126.68 38.471 127.424 36.769 128.168 35.735 128.912 35.402 129.656 35.783 130.4 36.864 131.144 38.609 131.888 40.961 133.376 47.152 135.608 58.511 137.096 65.973 138.584 72.139 139.328 74.452 140.072 76.131 140.816 77.107 141.56 77.338 142.304 76.802 143.048 75.506 143.792 73.479 144.536 70.776 146.024 63.677 148.256 50.513 149.744 41.669 151.232 34.116 151.976 31.15 152.72 28.87 153.464 27.359 154.208 26.679 154.952 26.864 155.696 27.922 156.44 29.832 157.184 32.547 157.928 35.994 159.416 44.672 161.648 60.141 163.136 70.285 164.624 78.842 165.368 82.185 166.112 84.759 166.856 86.481 167.6 87.3 168.344 87.189 169.088 86.153 169.832 84.224 170.576 81.466 171.32 77.966 172.808 69.212 177.272 39.888 178.016 36.224 178.76 33.274 179.504 31.133 180.248 29.866 180.992 29.51 181.736 30.072 182.48 31.528 183.224 33.823 183.968 36.874 185.456 44.788 189.92 71.948 190.664 75.253 191.408 77.826 192.152 79.568 192.896 80.407 193.64 80.301 194.384 79.243 195.128 77.254 195.872 74.391 196.616 70.74 198.104 61.558 202.568 30.776 203.312 27.036 204.056 24.113 204.8 22.121 205.544 21.142 206.288 21.227 207.032 22.393 207.776 24.621 208.52 27.858 209.264 32.015 210.752 42.594 212.984 61.637 214.472 74.197 215.96 84.825 216.704 88.985 217.448 92.191 218.192 94.341 218.936 95.367 219.68 95.236 220.424 93.953 221.168 91.559 221.912 88.131 222.656 83.782 224.144 72.903 228.608 36.494 229.352 31.946 230.096 28.281 230.84 25.613 231.584 24.02 232.328 23.545 233.072 24.194 233.816 25.932 234.56 28.689 235.304 32.361 236.792 41.873 241.256 74.177 242 78.029 242.744 80.989 243.488 82.943 244.232 83.813 244.976 83.556 245.72 82.17 246.464 79.692 247.208 76.197 247.952 71.797 249.44 60.886 253.16 30.515 253.904 25.616 254.648 21.568 255.392 18.525 256.136 16.608 256.88 15.902 257.624 16.454 258.368 18.269 259.112 21.308 259.856 25.494 260.6 30.71 262.088 43.593 266.552 86.563 267.296 91.979 268.04 96.367 268.784 99.586 269.528 101.536 270.272 102.153 271.016 101.42 271.76 99.362 272.504 96.047 273.248 91.583 273.992 86.118 275.48 72.92 279.2 37.216 279.944 31.461 280.688 26.64 281.432 22.901 282.176 20.355 282.92 19.074 283.664 19.083 284.408 20.365 285.152 22.861 285.896 26.467 286.64 31.045 288.128 42.395 291.848 73.237 292.592 78.003 293.336 81.836 294.08 84.592 294.824 86.163 295.568 86.485 296.312 85.534 297.056 83.336 297.8 79.956 298.544 75.506 300.032 64.018 304.496 24.497 305.24 19.649 305.984 15.858 306.728 13.274 307.472 12.006 308.216 12.121 308.96 13.639 309.704 16.536 310.448 20.737 311.192 26.128 312.68 39.815 314.912 64.331 316.4 80.388 317.888 93.858 318.632 99.074 319.376 103.046 320.12 105.648 320.864 106.8 321.608 106.467 322.352 104.664 323.096 101.453 323.84 96.941 324.584 91.279 326.072 77.281 329.792 38.041 331.28 25.928 332.024 21.492 332.768 18.325 333.512 16.515 334.256 16.102 335 17.081 335.744 19.396 336.488 22.946 337.232 27.59 338.72 39.406 342.44 72.673 343.184 77.986 343.928 82.338 344.672 85.567 345.416 87.548 346.16 88.202 346.904 87.497 347.648 85.447 348.392 82.118 349.136 77.617 350.624 65.746 352.856 44.011 354.344 29.847 355.832 18.316 356.576 14.088 357.32 11.117 358.064 9.526 358.808 9.395 359.552 10.751 360.296 13.576 361.04 17.798 361.784 23.302 363.272 37.471 365.504 63.216 366.992 80.276 368.48 94.749 369.224 100.429 369.968 104.821 370.712 107.787 371.456 109.237 372.2 109.129 372.944 107.473 373.688 104.328 374.432 99.803 375.176 94.05 376.664 79.663 381.128 31.795 381.872 25.866 382.616 21.103 383.36 17.648 384.104 15.595 384.848 14.993 385.592 15.836 386.336 18.073 387.08 21.603 387.824 26.279 389.312 38.305 393.032 72.578 393.776 78.103 394.52 82.65 395.264 86.05 396.008 88.171 396.752 88.931 397.496 88.291 398.24 86.268 398.984 82.923 399.728 78.369 400.472 72.758 401.96 59.172 404.936 29.494 406.424 17.601 407.168 13.218 407.912 10.115 408.656 8.42 409.4 8.214 410.144 9.528 410.888 12.342 411.632 16.586 412.376 22.14 413.864 36.488 416.096 62.632 417.584 79.99 419.072 94.744 419.816 100.549 420.56 105.05 421.304 108.11 422.048 109.635 422.792 109.586 423.536 107.97 424.28 104.85 425.024 100.335 425.768 94.58 427.256 80.163 431.72 32.171 432.464 26.237 433.208 21.474 433.952 18.025 434.696 15.984 435.44 15.396 436.184 16.255 436.928 18.508 437.672 22.051 438.416 26.736 439.904 38.76 443.624 72.864 444.368 78.328 445.112 82.809 445.856 86.139 446.6 88.189 447.344 88.878 448.088 88.174 448.832 86.092 449.576 82.699 450.32 78.108 451.808 65.994 454.04 43.822 455.528 29.383 457.016 17.632 457.76 13.321 458.504 10.288 459.248 8.654 459.992 8.497 460.736 9.845 461.48 12.673 462.224 16.909 462.968 22.433 464.456 36.646 466.688 62.419 468.176 79.453 469.664 93.867 470.408 99.51 471.152 103.865 471.896 106.799 472.64 108.226 473.384 108.108 474.128 106.46 474.872 103.346 475.616 98.878 476.36 93.21 477.848 79.086 481.568 39.249 483.056 26.936 483.8 22.427 484.544 19.206 485.288 17.361 486.032 16.931 486.776 17.905 487.52 20.225 488.264 23.786 489.008 28.441 490.496 40.26 494.216 73.267 494.96 78.474 495.704 82.709 496.448 85.81 497.192 87.66 497.936 88.186 498.68 87.359 499.424 85.203 500.168 81.786 500.912 77.222 502.4 65.314 506.864 23.789 507.608 18.624 508.352 14.546 509.096 11.71 509.84 10.231 510.584 10.178 511.328 11.569 512.072 14.379 512.816 18.53 513.56 23.903 515.048 37.628 517.28 62.303 518.768 78.48 520.256 92.061 521 97.331 521.744 101.358 522.488 104.021 523.232 105.244 523.976 104.997 524.72 103.301 525.464 100.221 526.208 95.87 526.952 90.401 528.44 76.894 532.16 39.37 532.904 33.205 533.648 27.994 534.392 23.897 535.136 21.033 535.88 19.478 536.624 19.264 537.368 20.374 538.112 22.747 538.856 26.277 539.6 30.82 541.088 42.199 544.808 73.379 545.552 78.212 546.296 82.106 547.04 84.914 547.784 86.53 548.528 86.891 549.272 85.976 550.016 83.812 550.76 80.47 551.504 76.062 552.992 64.685 557.456 25.643 558.2 20.854 558.944 17.097 559.688 14.514 560.432 13.204 561.176 13.228 561.92 14.599 562.664 17.286 563.408 21.214 564.152 26.265 565.64 39.086 570.104 83.43 570.848 89.205 571.592 93.965 572.336 97.564 573.08 99.895 573.824 100.893 574.568 100.536 575.312 98.847 576.056 95.893 576.8 91.783 577.544 86.661 579.032 74.121 582.752 39.788 583.496 34.23 584.24 29.568 584.984 25.944 585.728 23.465 586.472 22.196 587.216 22.159 587.96 23.335 588.704 25.663 589.448 29.042 590.192 33.336 591.68 43.972 594.656 67.59 596.144 77.122 596.888 80.66 597.632 83.194 598.376 84.633 599.12 84.92 599.864 84.041 600.608 82.025 601.352 78.939 602.096 74.887 603.584 64.472 608.048 28.955 608.792 24.612 609.536 21.205 610.28 18.858 611.024 17.66 611.768 17.662 612.512 18.874 613.256 21.266 614 24.768 614.744 29.271 616.232 40.695 620.696 80.051 621.44 85.144 622.184 89.329 622.928 92.477 623.672 94.496 624.416 95.328 625.16 94.957 625.904 93.406 626.648 90.737 627.392 87.047 628.136 82.468 629.624 71.298 633.344 40.894 634.088 35.998 634.832 31.901 635.576 28.729 636.32 26.573 637.064 25.491 637.808 25.501 638.552 26.585 639.296 28.688 640.04 31.721 640.784 35.563 642.272 45.062 645.992 70.783 646.736 74.767 647.48 77.99 648.224 80.337 648.968 81.726 649.712 82.107 650.456 81.468 651.2 79.831 651.944 77.252 652.688 73.821 654.176 64.91 658.64 33.998 659.384 30.136 660.128 27.063 660.872 24.888 661.616 23.69 662.36 23.514 663.104 24.372 663.848 26.239 664.592 29.06 665.336 32.746 666.824 42.215 669.056 59.265 670.544 70.418 672.032 79.742 672.776 83.341 673.52 86.076 674.264 87.864 675.008 88.656 675.752 88.434 676.496 87.215 677.24 85.047 677.984 82.01 678.728 78.21 680.216 68.868 683.936 43.067 684.68 38.841 685.424 35.27 686.168 32.464 686.912 30.502 687.656 29.438 688.4 29.291 689.144 30.053 689.888 31.683 690.632 34.112 691.376 37.243 692.864 45.123 696.584 67.198 697.328 70.775 698.072 73.755 698.816 76.038 699.56 77.549 700.304 78.24 701.048 78.092 701.792 77.114 702.536 75.344 703.28 72.848 704.024 69.716 705.512 62.003 709.232 40.906 709.976 37.547 710.72 34.775 711.464 32.684 712.208 31.345 712.952 30.805 713.696 31.081 714.44 32.166 715.184 34.025 715.928 36.595 716.672 39.793 718.16 47.635 721.88 69.356 722.624 72.937 723.368 75.971 724.112 78.365 724.856 80.045 725.6 80.962 726.344 81.093 727.088 80.438 727.832 79.024 728.576 76.904 729.32 74.151 730.808 67.135 735.272 43.023 736.016 39.912 736.76 37.353 737.504 35.419 738.248 34.165 738.992 33.619 739.736 33.788 740.48 34.655 741.224 36.181 741.968 38.306 742.712 40.951 744.2 47.406 747.92 64.926 748.664 67.735 749.408 70.082 750.152 71.893 750.896 73.118 751.64 73.724 752.384 73.7 753.128 73.055 753.872 71.821 754.616 70.046 755.36 67.798 756.848 62.222 760.568 46.789 761.312 44.289 762.056 42.197 762.8 40.582 763.544 39.494 764.288 38.967 765.032 39.015 765.776 39.632 766.52 40.797 767.264 42.466 768.008 44.583 769.496 49.859 773.216 64.787 774.704 69.425 775.448 71.129 776.192 72.345 776.936 73.038 777.68 73.186 778.424 72.786 779.168 71.852 779.912 70.414 780.656 68.519 782.144 63.61 784.376 54.651 786.608 45.952 788.096 41.45 788.84 39.796 789.584 38.606 790.328 37.909 791.072 37.722 791.816 38.045 792.56 38.862 793.304 40.143 794.048 41.846 795.536 46.282 797.768 54.423 800 62.407 801.488 66.624 802.232 68.219 802.976 69.413 803.72 70.181 804.464 70.509 805.208 70.397 805.952 69.857 806.696 68.917 807.44 67.614 808.928 64.118 811.16 57.595 813.392 51.217 814.88 47.922 815.624 46.719 816.368 45.861 817.112 45.37 817.856 45.257 818.6 45.52 819.344 46.147 820.088 47.112 820.832 48.382 822.32 51.65 826.784 62.957 827.528 64.394 828.272 65.554 829.016 66.395 829.76 66.885 830.504 67.003 831.248 66.74 831.992 66.097 832.736 65.087 833.48 63.734 834.968 60.149 836.456 55.727 839.432 46.39 840.92 42.555 841.664 41.061 842.408 39.917 843.152 39.159 843.896 38.815 844.64 38.902 845.384 39.424 846.128 40.373 846.872 41.729 847.616 43.46 849.104 47.872 851.336 55.969 853.568 64.14 855.056 68.66 855.8 70.45 856.544 71.86 857.288 72.852 858.032 73.4 858.776 73.491 859.52 73.125 860.264 72.314 861.008 71.085 861.752 69.475 863.24 65.319 865.472 57.731 867.704 50.334 869.192 46.492 869.936 45.081 870.68 44.069 871.424 43.484 872.168 43.34 872.912 43.639 873.656 44.367 874.4 45.496 875.144 46.986 876.632 50.824 881.096 63.832 881.84 65.374 882.584 66.546 883.328 67.295 884.072 67.585 884.816 67.392 885.56 66.708 886.304 65.541 887.048 63.917 887.792 61.878 889.28 56.786 893.744 39.524 894.488 37.361 895.232 35.642 895.976 34.435 896.72 33.796 897.464 33.764 898.208 34.358 898.952 35.58 899.696 37.411 900.44 39.814 901.928 46.094 903.416 53.776 906.392 69.891 907.88 76.463 908.624 79.007 909.368 80.946 910.112 82.22 910.856 82.786 911.6 82.626 912.344 81.741 913.088 80.157 913.832 77.918 914.576 75.093 916.064 68.042 920.528 44.164 921.272 41.098 922.016 38.585 922.76 36.702 923.504 35.506 924.248 35.03 924.992 35.282 925.736 36.25 926.48 37.892 927.224 40.147 928.712 46.144 930.944 57.119 932.432 64.203 933.176 67.271 933.92 69.862 934.664 71.872 935.408 73.216 936.152 73.835 936.896 73.69 937.64 72.77 938.384 71.092 939.128 68.699 939.872 65.659 941.36 58.032 945.824 32.598 946.568 29.561 947.312 27.229 948.056 25.702 948.8 25.053 949.544 25.328 950.288 26.545 951.032 28.691 951.776 31.721 952.52 35.561 954.008 45.246 956.24 62.609 957.728 74.081 959.216 83.831 959.96 87.667 960.704 90.641 961.448 92.654 962.192 93.64 962.936 93.564 963.68 92.425 964.424 90.255 965.168 87.12 965.912 83.116 967.4 73.027 971.864 38.587 972.608 34.169 973.352 30.557 974.096 27.863 974.84 26.168 975.584 25.519 976.328 25.929 977.072 27.373 977.816 29.793 978.56 33.095 980.048 41.828 984.512 72.346 985.256 76.071 986 78.963 986.744 80.907 987.488 81.818 988.232 81.651 988.976 80.394 989.72 78.076 990.464 74.763 991.208 70.558 992.696 60.036 996.416 30.299 997.16 25.44 997.904 21.402 998.648 18.344 999.392 16.393 1000.136 15.641 1000.88 16.142 1001.624 17.907 1002.368 20.907 1003.112 25.071 1003.856 30.29 1005.344 43.272 1009.808 87.327 1010.552 92.996 1011.296 97.634 1012.04 101.092 1012.784 103.255 1013.528 104.053 1014.272 103.456 1015.016 101.482 1015.76 98.19 1016.504 93.685 1017.248 88.111 1018.736 74.494 1022.456 36.884 1023.2 30.694 1023.944 25.455 1024.688 21.332 1025.432 18.452 1026.176 16.899 1026.92 16.713 1027.664 17.887 1028.408 20.368 1029.152 24.057 1029.896 28.816 1031.384 40.805 1035.104 74.307 1035.848 79.644 1036.592 84.011 1037.336 87.243 1038.08 89.211 1038.824 89.833 1039.568 89.072 1040.312 86.94 1041.056 83.497 1041.8 78.85 1042.544 73.148 1044.032 59.37 1047.008 29.193 1048.496 17.005 1049.24 12.475 1049.984 9.236 1050.728 7.422 1051.472 7.122 1052.216 8.376 1052.96 11.17 1053.704 15.441 1054.448 21.074 1055.936 35.745 1058.168 62.757 1059.656 80.865 1061.144 96.389 1061.888 102.546 1062.632 107.355 1063.376 110.661 1064.12 112.356 1064.864 112.384 1065.608 110.744 1066.352 107.489 1067.096 102.724 1067.84 96.604 1069.328 81.131 1073.792 28.529 1074.536 21.87 1075.28 16.472 1076.024 12.503 1076.768 10.082 1077.512 9.276 1078.256 10.096 1079 12.498 1079.744 16.384 1080.488 21.606 1081.976 35.238 1086.44 82.108 1087.184 87.784 1087.928 92.191 1088.672 95.163 1089.416 96.584 1090.16 96.391 1090.904 94.577 1091.648 91.192 1092.392 86.343 1093.136 80.187 1094.624 64.813 1098.344 21.621 1099.088 14.597 1099.832 8.763 1100.576 4.338 1101.32 1.495 1102.064 .356 1102.808 .985 1103.552 3.388 1104.296 7.513 1105.04 13.247 1105.784 20.427 1107.272 38.217 1111.736 97.492 1112.48 104.901 1113.224 110.867 1113.968 115.198 1114.712 117.754 1115.456 118.454 1115.456 118.454" transform="translate(7 7)"/>
  </g>
</svg>
