<svg xmlns="http://www.w3.org/2000/svg" width="1116" height="11" viewBox="0 0 1116 11">
  <g fill="none" fill-rule="evenodd" transform="translate(-7 -57)">
    <polygon points="0 125.28 1130.4 125.28 1130.4 0 0 0"/>
    <polyline stroke="#FFF" stroke-linecap="square" points=".2 8.806 2.432 8.414 4.664 7.763 6.896 6.898 9.872 5.515 16.568 2.29 18.8 1.443 21.032 .816 23.264 .451 25.496 .374 27.728 .591 29.96 1.085 32.192 1.823 35.168 3.098 44.84 7.614 47.072 8.31 49.304 8.753 51.536 8.914 53.768 8.781 56 8.364 58.232 7.691 60.464 6.809 64.184 5.042 69.392 2.52 71.624 1.628 73.856 .944 76.088 .513 78.32 .366 80.552 .512 82.784 .942 85.016 1.626 87.992 2.849 92.456 5.038 96.176 6.806 98.408 7.689 100.64 8.362 102.872 8.78 105.104 8.914 107.336 8.754 109.568 8.311 111.8 7.617 114.776 6.383 119.24 4.19 122.96 2.429 125.192 1.555 127.424 .892 129.656 .487 131.888 .367 134.12 .541 136.352 .996 138.584 1.701 141.56 2.945 146.768 5.512 150.488 7.204 152.72 8.005 154.952 8.574 157.184 8.873 159.416 8.881 161.648 8.598 163.88 8.043 166.112 7.255 169.088 5.935 177.272 2.034 179.504 1.243 181.736 .686 183.968 .4 186.2 .406 188.432 .702 190.664 1.268 192.896 2.067 195.872 3.395 204.056 7.287 206.288 8.068 208.52 8.613 210.752 8.886 212.984 8.867 215.216 8.558 217.448 7.979 219.68 7.171 222.656 5.835 230.84 1.952 233.072 1.181 235.304 .648 237.536 .388 239.768 .421 242 .744 244.232 1.334 246.464 2.151 249.44 3.495 256.88 7.07 259.112 7.9 261.344 8.506 263.576 8.847 265.808 8.898 268.04 8.657 270.272 8.141 272.504 7.384 275.48 6.092 284.408 1.871 286.64 1.12 288.872 .611 291.104 .379 293.336 .439 295.568 .788 297.8 1.401 300.032 2.237 303.008 3.596 310.448 7.156 312.68 7.967 314.912 8.55 317.144 8.864 319.376 8.888 321.608 8.621 323.84 8.08 326.072 7.302 329.048 5.993 337.976 1.792 340.208 1.062 342.44 .578 344.672 .372 346.904 .46 349.136 .834 351.368 1.47 353.6 2.324 356.576 3.698 363.272 6.933 365.504 7.791 367.736 8.433 369.968 8.815 372.2 8.909 374.432 8.711 376.664 8.233 378.896 7.508 381.872 6.246 391.544 1.715 393.776 1.006 396.008 .546 398.24 .368 400.472 .483 402.704 .883 404.936 1.542 407.168 2.413 410.888 4.17 416.096 6.701 419.072 7.861 421.304 8.48 423.536 8.836 425.768 8.903 428 8.678 430.232 8.175 432.464 7.43 435.44 6.148 445.112 1.64 447.344 .952 449.576 .517 451.808 .366 454.04 .508 456.272 .934 458.504 1.615 461.48 2.835 465.944 5.022 469.664 6.792 471.896 7.677 474.128 8.354 476.36 8.776 478.592 8.914 480.824 8.758 483.056 8.319 485.288 7.628 488.264 6.398 492.728 4.206 496.448 2.443 498.68 1.566 500.912 .9 503.144 .491 505.376 .367 507.608 .536 509.84 .987 512.072 1.689 515.048 2.93 520.256 5.496 523.976 7.191 526.208 7.995 528.44 8.567 530.672 8.871 532.904 8.883 535.136 8.604 537.368 8.053 539.6 7.268 542.576 5.951 550.76 2.047 552.992 1.253 555.224 .692 557.456 .402 559.688 .404 561.92 .696 564.152 1.259 566.384 2.054 569.36 3.379 577.544 7.275 579.776 8.058 582.008 8.608 584.24 8.884 586.472 8.869 588.704 8.564 590.936 7.989 593.168 7.184 596.144 5.851 604.328 1.964 606.56 1.19 608.792 .653 611.024 .39 613.256 .419 615.488 .737 617.72 1.324 619.952 2.138 622.928 3.48 630.368 7.057 632.6 7.89 634.832 8.499 637.064 8.844 639.296 8.9 641.528 8.663 643.76 8.15 645.992 7.396 648.968 6.107 657.896 1.884 660.128 1.13 662.36 .617 664.592 .38 666.824 .436 669.056 .781 671.288 1.391 673.52 2.224 676.496 3.581 683.936 7.143 686.168 7.957 688.4 8.543 690.632 8.862 692.864 8.89 695.096 8.626 697.328 8.089 699.56 7.315 702.536 6.008 711.464 1.804 713.696 1.071 715.928 .583 718.16 .373 720.392 .456 722.624 .827 724.856 1.46 727.088 2.311 730.064 3.682 736.76 6.919 738.992 7.78 741.224 8.426 743.456 8.811 745.688 8.91 747.92 8.716 750.152 8.241 752.384 7.52 755.36 6.261 765.032 1.727 767.264 1.014 769.496 .551 771.728 .368 773.96 .479 776.192 .876 778.424 1.531 780.656 2.399 784.376 4.154 789.584 6.687 792.56 7.85 794.792 8.473 797.024 8.833 799.256 8.904 801.488 8.683 803.72 8.184 805.952 7.442 808.928 6.163 818.6 1.651 820.832 .96 823.064 .522 825.296 .366 827.528 .504 829.76 .926 831.992 1.603 834.968 2.82 839.432 5.006 843.152 6.778 845.384 7.666 847.616 8.346 849.848 8.772 852.08 8.914 854.312 8.762 856.544 8.328 858.776 7.64 861.752 6.412 866.216 4.221 869.936 2.457 872.168 1.577 874.4 .908 876.632 .495 878.864 .367 881.096 .532 883.328 .979 885.56 1.678 888.536 2.916 893 5.111 896.72 6.868 898.952 7.739 901.184 8.397 903.416 8.797 905.648 8.912 907.88 8.733 910.112 8.274 912.344 7.564 915.32 6.316 920.528 3.748 924.248 2.06 926.48 1.263 928.712 .698 930.944 .404 933.176 .401 935.408 .69 937.64 1.249 939.872 2.041 942.848 3.364 951.032 7.262 953.264 8.049 955.496 8.602 957.728 8.882 959.96 8.872 962.192 8.57 964.424 7.999 966.656 7.197 969.632 5.866 977.816 1.977 980.048 1.2 982.28 .659 984.512 .392 986.744 .416 988.976 .731 991.208 1.314 993.44 2.125 996.416 3.464 1003.856 7.044 1006.088 7.879 1008.32 8.493 1010.552 8.841 1012.784 8.901 1015.016 8.668 1017.248 8.159 1019.48 7.408 1022.456 6.122 1031.384 1.896 1033.616 1.139 1035.848 .622 1038.08 .382 1040.312 .433 1042.544 .774 1044.776 1.38 1047.008 2.21 1049.984 3.565 1057.424 7.13 1059.656 7.947 1061.888 8.537 1064.12 8.859 1066.352 8.892 1068.584 8.632 1070.816 8.099 1073.048 7.327 1076.024 6.023 1084.952 1.816 1087.184 1.08 1089.416 .588 1091.648 .374 1093.88 .453 1096.112 .82 1098.344 1.449 1100.576 2.297 1103.552 3.667 1110.248 6.906 1112.48 7.769 1114.712 8.418 1115.456 8.579 1115.456 8.579" transform="translate(7 58)"/>
  </g>
</svg>
