<svg xmlns="http://www.w3.org/2000/svg" width="1117" height="66" viewBox="0 0 1117 66">
  <g fill="none" fill-rule="evenodd" transform="translate(-6 -30)">
    <polygon points="0 125.28 1130.4 125.28 1130.4 0 0 0"/>
    <polyline stroke="#FFF" stroke-linecap="square" points=".2 5.014 .944 8.415 1.688 12.617 3.176 22.847 6.896 50.742 7.64 55.233 8.384 58.978 9.128 61.851 9.872 63.758 10.616 64.636 11.36 64.456 12.104 63.224 12.848 60.98 13.592 57.799 14.336 53.785 15.824 43.817 19.544 15.765 20.288 11.109 21.032 7.164 21.776 4.062 22.52 1.905 23.264 .765 24.008 .679 24.752 1.65 25.496 3.646 26.24 6.601 26.984 10.417 28.472 20.103 32.936 53.064 33.68 57.201 34.424 60.525 35.168 62.927 35.912 64.327 36.656 64.679 37.4 63.972 38.144 62.228 38.888 59.506 39.632 55.895 41.12 46.511 43.352 29.478 44.84 18.322 46.328 9.045 47.072 5.506 47.816 2.864 48.56 1.207 49.304 .589 50.048 1.032 50.792 2.52 51.536 5.004 52.28 8.402 53.024 12.601 54.512 22.828 58.232 50.725 58.976 55.219 59.72 58.967 60.464 61.843 61.208 63.754 61.952 64.635 62.696 64.459 63.44 63.23 64.184 60.989 64.928 57.811 65.672 53.8 67.16 43.835 70.88 15.782 71.624 11.123 72.368 7.176 73.112 4.071 73.856 1.911 74.6 .767 75.344 .677 76.088 1.645 76.832 3.637 77.576 6.589 78.32 10.403 79.808 20.085 84.272 53.049 85.016 57.188 85.76 60.515 86.504 62.921 87.248 64.324 87.992 64.68 88.736 63.976 89.48 62.236 90.224 59.517 90.968 55.909 92.456 46.528 94.688 29.497 96.176 18.34 97.664 9.058 98.408 5.516 99.152 2.871 99.896 1.211 100.64 .59 101.384 1.028 102.128 2.513 102.872 4.994 103.616 8.389 104.36 12.586 105.848 22.81 109.568 50.709 110.312 55.206 111.056 58.955 111.8 61.835 112.544 63.749 113.288 64.634 114.032 64.461 114.776 63.236 115.52 60.998 116.264 57.823 117.008 53.815 118.496 43.853 122.216 15.799 122.96 11.138 123.704 7.188 124.448 4.08 125.192 1.916 125.936 .769 126.68 .676 127.424 1.64 128.168 3.629 128.912 6.578 129.656 10.388 131.144 20.067 135.608 53.034 136.352 57.176 137.096 60.506 137.84 62.914 138.584 64.321 139.328 64.681 140.072 63.98 140.816 62.243 141.56 59.527 142.304 55.922 143.792 46.546 146.024 29.516 147.512 18.357 149 9.072 149.744 5.527 150.488 2.878 151.232 1.214 151.976 .59 152.72 1.025 153.464 2.506 154.208 4.984 154.952 8.376 155.696 12.571 157.184 22.791 160.904 50.693 161.648 55.192 162.392 58.944 163.136 61.827 163.88 63.744 164.624 64.633 165.368 64.463 166.112 63.241 166.856 61.007 167.6 57.835 168.344 53.829 169.832 43.871 173.552 15.815 174.296 11.152 175.04 7.2 175.784 4.089 176.528 1.922 177.272 .771 178.016 .674 178.76 1.635 179.504 3.621 180.248 6.566 180.992 10.374 182.48 20.049 186.944 53.019 187.688 57.163 188.432 60.496 189.176 62.908 189.92 64.318 190.664 64.681 191.408 63.984 192.152 62.251 192.896 59.538 193.64 55.935 195.128 46.564 197.36 29.536 198.848 18.375 200.336 9.085 201.08 5.537 201.824 2.886 202.568 1.218 203.312 .59 204.056 1.022 204.8 2.5 205.544 4.974 206.288 8.364 207.032 12.556 208.52 22.773 212.24 50.677 212.984 55.178 213.728 58.933 214.472 61.819 215.216 63.74 215.96 64.632 216.704 64.466 217.448 63.247 218.192 61.016 218.936 57.847 219.68 53.844 221.168 43.89 224.888 15.832 225.632 11.167 226.376 7.212 227.12 4.098 227.864 1.928 228.608 .773 229.352 .673 230.096 1.63 230.84 3.612 231.584 6.555 232.328 10.36 233.816 20.031 238.28 53.004 239.024 57.151 239.768 60.487 240.512 62.901 241.256 64.315 242 64.682 242.744 63.988 243.488 62.258 244.232 59.548 244.976 55.949 246.464 46.581 248.696 29.555 250.184 18.392 251.672 9.098 252.416 5.547 253.16 2.893 253.904 1.222 254.648 .591 255.392 1.019 256.136 2.493 256.88 4.964 257.624 8.351 258.368 12.541 259.856 22.754 263.576 50.661 264.32 55.164 265.064 58.922 265.808 61.811 266.552 63.735 267.296 64.63 268.04 64.468 268.784 63.253 269.528 61.025 270.272 57.859 271.016 53.859 272.504 43.908 276.224 15.848 276.968 11.181 277.712 7.223 278.456 4.106 279.2 1.933 279.944 .775 280.688 .672 281.432 1.625 282.176 3.604 282.92 6.544 283.664 10.346 285.152 20.014 289.616 52.989 290.36 57.138 291.104 60.477 291.848 62.895 292.592 64.312 293.336 64.682 294.08 63.992 294.824 62.266 295.568 59.559 296.312 55.962 297.8 46.599 300.032 29.575 301.52 18.409 303.008 9.111 303.752 5.558 304.496 2.9 305.24 1.226 305.984 .591 306.728 1.016 307.472 2.486 308.216 4.954 308.96 8.338 309.704 12.525 311.192 22.736 314.912 50.645 315.656 55.15 316.4 58.911 317.144 61.803 317.888 63.73 318.632 64.629 319.376 64.47 320.12 63.259 320.864 61.034 321.608 57.871 322.352 53.873 323.84 43.926 327.56 15.865 328.304 11.196 329.048 7.235 329.792 4.115 330.536 1.939 331.28 .778 332.024 .67 332.768 1.62 333.512 3.596 334.256 6.532 335 10.332 336.488 19.996 340.952 52.974 341.696 57.126 342.44 60.467 343.184 62.888 343.928 64.309 344.672 64.683 345.416 63.996 346.16 62.273 346.904 59.57 347.648 55.975 349.136 46.616 351.368 29.594 352.856 18.427 354.344 9.125 355.088 5.568 355.832 2.907 356.576 1.23 357.32 .591 358.064 1.012 358.808 2.48 359.552 4.945 360.296 8.325 361.04 12.51 362.528 22.717 366.248 50.629 366.992 55.136 367.736 58.9 368.48 61.795 369.224 63.725 369.968 64.628 370.712 64.473 371.456 63.264 372.2 61.043 372.944 57.883 373.688 53.888 375.176 43.944 378.896 15.882 379.64 11.21 380.384 7.247 381.128 4.124 381.872 1.944 382.616 .78 383.36 .669 384.104 1.615 384.848 3.588 385.592 6.521 386.336 10.318 387.824 19.978 392.288 52.959 393.032 57.113 393.776 60.458 394.52 62.882 395.264 64.306 396.008 64.683 396.752 64 397.496 62.28 398.24 59.58 398.984 55.989 400.472 46.634 402.704 29.613 404.192 18.444 405.68 9.138 406.424 5.579 407.168 2.915 407.912 1.234 408.656 .592 409.4 1.009 410.144 2.473 410.888 4.935 411.632 8.313 412.376 12.495 413.864 22.699 417.584 50.613 418.328 55.122 419.072 58.888 419.816 61.786 420.56 63.721 421.304 64.627 422.048 64.475 422.792 63.27 423.536 61.053 424.28 57.895 425.024 53.902 426.512 43.963 430.232 15.898 430.976 11.225 431.72 7.259 432.464 4.133 433.208 1.95 433.952 .782 434.696 .667 435.44 1.61 436.184 3.579 436.928 6.51 437.672 10.304 439.16 19.96 443.624 52.944 444.368 57.1 445.112 60.448 445.856 62.876 446.6 64.303 447.344 64.684 448.088 64.004 448.832 62.288 449.576 59.591 450.32 56.002 451.808 46.651 454.04 29.633 455.528 18.462 457.016 9.151 457.76 5.589 458.504 2.922 459.248 1.238 459.992 .592 460.736 1.006 461.48 2.467 462.224 4.925 462.968 8.3 463.712 12.48 465.2 22.68 468.92 50.596 469.664 55.108 470.408 58.877 471.152 61.778 471.896 63.716 472.64 64.625 473.384 64.477 474.128 63.276 474.872 61.062 475.616 57.907 476.36 53.917 477.848 43.981 481.568 15.915 482.312 11.239 483.056 7.271 483.8 4.142 484.544 1.956 485.288 .784 486.032 .666 486.776 1.605 487.52 3.571 488.264 6.499 489.008 10.29 490.496 19.942 494.96 52.929 495.704 57.088 496.448 60.438 497.192 62.869 497.936 64.3 498.68 64.684 499.424 64.009 500.168 62.295 500.912 59.601 501.656 56.016 503.144 46.669 505.376 29.652 506.864 18.479 508.352 9.164 509.096 5.6 509.84 2.929 510.584 1.242 511.328 .592 512.072 1.003 512.816 2.46 513.56 4.915 514.304 8.287 515.048 12.465 516.536 22.661 520.256 50.58 521 55.094 521.744 58.866 522.488 61.77 523.232 63.711 523.976 64.624 524.72 64.479 525.464 63.282 526.208 61.071 526.952 57.919 527.696 53.932 529.184 43.999 532.904 15.931 534.392 7.283 535.136 4.151 535.88 1.961 536.624 .786 537.368 .665 538.112 1.601 538.856 3.563 539.6 6.487 540.344 10.276 541.832 19.924 546.296 52.914 547.04 57.075 547.784 60.428 548.528 62.863 549.272 64.297 550.016 64.685 550.76 64.013 551.504 62.303 552.248 59.612 552.992 56.029 554.48 46.686 556.712 29.672 558.2 18.497 559.688 9.178 560.432 5.61 561.176 2.937 561.92 1.246 562.664 .593 563.408 1 564.152 2.453 564.896 4.905 565.64 8.275 566.384 12.45 567.872 22.643 571.592 50.564 572.336 55.081 573.08 58.855 573.824 61.762 574.568 63.706 575.312 64.623 576.056 64.482 576.8 63.287 577.544 61.08 578.288 57.931 579.032 53.946 580.52 44.017 584.24 15.948 585.728 7.295 586.472 4.16 587.216 1.967 587.96 .788 588.704 .663 589.448 1.596 590.192 3.555 590.936 6.476 591.68 10.262 593.168 19.906 597.632 52.899 598.376 57.063 599.12 60.419 599.864 62.856 600.608 64.294 601.352 64.685 602.096 64.017 602.84 62.31 603.584 59.622 604.328 56.042 605.816 46.704 608.048 29.691 609.536 18.514 611.024 9.191 611.768 5.621 612.512 2.944 613.256 1.25 614 .593 614.744 .997 615.488 2.447 616.232 4.896 616.976 8.262 617.72 12.435 619.208 22.624 622.928 50.548 623.672 55.067 624.416 58.844 625.16 61.754 625.904 63.701 626.648 64.622 627.392 64.484 628.136 63.293 628.88 61.089 629.624 57.943 630.368 53.961 631.856 44.036 635.576 15.965 637.064 7.307 637.808 4.169 638.552 1.973 639.296 .79 640.04 .662 640.784 1.591 641.528 3.547 642.272 6.465 643.016 10.249 644.504 19.888 648.968 52.884 649.712 57.05 650.456 60.409 651.2 62.85 651.944 64.291 652.688 64.686 653.432 64.02 654.176 62.317 654.92 59.633 655.664 56.056 657.152 46.721 659.384 29.71 660.872 18.532 662.36 9.204 663.104 5.631 663.848 2.951 664.592 1.253 665.336 .594 666.08 .994 666.824 2.44 667.568 4.886 668.312 8.249 669.056 12.419 670.544 22.606 674.264 50.532 675.008 55.053 675.752 58.832 676.496 61.746 677.24 63.697 677.984 64.62 678.728 64.486 679.472 63.299 680.216 61.098 680.96 57.955 681.704 53.975 683.192 44.054 686.912 15.981 688.4 7.319 689.144 4.178 689.888 1.978 690.632 .793 691.376 .661 692.12 1.586 692.864 3.538 693.608 6.454 694.352 10.235 695.84 19.87 700.304 52.868 701.048 57.037 701.792 60.399 702.536 62.843 703.28 64.288 704.024 64.686 704.768 64.024 705.512 62.325 706.256 59.643 707 56.069 708.488 46.739 710.72 29.73 712.208 18.549 713.696 9.218 714.44 5.642 715.184 2.959 715.928 1.257 716.672 .594 717.416 .991 718.16 2.434 718.904 4.876 719.648 8.237 720.392 12.404 721.88 22.587 725.6 50.516 726.344 55.039 727.088 58.821 727.832 61.738 728.576 63.692 729.32 64.619 730.064 64.488 730.808 63.304 731.552 61.106 732.296 57.967 733.04 53.99 734.528 44.072 738.248 15.998 739.736 7.331 740.48 4.187 741.224 1.984 741.968 .795 742.712 .659 743.456 1.581 744.2 3.53 744.944 6.442 745.688 10.221 747.176 19.852 751.64 52.853 752.384 57.025 753.128 60.389 753.872 62.837 754.616 64.285 755.36 64.687 756.104 64.028 756.848 62.332 757.592 59.654 758.336 56.082 759.824 46.756 762.056 29.749 763.544 18.567 765.032 9.231 765.776 5.652 766.52 2.966 767.264 1.261 768.008 .595 768.752 .987 769.496 2.427 770.24 4.866 770.984 8.224 771.728 12.389 773.216 22.569 776.936 50.499 777.68 55.025 778.424 58.81 779.168 61.729 779.912 63.687 780.656 64.618 781.4 64.491 782.144 63.31 782.888 61.115 783.632 57.979 784.376 54.004 785.864 44.09 789.584 16.015 791.072 7.343 791.816 4.196 792.56 1.99 793.304 .797 794.048 .658 794.792 1.576 795.536 3.522 796.28 6.431 797.024 10.207 798.512 19.835 802.976 52.838 803.72 57.012 804.464 60.38 805.208 62.83 805.952 64.282 806.696 64.687 807.44 64.032 808.184 62.339 808.928 59.664 809.672 56.095 811.16 46.774 813.392 29.769 814.88 18.584 816.368 9.244 817.112 5.663 817.856 2.973 818.6 1.265 819.344 .595 820.088 .984 820.832 2.421 821.576 4.857 822.32 8.211 823.064 12.374 824.552 22.55 828.272 50.483 829.016 55.011 829.76 58.799 830.504 61.721 831.248 63.682 831.992 64.616 832.736 64.493 833.48 63.316 834.224 61.124 834.968 57.991 835.712 54.019 837.2 44.108 840.92 16.031 842.408 7.355 843.152 4.205 843.896 1.995 844.64 .799 845.384 .657 846.128 1.572 846.872 3.514 847.616 6.42 848.36 10.193 849.848 19.817 854.312 52.823 855.056 56.999 855.8 60.37 856.544 62.823 857.288 64.279 858.032 64.687 858.776 64.036 859.52 62.347 860.264 59.675 861.008 56.109 862.496 46.791 864.728 29.788 866.216 18.602 867.704 9.258 868.448 5.673 869.192 2.981 869.936 1.269 870.68 .595 871.424 .981 872.168 2.414 872.912 4.847 873.656 8.199 874.4 12.359 875.888 22.532 879.608 50.467 880.352 54.997 881.096 58.787 881.84 61.713 882.584 63.677 883.328 64.615 884.072 64.495 884.816 63.321 885.56 61.133 886.304 58.003 887.048 54.033 888.536 44.127 892.256 16.048 893.744 7.367 894.488 4.214 895.232 2.001 895.976 .802 896.72 .655 897.464 1.567 898.208 3.506 898.952 6.409 899.696 10.179 901.184 19.799 905.648 52.808 906.392 56.987 907.136 60.36 907.88 62.817 908.624 64.275 909.368 64.688 910.112 64.04 910.856 62.354 911.6 59.685 912.344 56.122 913.832 46.809 916.064 29.808 917.552 18.619 919.04 9.271 919.784 5.684 920.528 2.988 921.272 1.273 922.016 .596 922.76 .978 923.504 2.408 924.248 4.837 924.992 8.186 925.736 12.344 927.224 22.513 930.944 50.451 931.688 54.983 932.432 58.776 933.176 61.705 933.92 63.672 934.664 64.613 935.408 64.497 936.152 63.327 936.896 61.142 937.64 58.015 938.384 54.048 939.872 44.145 943.592 16.065 945.08 7.379 945.824 4.223 946.568 2.007 947.312 .804 948.056 .654 948.8 1.562 949.544 3.498 950.288 6.397 951.032 10.165 952.52 19.781 956.984 52.793 957.728 56.974 958.472 60.35 959.216 62.81 959.96 64.272 960.704 64.688 961.448 64.044 962.192 62.361 962.936 59.696 963.68 56.135 965.168 46.826 967.4 29.827 968.888 18.637 970.376 9.284 971.12 5.694 971.864 2.996 972.608 1.277 973.352 .596 974.096 .975 974.84 2.401 975.584 4.828 976.328 8.174 977.072 12.329 978.56 22.495 982.28 50.435 983.024 54.969 983.768 58.765 984.512 61.697 985.256 63.667 986 64.612 986.744 64.499 987.488 63.333 988.232 61.151 988.976 58.027 989.72 54.062 991.208 44.163 994.928 16.081 996.416 7.391 997.16 4.232 997.904 2.013 998.648 .806 999.392 .653 1000.136 1.557 1000.88 3.49 1001.624 6.386 1002.368 10.151 1003.856 19.763 1008.32 52.778 1009.064 56.961 1009.808 60.341 1010.552 62.804 1011.296 64.269 1012.04 64.689 1012.784 64.048 1013.528 62.369 1014.272 59.706 1015.016 56.148 1016.504 46.844 1018.736 29.846 1020.224 18.655 1021.712 9.298 1022.456 5.705 1023.2 3.003 1023.944 1.281 1024.688 .597 1025.432 .972 1026.176 2.395 1026.92 4.818 1027.664 8.161 1028.408 12.314 1029.896 22.476 1033.616 50.418 1034.36 54.955 1035.104 58.753 1035.848 61.688 1036.592 63.662 1037.336 64.611 1038.08 64.501 1038.824 63.338 1039.568 61.16 1040.312 58.038 1041.056 54.077 1042.544 44.181 1046.264 16.098 1047.752 7.403 1048.496 4.241 1049.24 2.018 1049.984 .808 1050.728 .651 1051.472 1.552 1052.216 3.482 1052.96 6.375 1053.704 10.137 1055.192 19.745 1059.656 52.762 1060.4 56.949 1061.144 60.331 1061.888 62.797 1062.632 64.266 1063.376 64.689 1064.12 64.052 1064.864 62.376 1065.608 59.717 1066.352 56.162 1067.84 46.861 1070.072 29.866 1071.56 18.672 1073.048 9.311 1073.792 5.715 1074.536 3.011 1075.28 1.286 1076.024 .597 1076.768 .969 1077.512 2.388 1078.256 4.808 1079 8.148 1079.744 12.299 1081.232 22.458 1084.952 50.402 1085.696 54.941 1086.44 58.742 1087.184 61.68 1087.928 63.658 1088.672 64.609 1089.416 64.504 1090.16 63.344 1090.904 61.169 1091.648 58.05 1092.392 54.091 1093.88 44.199 1097.6 16.115 1099.088 7.415 1099.832 4.25 1100.576 2.024 1101.32 .811 1102.064 .65 1102.808 1.548 1103.552 3.473 1104.296 6.364 1105.04 10.123 1106.528 19.727 1110.992 52.747 1111.736 56.936 1112.48 60.321 1113.224 62.79 1113.968 64.263 1114.712 64.689 1115.456 64.056 1115.456 64.056" transform="translate(7 30)"/>
  </g>
</svg>
