<svg xmlns="http://www.w3.org/2000/svg" width="1117" height="37" viewBox="0 0 1117 37">
  <g fill="none" fill-rule="evenodd" transform="translate(-6 -44)">
    <polygon points="0 125.28 1130.4 125.28 1130.4 0 0 0"/>
    <polyline stroke="#FFF" stroke-linecap="square" points=".2 36.352 .944 35.791 1.688 34.622 2.432 32.888 3.176 30.648 4.664 24.988 8.384 8.951 9.128 6.333 9.872 4.152 10.616 2.483 11.36 1.387 12.104 .902 12.848 1.046 13.592 1.813 14.336 3.176 15.08 5.086 15.824 7.477 17.312 13.346 21.032 29.244 21.776 31.726 22.52 33.745 23.264 35.228 24.008 36.124 24.752 36.4 25.496 36.047 26.24 35.077 26.984 33.525 27.728 31.446 29.216 26.017 33.68 7.162 34.424 4.825 35.168 2.978 35.912 1.686 36.656 .995 37.4 .928 38.144 1.489 38.888 2.658 39.632 4.392 40.376 6.632 41.864 12.292 45.584 28.329 46.328 30.947 47.072 33.128 47.816 34.797 48.56 35.893 49.304 36.378 50.048 36.234 50.792 35.467 51.536 34.104 52.28 32.194 53.024 29.803 54.512 23.934 58.232 8.036 58.976 5.554 59.72 3.535 60.464 2.052 61.208 1.156 61.952 .88 62.696 1.233 63.44 2.203 64.184 3.755 64.928 5.834 66.416 11.263 70.88 30.118 71.624 32.455 72.368 34.302 73.112 35.594 73.856 36.285 74.6 36.352 75.344 35.791 76.088 34.622 76.832 32.888 77.576 30.648 79.064 24.988 82.784 8.951 83.528 6.333 84.272 4.152 85.016 2.483 85.76 1.387 86.504 .902 87.248 1.046 87.992 1.813 88.736 3.176 89.48 5.086 90.224 7.477 91.712 13.346 95.432 29.244 96.176 31.726 96.92 33.745 97.664 35.228 98.408 36.124 99.152 36.4 99.896 36.047 100.64 35.077 101.384 33.525 102.128 31.446 103.616 26.017 108.08 7.162 108.824 4.825 109.568 2.978 110.312 1.686 111.056 .995 111.8 .928 112.544 1.489 113.288 2.658 114.032 4.392 114.776 6.632 116.264 12.292 119.984 28.329 120.728 30.947 121.472 33.128 122.216 34.797 122.96 35.893 123.704 36.378 124.448 36.234 125.192 35.467 125.936 34.104 126.68 32.194 127.424 29.803 128.912 23.934 132.632 8.036 133.376 5.554 134.12 3.535 134.864 2.052 135.608 1.156 136.352 .88 137.096 1.233 137.84 2.203 138.584 3.755 139.328 5.834 140.816 11.263 145.28 30.118 146.024 32.455 146.768 34.302 147.512 35.594 148.256 36.285 149 36.352 149.744 35.791 150.488 34.622 151.232 32.888 151.976 30.648 153.464 24.988 157.184 8.951 157.928 6.333 158.672 4.152 159.416 2.483 160.16 1.387 160.904 .902 161.648 1.046 162.392 1.813 163.136 3.176 163.88 5.086 164.624 7.477 166.112 13.346 169.832 29.244 170.576 31.726 171.32 33.745 172.064 35.228 172.808 36.124 173.552 36.4 174.296 36.047 175.04 35.077 175.784 33.525 176.528 31.446 178.016 26.017 182.48 7.162 183.224 4.825 183.968 2.978 184.712 1.686 185.456 .995 186.2 .928 186.944 1.489 187.688 2.658 188.432 4.392 189.176 6.632 190.664 12.292 194.384 28.329 195.128 30.947 195.872 33.128 196.616 34.797 197.36 35.893 198.104 36.378 198.848 36.234 199.592 35.467 200.336 34.104 201.08 32.194 201.824 29.803 203.312 23.934 207.032 8.036 207.776 5.554 208.52 3.535 209.264 2.052 210.008 1.156 210.752 .88 211.496 1.233 212.24 2.203 212.984 3.755 213.728 5.834 215.216 11.263 219.68 30.118 220.424 32.455 221.168 34.302 221.912 35.594 222.656 36.285 223.4 36.352 224.144 35.791 224.888 34.622 225.632 32.888 226.376 30.648 227.864 24.988 231.584 8.951 232.328 6.333 233.072 4.152 233.816 2.483 234.56 1.387 235.304 .902 236.048 1.046 236.792 1.813 237.536 3.176 238.28 5.086 239.024 7.477 240.512 13.346 244.232 29.244 244.976 31.726 245.72 33.745 246.464 35.228 247.208 36.124 247.952 36.4 248.696 36.047 249.44 35.077 250.184 33.525 250.928 31.446 252.416 26.017 256.88 7.162 257.624 4.825 258.368 2.978 259.112 1.686 259.856 .995 260.6 .928 261.344 1.489 262.088 2.658 262.832 4.392 263.576 6.632 265.064 12.292 268.784 28.329 269.528 30.947 270.272 33.128 271.016 34.797 271.76 35.893 272.504 36.378 273.248 36.234 273.992 35.467 274.736 34.104 275.48 32.194 276.224 29.803 277.712 23.934 281.432 8.036 282.176 5.554 282.92 3.535 283.664 2.052 284.408 1.156 285.152 .88 285.896 1.233 286.64 2.203 287.384 3.755 288.128 5.834 289.616 11.263 294.08 30.118 294.824 32.455 295.568 34.302 296.312 35.594 297.056 36.285 297.8 36.352 298.544 35.791 299.288 34.622 300.032 32.888 300.776 30.648 302.264 24.988 305.984 8.951 306.728 6.333 307.472 4.152 308.216 2.483 308.96 1.387 309.704 .902 310.448 1.046 311.192 1.813 311.936 3.176 312.68 5.086 313.424 7.477 314.912 13.346 318.632 29.244 319.376 31.726 320.12 33.745 320.864 35.228 321.608 36.124 322.352 36.4 323.096 36.047 323.84 35.077 324.584 33.525 325.328 31.446 326.816 26.017 331.28 7.162 332.024 4.825 332.768 2.978 333.512 1.686 334.256 .995 335 .928 335.744 1.489 336.488 2.658 337.232 4.392 337.976 6.632 339.464 12.292 343.184 28.329 343.928 30.947 344.672 33.128 345.416 34.797 346.16 35.893 346.904 36.378 347.648 36.234 348.392 35.467 349.136 34.104 349.88 32.194 350.624 29.803 352.112 23.934 355.832 8.036 356.576 5.554 357.32 3.535 358.064 2.052 358.808 1.156 359.552 .88 360.296 1.233 361.04 2.203 361.784 3.755 362.528 5.834 364.016 11.263 368.48 30.118 369.224 32.455 369.968 34.302 370.712 35.594 371.456 36.285 372.2 36.352 372.944 35.791 373.688 34.622 374.432 32.888 375.176 30.648 376.664 24.988 380.384 8.951 381.128 6.333 381.872 4.152 382.616 2.483 383.36 1.387 384.104 .902 384.848 1.046 385.592 1.813 386.336 3.176 387.08 5.086 387.824 7.477 389.312 13.346 393.032 29.244 393.776 31.726 394.52 33.745 395.264 35.228 396.008 36.124 396.752 36.4 397.496 36.047 398.24 35.077 398.984 33.525 399.728 31.446 401.216 26.017 405.68 7.162 406.424 4.825 407.168 2.978 407.912 1.686 408.656 .995 409.4 .928 410.144 1.489 410.888 2.658 411.632 4.392 412.376 6.632 413.864 12.292 417.584 28.329 418.328 30.947 419.072 33.128 419.816 34.797 420.56 35.893 421.304 36.378 422.048 36.234 422.792 35.467 423.536 34.104 424.28 32.194 425.024 29.803 426.512 23.934 430.232 8.036 430.976 5.554 431.72 3.535 432.464 2.052 433.208 1.156 433.952 .88 434.696 1.233 435.44 2.203 436.184 3.755 436.928 5.834 438.416 11.263 442.88 30.118 443.624 32.455 444.368 34.302 445.112 35.594 445.856 36.285 446.6 36.352 447.344 35.791 448.088 34.622 448.832 32.888 449.576 30.648 451.064 24.988 454.784 8.951 455.528 6.333 456.272 4.152 457.016 2.483 457.76 1.387 458.504 .902 459.248 1.046 459.992 1.813 460.736 3.176 461.48 5.086 462.224 7.477 463.712 13.346 467.432 29.244 468.176 31.726 468.92 33.745 469.664 35.228 470.408 36.124 471.152 36.4 471.896 36.047 472.64 35.077 473.384 33.525 474.128 31.446 475.616 26.017 480.08 7.162 480.824 4.825 481.568 2.978 482.312 1.686 483.056 .995 483.8 .928 484.544 1.489 485.288 2.658 486.032 4.392 486.776 6.632 488.264 12.292 491.984 28.329 492.728 30.947 493.472 33.128 494.216 34.797 494.96 35.893 495.704 36.378 496.448 36.234 497.192 35.467 497.936 34.104 498.68 32.194 499.424 29.803 500.912 23.934 504.632 8.036 505.376 5.554 506.12 3.535 506.864 2.052 507.608 1.156 508.352 .88 509.096 1.233 509.84 2.203 510.584 3.755 511.328 5.834 512.816 11.263 517.28 30.118 518.024 32.455 518.768 34.302 519.512 35.594 520.256 36.285 521 36.352 521.744 35.791 522.488 34.622 523.232 32.888 523.976 30.648 525.464 24.988 529.184 8.951 529.928 6.333 530.672 4.152 531.416 2.483 532.16 1.387 532.904 .902 533.648 1.046 534.392 1.813 535.136 3.176 535.88 5.086 536.624 7.477 538.112 13.346 541.832 29.244 542.576 31.726 543.32 33.745 544.064 35.228 544.808 36.124 545.552 36.4 546.296 36.047 547.04 35.077 547.784 33.525 548.528 31.446 550.016 26.017 554.48 7.162 555.224 4.825 555.968 2.978 556.712 1.686 557.456 .995 558.2 .928 558.944 1.489 559.688 2.658 560.432 4.392 561.176 6.632 562.664 12.292 566.384 28.329 567.128 30.947 567.872 33.128 568.616 34.797 569.36 35.893 570.104 36.378 570.848 36.234 571.592 35.467 572.336 34.104 573.08 32.194 573.824 29.803 575.312 23.934 579.032 8.036 579.776 5.554 580.52 3.535 581.264 2.052 582.008 1.156 582.752 .88 583.496 1.233 584.24 2.203 584.984 3.755 585.728 5.834 587.216 11.263 591.68 30.118 592.424 32.455 593.168 34.302 593.912 35.594 594.656 36.285 595.4 36.352 596.144 35.791 596.888 34.622 597.632 32.888 598.376 30.648 599.864 24.988 603.584 8.951 604.328 6.333 605.072 4.152 605.816 2.483 606.56 1.387 607.304 .902 608.048 1.046 608.792 1.813 609.536 3.176 610.28 5.086 611.024 7.477 612.512 13.346 616.232 29.244 616.976 31.726 617.72 33.745 618.464 35.228 619.208 36.124 619.952 36.4 620.696 36.047 621.44 35.077 622.184 33.525 622.928 31.446 624.416 26.017 628.88 7.162 629.624 4.825 630.368 2.978 631.112 1.686 631.856 .995 632.6 .928 633.344 1.489 634.088 2.658 634.832 4.392 635.576 6.632 637.064 12.292 640.784 28.329 641.528 30.947 642.272 33.128 643.016 34.797 643.76 35.893 644.504 36.378 645.248 36.234 645.992 35.467 646.736 34.104 647.48 32.194 648.224 29.803 649.712 23.934 653.432 8.036 654.176 5.554 654.92 3.535 655.664 2.052 656.408 1.156 657.152 .88 657.896 1.233 658.64 2.203 659.384 3.755 660.128 5.834 661.616 11.263 666.08 30.118 666.824 32.455 667.568 34.302 668.312 35.594 669.056 36.285 669.8 36.352 670.544 35.791 671.288 34.622 672.032 32.888 672.776 30.648 674.264 24.988 677.984 8.951 678.728 6.333 679.472 4.152 680.216 2.483 680.96 1.387 681.704 .902 682.448 1.046 683.192 1.813 683.936 3.176 684.68 5.086 685.424 7.477 686.912 13.346 690.632 29.244 691.376 31.726 692.12 33.745 692.864 35.228 693.608 36.124 694.352 36.4 695.096 36.047 695.84 35.077 696.584 33.525 697.328 31.446 698.816 26.017 703.28 7.162 704.024 4.825 704.768 2.978 705.512 1.686 706.256 .995 707 .928 707.744 1.489 708.488 2.658 709.232 4.392 709.976 6.632 711.464 12.292 715.184 28.329 715.928 30.947 716.672 33.128 717.416 34.797 718.16 35.893 718.904 36.378 719.648 36.234 720.392 35.467 721.136 34.104 721.88 32.194 722.624 29.803 724.112 23.934 727.832 8.036 728.576 5.554 729.32 3.535 730.064 2.052 730.808 1.156 731.552 .88 732.296 1.233 733.04 2.203 733.784 3.755 734.528 5.834 736.016 11.263 740.48 30.118 741.224 32.455 741.968 34.302 742.712 35.594 743.456 36.285 744.2 36.352 744.944 35.791 745.688 34.622 746.432 32.888 747.176 30.648 748.664 24.988 752.384 8.951 753.128 6.333 753.872 4.152 754.616 2.483 755.36 1.387 756.104 .902 756.848 1.046 757.592 1.813 758.336 3.176 759.08 5.086 759.824 7.477 761.312 13.346 765.032 29.244 765.776 31.726 766.52 33.745 767.264 35.228 768.008 36.124 768.752 36.4 769.496 36.047 770.24 35.077 770.984 33.525 771.728 31.446 773.216 26.017 777.68 7.162 778.424 4.825 779.168 2.978 779.912 1.686 780.656 .995 781.4 .928 782.144 1.489 782.888 2.658 783.632 4.392 784.376 6.632 785.864 12.292 789.584 28.329 790.328 30.947 791.072 33.128 791.816 34.797 792.56 35.893 793.304 36.378 794.048 36.234 794.792 35.467 795.536 34.104 796.28 32.194 797.024 29.803 798.512 23.934 802.232 8.036 802.976 5.554 803.72 3.535 804.464 2.052 805.208 1.156 805.952 .88 806.696 1.233 807.44 2.203 808.184 3.755 808.928 5.834 810.416 11.263 814.88 30.118 815.624 32.455 816.368 34.302 817.112 35.594 817.856 36.285 818.6 36.352 819.344 35.791 820.088 34.622 820.832 32.888 821.576 30.648 823.064 24.988 826.784 8.951 827.528 6.333 828.272 4.152 829.016 2.483 829.76 1.387 830.504 .902 831.248 1.046 831.992 1.813 832.736 3.176 833.48 5.086 834.224 7.477 835.712 13.346 839.432 29.244 840.176 31.726 840.92 33.745 841.664 35.228 842.408 36.124 843.152 36.4 843.896 36.047 844.64 35.077 845.384 33.525 846.128 31.446 847.616 26.017 852.08 7.162 852.824 4.825 853.568 2.978 854.312 1.686 855.056 .995 855.8 .928 856.544 1.489 857.288 2.658 858.032 4.392 858.776 6.632 860.264 12.292 863.984 28.329 864.728 30.947 865.472 33.128 866.216 34.797 866.96 35.893 867.704 36.378 868.448 36.234 869.192 35.467 869.936 34.104 870.68 32.194 871.424 29.803 872.912 23.934 876.632 8.036 877.376 5.554 878.12 3.535 878.864 2.052 879.608 1.156 880.352 .88 881.096 1.233 881.84 2.203 882.584 3.755 883.328 5.834 884.816 11.263 889.28 30.118 890.024 32.455 890.768 34.302 891.512 35.594 892.256 36.285 893 36.352 893.744 35.791 894.488 34.622 895.232 32.888 895.976 30.648 897.464 24.988 901.184 8.951 901.928 6.333 902.672 4.152 903.416 2.483 904.16 1.387 904.904 .902 905.648 1.046 906.392 1.813 907.136 3.176 907.88 5.086 908.624 7.477 910.112 13.346 913.832 29.244 914.576 31.726 915.32 33.745 916.064 35.228 916.808 36.124 917.552 36.4 918.296 36.047 919.04 35.077 919.784 33.525 920.528 31.446 922.016 26.017 926.48 7.162 927.224 4.825 927.968 2.978 928.712 1.686 929.456 .995 930.2 .928 930.944 1.489 931.688 2.658 932.432 4.392 933.176 6.632 934.664 12.292 938.384 28.329 939.128 30.947 939.872 33.128 940.616 34.797 941.36 35.893 942.104 36.378 942.848 36.234 943.592 35.467 944.336 34.104 945.08 32.194 945.824 29.803 947.312 23.934 951.032 8.036 951.776 5.554 952.52 3.535 953.264 2.052 954.008 1.156 954.752 .88 955.496 1.233 956.24 2.203 956.984 3.755 957.728 5.834 959.216 11.263 963.68 30.118 964.424 32.455 965.168 34.302 965.912 35.594 966.656 36.285 967.4 36.352 968.144 35.791 968.888 34.622 969.632 32.888 970.376 30.648 971.864 24.988 975.584 8.951 976.328 6.333 977.072 4.152 977.816 2.483 978.56 1.387 979.304 .902 980.048 1.046 980.792 1.813 981.536 3.176 982.28 5.086 983.024 7.477 984.512 13.346 988.232 29.244 988.976 31.726 989.72 33.745 990.464 35.228 991.208 36.124 991.952 36.4 992.696 36.047 993.44 35.077 994.184 33.525 994.928 31.446 996.416 26.017 1000.88 7.162 1001.624 4.825 1002.368 2.978 1003.112 1.686 1003.856 .995 1004.6 .928 1005.344 1.489 1006.088 2.658 1006.832 4.392 1007.576 6.632 1009.064 12.292 1012.784 28.329 1013.528 30.947 1014.272 33.128 1015.016 34.797 1015.76 35.893 1016.504 36.378 1017.248 36.234 1017.992 35.467 1018.736 34.104 1019.48 32.194 1020.224 29.803 1021.712 23.934 1025.432 8.036 1026.176 5.554 1026.92 3.535 1027.664 2.052 1028.408 1.156 1029.152 .88 1029.896 1.233 1030.64 2.203 1031.384 3.755 1032.128 5.834 1033.616 11.263 1038.08 30.118 1038.824 32.455 1039.568 34.302 1040.312 35.594 1041.056 36.285 1041.8 36.352 1042.544 35.791 1043.288 34.622 1044.032 32.888 1044.776 30.648 1046.264 24.988 1049.984 8.951 1050.728 6.333 1051.472 4.152 1052.216 2.483 1052.96 1.387 1053.704 .902 1054.448 1.046 1055.192 1.813 1055.936 3.176 1056.68 5.086 1057.424 7.477 1058.912 13.346 1062.632 29.244 1063.376 31.726 1064.12 33.745 1064.864 35.228 1065.608 36.124 1066.352 36.4 1067.096 36.047 1067.84 35.077 1068.584 33.525 1069.328 31.446 1070.816 26.017 1075.28 7.162 1076.024 4.825 1076.768 2.978 1077.512 1.686 1078.256 .995 1079 .928 1079.744 1.489 1080.488 2.658 1081.232 4.392 1081.976 6.632 1083.464 12.292 1087.184 28.329 1087.928 30.947 1088.672 33.128 1089.416 34.797 1090.16 35.893 1090.904 36.378 1091.648 36.234 1092.392 35.467 1093.136 34.104 1093.88 32.194 1094.624 29.803 1096.112 23.934 1099.832 8.036 1100.576 5.554 1101.32 3.535 1102.064 2.052 1102.808 1.156 1103.552 .88 1104.296 1.233 1105.04 2.203 1105.784 3.755 1106.528 5.834 1108.016 11.263 1112.48 30.118 1113.224 32.455 1113.968 34.302 1114.712 35.594 1115.456 36.285 1115.456 36.285" transform="translate(7 44)"/>
  </g>
</svg>
