<svg xmlns="http://www.w3.org/2000/svg" width="1116" height="14" viewBox="0 0 1116 14">
  <g fill="none" fill-rule="evenodd" transform="translate(-7 -56)">
    <polygon points="0 125.28 1130.4 125.28 1130.4 0 0 0"/>
    <polyline stroke="#FFF" stroke-linecap="square" points=".2 .594 .944 .598 1.688 .796 2.432 1.179 3.176 1.736 4.664 3.296 6.152 5.279 9.128 9.488 10.616 11.183 11.36 11.825 12.104 12.303 12.848 12.6 13.592 12.708 14.336 12.622 15.08 12.346 15.824 11.888 16.568 11.263 18.056 9.596 20.288 6.474 22.52 3.399 24.008 1.809 24.752 1.233 25.496 .83 26.24 .611 26.984 .585 27.728 .751 28.472 1.105 29.216 1.635 30.704 3.151 32.192 5.108 35.912 10.256 37.4 11.732 38.144 12.238 38.888 12.565 39.632 12.704 40.376 12.649 41.12 12.403 41.864 11.974 42.608 11.375 44.096 9.748 46.328 6.65 48.56 3.549 50.048 1.918 50.792 1.315 51.536 .883 52.28 .634 53.024 .576 53.768 .711 54.512 1.035 55.256 1.537 56.744 3.009 58.232 4.939 61.952 10.113 63.44 11.634 64.184 12.167 64.928 12.524 65.672 12.694 66.416 12.671 67.16 12.456 67.904 12.055 68.648 11.483 70.136 9.897 71.624 7.901 74.6 3.702 76.088 2.03 76.832 1.402 77.576 .941 78.32 .661 79.064 .572 79.808 .676 80.552 .97 81.296 1.444 82.784 2.869 84.272 4.771 87.992 9.967 89.48 11.532 90.224 12.093 90.968 12.479 91.712 12.68 92.456 12.688 93.2 12.504 93.944 12.132 94.688 11.586 96.176 10.044 97.664 8.072 100.64 3.856 102.128 2.146 102.872 1.493 103.616 1.004 104.36 .694 105.104 .573 105.848 .646 106.592 .91 107.336 1.356 108.08 1.97 109.568 3.621 111.8 6.733 114.032 9.819 115.52 11.426 116.264 12.013 117.008 12.429 117.752 12.66 118.496 12.7 119.24 12.546 119.984 12.205 120.728 11.686 122.216 10.188 123.704 8.242 127.424 3.083 128.912 1.588 129.656 1.071 130.4 .731 131.144 .58 131.888 .621 132.632 .854 133.376 1.272 134.12 1.86 135.608 3.47 137.84 6.557 140.072 9.668 141.56 11.316 142.304 11.929 143.048 12.374 143.792 12.636 144.536 12.706 145.28 12.584 146.024 12.273 146.768 11.782 148.256 10.329 149.744 8.411 153.464 3.227 154.952 1.688 155.696 1.143 156.44 .774 157.184 .591 157.928 .601 158.672 .804 159.416 1.192 160.16 1.754 161.648 3.321 163.136 5.308 166.112 9.514 167.6 11.202 168.344 11.841 169.088 12.314 169.832 12.606 170.576 12.708 171.32 12.617 172.064 12.336 172.808 11.873 173.552 11.243 175.04 9.569 177.272 6.444 179.504 3.374 180.992 1.791 181.736 1.22 182.48 .821 183.224 .608 183.968 .587 184.712 .758 185.456 1.117 186.2 1.652 187.688 3.176 189.176 5.137 192.152 9.358 193.64 11.085 194.384 11.748 195.128 12.249 195.872 12.571 196.616 12.705 197.36 12.645 198.104 12.394 198.848 11.96 199.592 11.356 201.08 9.722 203.312 6.62 205.544 3.523 207.032 1.899 207.776 1.301 208.52 .874 209.264 .629 210.008 .577 210.752 .717 211.496 1.046 212.24 1.554 213.728 3.033 215.216 4.968 218.936 10.137 220.424 11.651 221.168 12.18 221.912 12.532 222.656 12.696 223.4 12.668 224.144 12.447 224.888 12.042 225.632 11.465 227.12 9.872 228.608 7.871 231.584 3.675 233.072 2.011 233.816 1.387 234.56 .931 235.304 .656 236.048 .572 236.792 .682 237.536 .981 238.28 1.46 239.768 2.893 241.256 4.799 244.976 9.992 246.464 11.55 247.208 12.106 247.952 12.487 248.696 12.682 249.44 12.685 250.184 12.496 250.928 12.12 251.672 11.569 253.16 10.02 254.648 8.043 257.624 3.83 259.112 2.126 259.856 1.477 260.6 .993 261.344 .688 262.088 .573 262.832 .651 263.576 .92 264.32 1.371 265.064 1.989 266.552 3.647 268.784 6.763 271.016 9.844 272.504 11.445 273.248 12.027 273.992 12.438 274.736 12.664 275.48 12.698 276.224 12.539 276.968 12.193 277.712 11.67 279.2 10.164 280.688 8.213 284.408 3.059 285.896 1.572 286.64 1.059 287.384 .725 288.128 .578 288.872 .625 289.616 .863 290.36 1.286 291.104 1.878 292.592 3.495 294.824 6.587 297.056 9.694 298.544 11.335 299.288 11.944 300.032 12.383 300.776 12.64 301.52 12.706 302.264 12.578 303.008 12.261 303.752 11.766 305.24 10.306 306.728 8.382 310.448 3.203 311.936 1.67 312.68 1.131 313.424 .766 314.168 .589 314.912 .604 315.656 .812 316.4 1.205 317.144 1.772 318.632 3.346 320.12 5.337 323.096 9.541 324.584 11.222 325.328 11.856 326.072 12.324 326.816 12.611 327.56 12.708 328.304 12.612 329.048 12.325 329.792 11.858 330.536 11.224 332.024 9.543 334.256 6.414 336.488 3.349 337.976 1.773 338.72 1.207 339.464 .813 340.208 .605 340.952 .589 341.696 .765 342.44 1.129 343.184 1.669 344.672 3.2 346.16 5.166 349.136 9.385 350.624 11.105 351.368 11.764 352.112 12.26 352.856 12.577 353.6 12.706 354.344 12.64 355.088 12.384 355.832 11.945 356.576 11.337 358.064 9.696 360.296 6.59 362.528 3.498 364.016 1.88 364.76 1.287 365.504 .864 366.248 .625 366.992 .578 367.736 .724 368.48 1.058 369.224 1.57 370.712 3.057 372.2 4.996 375.92 10.162 377.408 11.668 378.152 12.192 378.896 12.539 379.64 12.698 380.384 12.664 381.128 12.439 381.872 12.028 382.616 11.446 384.104 9.847 386.336 6.766 388.568 3.649 390.056 1.991 390.8 1.372 391.544 .921 392.288 .651 393.032 .573 393.776 .687 394.52 .991 395.264 1.476 396.752 2.916 398.24 4.828 401.96 10.017 403.448 11.567 404.192 12.118 404.936 12.495 405.68 12.685 406.424 12.683 407.168 12.488 407.912 12.107 408.656 11.552 410.144 9.995 411.632 8.014 414.608 3.804 416.096 2.106 416.84 1.461 417.584 .982 418.328 .682 419.072 .572 419.816 .656 420.56 .93 421.304 1.385 422.048 2.009 423.536 3.673 425.768 6.793 428 9.87 429.488 11.463 430.232 12.041 430.976 12.446 431.72 12.667 432.464 12.696 433.208 12.532 433.952 12.181 434.696 11.653 436.184 10.14 437.672 8.184 441.392 3.035 442.88 1.555 443.624 1.048 444.368 .718 445.112 .577 445.856 .629 446.6 .873 447.344 1.3 448.088 1.897 449.576 3.521 451.808 6.617 454.04 9.72 455.528 11.354 456.272 11.958 457.016 12.393 457.76 12.644 458.504 12.705 459.248 12.572 459.992 12.25 460.736 11.75 462.224 10.282 463.712 8.354 467.432 3.178 468.92 1.653 469.664 1.118 470.408 .759 471.152 .587 471.896 .608 472.64 .82 473.384 1.219 474.128 1.789 475.616 3.371 477.104 5.366 480.08 9.567 481.568 11.241 482.312 11.871 483.056 12.335 483.8 12.617 484.544 12.708 485.288 12.606 486.032 12.315 486.776 11.842 488.264 10.421 489.752 8.522 493.472 3.324 494.96 1.756 495.704 1.193 496.448 .805 497.192 .602 497.936 .591 498.68 .773 499.424 1.142 500.168 1.686 501.656 3.225 503.144 5.195 506.12 9.412 507.608 11.125 508.352 11.78 509.096 12.272 509.84 12.584 510.584 12.706 511.328 12.636 512.072 12.375 512.816 11.931 513.56 11.318 515.048 9.671 517.28 6.56 519.512 3.472 521 1.862 521.744 1.273 522.488 .855 523.232 .622 523.976 .58 524.72 .731 525.464 1.07 526.208 1.586 527.696 3.081 529.184 5.025 532.904 10.186 534.392 11.685 535.136 12.204 535.88 12.546 536.624 12.7 537.368 12.66 538.112 12.43 538.856 12.014 539.6 11.428 541.088 9.822 543.32 6.736 545.552 3.623 547.04 1.972 547.784 1.357 548.528 .911 549.272 .647 550.016 .573 550.76 .693 551.504 1.002 552.248 1.491 553.736 2.94 555.224 4.856 558.944 10.042 560.432 11.585 561.176 12.131 561.92 12.503 562.664 12.688 563.408 12.68 564.152 12.48 564.896 12.094 565.64 11.534 567.128 9.97 568.616 7.985 571.592 3.777 573.08 2.086 573.824 1.446 574.568 .971 575.312 .677 576.056 .572 576.8 .661 577.544 .94 578.288 1.4 579.032 2.028 580.52 3.699 582.752 6.823 584.984 9.895 586.472 11.481 587.216 12.054 587.96 12.455 588.704 12.671 589.448 12.694 590.192 12.525 590.936 12.169 591.68 11.636 593.168 10.115 594.656 8.156 597.632 3.933 599.12 2.204 599.864 1.539 600.608 1.036 601.352 .712 602.096 .576 602.84 .633 603.584 .882 604.328 1.314 605.072 1.916 606.56 3.546 608.792 6.647 611.024 9.745 612.512 11.373 613.256 11.973 614 12.402 614.744 12.649 615.488 12.704 616.232 12.566 616.976 12.239 617.72 11.734 619.208 10.258 620.696 8.325 624.416 3.153 625.904 1.636 626.648 1.106 627.392 .752 628.136 .585 628.88 .611 629.624 .829 630.368 1.232 631.112 1.807 632.6 3.397 634.088 5.396 637.064 9.593 638.552 11.261 639.296 11.886 640.04 12.345 640.784 12.622 641.528 12.708 642.272 12.601 643.016 12.304 643.76 11.827 645.248 10.397 646.736 8.493 650.456 3.299 651.944 1.738 652.688 1.18 653.432 .796 654.176 .599 654.92 .593 655.664 .781 656.408 1.155 657.152 1.703 658.64 3.249 660.128 5.224 663.104 9.438 664.592 11.145 665.336 11.796 666.08 12.283 666.824 12.59 667.568 12.707 668.312 12.631 669.056 12.365 669.8 11.916 670.544 11.299 672.032 9.645 674.264 6.53 676.496 3.447 677.984 1.843 678.728 1.259 679.472 .846 680.216 .618 680.96 .581 681.704 .737 682.448 1.082 683.192 1.603 684.68 3.105 686.168 5.054 689.888 10.21 691.376 11.701 692.12 12.216 692.864 12.552 693.608 12.701 694.352 12.657 695.096 12.421 695.84 12.001 696.584 11.41 698.072 9.796 700.304 6.706 702.536 3.598 704.024 1.953 704.768 1.343 705.512 .901 706.256 .642 707 .574 707.744 .699 708.488 1.014 709.232 1.507 710.72 2.964 712.208 4.885 715.928 10.067 717.416 11.602 718.16 12.144 718.904 12.51 719.648 12.69 720.392 12.677 721.136 12.472 721.88 12.081 722.624 11.516 724.112 9.945 725.6 7.956 728.576 3.751 730.064 2.067 730.808 1.431 731.552 .96 732.296 .671 733.04 .572 733.784 .666 734.528 .95 735.272 1.416 736.016 2.047 737.504 3.725 739.736 6.852 741.968 9.92 743.456 11.499 744.2 12.068 744.944 12.463 745.688 12.674 746.432 12.692 747.176 12.518 747.92 12.156 748.664 11.619 750.152 10.091 751.64 8.127 754.616 3.907 756.104 2.184 756.848 1.523 757.592 1.025 758.336 .705 759.08 .575 759.824 .638 760.568 .891 761.312 1.328 762.056 1.934 763.544 3.572 765.776 6.677 768.008 9.771 769.496 11.391 770.24 11.987 770.984 12.412 771.728 12.653 772.472 12.702 773.216 12.559 773.96 12.227 774.704 11.717 776.192 10.234 777.68 8.296 781.4 3.129 782.888 1.62 783.632 1.094 784.376 .744 785.12 .583 785.864 .614 786.608 .838 787.352 1.246 788.096 1.826 789.584 3.422 791.072 5.425 794.048 9.619 795.536 11.28 796.28 11.901 797.024 12.355 797.768 12.627 798.512 12.708 799.256 12.595 800 12.293 800.744 11.811 802.232 10.374 803.72 8.465 807.44 3.274 808.928 1.72 809.672 1.167 810.416 .788 811.16 .596 811.904 .596 812.648 .789 813.392 1.167 814.136 1.721 815.624 3.274 817.112 5.253 820.088 9.465 821.576 11.165 822.32 11.812 823.064 12.293 823.808 12.595 824.552 12.708 825.296 12.626 826.04 12.355 826.784 11.901 827.528 11.28 829.016 9.619 831.248 6.501 833.48 3.422 834.968 1.825 835.712 1.245 836.456 .837 837.2 .614 837.944 .583 838.688 .744 839.432 1.094 840.176 1.62 841.664 3.129 843.152 5.083 846.872 10.234 848.36 11.717 849.104 12.227 849.848 12.559 850.592 12.702 851.336 12.653 852.08 12.412 852.824 11.987 853.568 11.391 855.056 9.771 857.288 6.676 859.52 3.572 861.008 1.934 861.752 1.328 862.496 .891 863.24 .637 863.984 .575 864.728 .705 865.472 1.025 866.216 1.523 867.704 2.988 869.192 4.914 872.912 10.091 874.4 11.619 875.144 12.156 875.888 12.518 876.632 12.692 877.376 12.674 878.12 12.463 878.864 12.067 879.608 11.499 881.096 9.92 882.584 7.927 885.56 3.725 887.048 2.047 887.792 1.415 888.536 .95 889.28 .666 890.024 .572 890.768 .671 891.512 .961 892.256 1.431 893.744 2.849 895.232 4.746 898.952 9.945 900.44 11.517 901.184 12.081 901.928 12.472 902.672 12.677 903.416 12.69 904.16 12.51 904.904 12.144 905.648 11.602 907.136 10.066 908.624 8.098 911.6 3.88 913.088 2.164 913.832 1.507 914.576 1.013 915.32 .699 916.064 .574 916.808 .642 917.552 .901 918.296 1.343 919.04 1.953 920.528 3.598 922.76 6.707 924.992 9.796 926.48 11.41 927.224 12.001 927.968 12.421 928.712 12.657 929.456 12.701 930.2 12.552 930.944 12.215 931.688 11.701 933.176 10.21 934.664 8.268 938.384 3.105 939.872 1.603 940.616 1.082 941.36 .737 942.104 .581 942.848 .618 943.592 .846 944.336 1.259 945.08 1.844 946.568 3.447 948.8 6.531 951.032 9.645 952.52 11.299 953.264 11.916 954.008 12.365 954.752 12.631 955.496 12.707 956.24 12.589 956.984 12.282 957.728 11.796 959.216 10.35 960.704 8.436 964.424 3.249 965.912 1.703 966.656 1.154 967.4 .781 968.144 .593 968.888 .599 969.632 .797 970.376 1.18 971.12 1.738 972.608 3.299 974.096 5.282 977.072 9.491 978.56 11.185 979.304 11.827 980.048 12.304 980.792 12.601 981.536 12.708 982.28 12.622 983.024 12.345 983.768 11.886 984.512 11.261 986 9.593 988.232 6.471 990.464 3.396 991.952 1.807 992.696 1.232 993.44 .829 994.184 .611 994.928 .585 995.672 .752 996.416 1.106 997.16 1.637 998.648 3.154 1000.136 5.112 1003.856 10.258 1005.344 11.734 1006.088 12.239 1006.832 12.566 1007.576 12.704 1008.32 12.649 1009.064 12.402 1009.808 11.972 1010.552 11.373 1012.04 9.745 1014.272 6.646 1016.504 3.546 1017.992 1.915 1018.736 1.314 1019.48 .882 1020.224 .633 1020.968 .576 1021.712 .712 1022.456 1.036 1023.2 1.539 1024.688 3.011 1026.176 4.942 1029.896 10.116 1031.384 11.636 1032.128 12.169 1032.872 12.525 1033.616 12.694 1034.36 12.671 1035.104 12.455 1035.848 12.054 1036.592 11.481 1038.08 9.895 1039.568 7.897 1042.544 3.699 1044.032 2.028 1044.776 1.4 1045.52 .94 1046.264 .661 1047.008 .572 1047.752 .677 1048.496 .971 1049.24 1.446 1050.728 2.872 1052.216 4.774 1055.936 9.97 1057.424 11.534 1058.168 12.094 1058.912 12.48 1059.656 12.68 1060.4 12.688 1061.144 12.503 1061.888 12.131 1062.632 11.585 1064.12 10.042 1065.608 8.069 1068.584 3.854 1070.072 2.144 1070.816 1.491 1071.56 1.002 1072.304 .693 1073.048 .573 1073.792 .647 1074.536 .911 1075.28 1.358 1076.024 1.972 1077.512 3.624 1079.744 6.736 1081.976 9.822 1083.464 11.428 1084.208 12.015 1084.952 12.43 1085.696 12.661 1086.44 12.7 1087.184 12.546 1087.928 12.204 1088.672 11.684 1090.16 10.186 1091.648 8.239 1095.368 3.081 1096.856 1.586 1097.6 1.07 1098.344 .731 1099.088 .58 1099.832 .622 1100.576 .855 1101.32 1.273 1102.064 1.862 1103.552 3.473 1105.784 6.561 1108.016 9.671 1109.504 11.318 1110.248 11.931 1110.992 12.375 1111.736 12.636 1112.48 12.706 1113.224 12.584 1113.968 12.271 1114.712 11.78 1115.456 11.125 1115.456 11.125" transform="translate(7 56)"/>
  </g>
</svg>
