<svg xmlns="http://www.w3.org/2000/svg" width="1116" height="5" viewBox="0 0 1116 5">
  <g fill="none" fill-rule="evenodd" transform="translate(-7 -60)">
    <polygon points="0 125.28 1130.4 125.28 1130.4 0 0 0"/>
    <polyline stroke="#FFF" stroke-linecap="square" points=".2 2.849 1.688 2.776 3.92 2.377 6.896 1.522 9.872 .731 11.36 .501 12.848 .431 14.336 .53 16.568 .96 23.264 2.717 24.752 2.844 26.24 2.803 28.472 2.444 31.448 1.608 34.424 .79 36.656 .461 38.144 .444 39.632 .594 41.864 1.082 47.816 2.674 49.304 2.833 50.792 2.823 52.28 2.649 54.512 2.135 59.72 .695 61.208 .484 62.696 .434 64.184 .553 66.416 1.006 73.112 2.741 74.6 2.848 76.088 2.786 78.32 2.402 81.296 1.553 84.272 .752 86.504 .45 87.992 .453 89.48 .623 91.712 1.131 96.92 2.575 98.408 2.792 99.896 2.847 101.384 2.733 103.616 2.287 110.312 .546 111.8 .433 113.288 .489 115.52 .866 118.496 1.711 121.472 2.518 123.704 2.827 125.192 2.83 126.68 2.666 128.912 2.163 134.12 .715 135.608 .493 137.096 .432 138.584 .54 140.816 .98 147.512 2.727 149 2.846 150.488 2.796 152.72 2.426 155.696 1.584 158.672 .773 160.904 .456 162.392 .448 163.88 .606 166.112 1.103 172.064 2.687 173.552 2.836 175.04 2.818 176.528 2.635 178.76 2.113 183.968 .681 185.456 .477 186.944 .436 188.432 .564 190.664 1.027 196.616 2.641 198.104 2.82 199.592 2.835 201.08 2.682 203.312 2.191 209.264 .601 210.752 .446 212.24 .458 213.728 .636 215.96 1.153 221.168 2.59 222.656 2.799 224.144 2.845 225.632 2.723 227.864 2.266 234.56 .536 236.048 .432 237.536 .496 239.768 .885 242.744 1.735 245.72 2.534 247.952 2.831 249.44 2.825 250.928 2.653 253.16 2.142 258.368 .7 259.856 .486 261.344 .434 262.832 .55 265.064 1 271.76 2.737 273.248 2.848 274.736 2.789 276.968 2.407 279.944 1.56 282.92 .757 285.152 .452 286.64 .452 288.128 .619 290.36 1.124 295.568 2.57 297.056 2.789 298.544 2.847 300.032 2.737 302.264 2.293 308.96 .549 310.448 .433 311.936 .487 314.168 .861 317.144 1.704 320.12 2.513 322.352 2.825 323.84 2.831 325.328 2.669 327.56 2.17 332.768 .72 334.256 .496 335.744 .432 337.232 .537 339.464 .974 346.16 2.724 347.648 2.845 349.136 2.798 351.368 2.431 354.344 1.592 357.32 .778 359.552 .458 361.04 .447 362.528 .602 364.76 1.096 370.712 2.683 372.2 2.835 373.688 2.82 375.176 2.639 377.408 2.12 382.616 .685 384.104 .479 385.592 .436 387.08 .561 389.312 1.021 395.264 2.637 396.752 2.819 398.24 2.836 399.728 2.686 401.96 2.198 407.912 .605 409.4 .447 410.888 .457 412.376 .632 414.608 1.146 419.816 2.585 421.304 2.797 422.792 2.846 424.28 2.726 426.512 2.273 433.208 .539 434.696 .432 436.184 .494 438.416 .879 441.392 1.728 444.368 2.529 446.6 2.83 448.088 2.826 449.576 2.657 451.808 2.148 457.016 .705 458.504 .488 459.992 .433 461.48 .547 463.712 .994 470.408 2.734 471.896 2.847 473.384 2.791 475.616 2.413 478.592 1.568 481.568 .762 483.8 .453 485.288 .451 486.776 .615 489.008 1.118 494.216 2.565 495.704 2.787 497.192 2.848 498.68 2.74 500.912 2.299 507.608 .552 509.096 .434 510.584 .484 512.816 .855 515.792 1.697 518.768 2.508 521 2.824 522.488 2.832 523.976 2.673 526.208 2.176 532.16 .593 533.648 .444 535.136 .462 536.624 .645 538.856 1.168 544.064 2.6 545.552 2.803 547.04 2.844 548.528 2.716 550.76 2.252 556.712 .639 558.2 .459 559.688 .445 561.176 .599 563.408 1.09 569.36 2.679 570.848 2.834 572.336 2.822 573.824 2.644 576.056 2.126 581.264 .69 582.752 .481 584.24 .435 585.728 .557 587.96 1.014 594.656 2.744 596.144 2.848 597.632 2.783 599.864 2.394 602.84 1.544 605.816 .745 608.048 .449 609.536 .455 611.024 .628 613.256 1.139 618.464 2.581 619.952 2.794 621.44 2.846 622.928 2.729 625.16 2.279 631.856 .542 633.344 .432 634.832 .492 637.064 .873 640.04 1.721 643.016 2.524 645.248 2.829 646.736 2.828 648.224 2.661 650.456 2.155 655.664 .709 657.152 .49 658.64 .433 660.128 .544 662.36 .988 669.056 2.731 670.544 2.847 672.032 2.793 674.264 2.419 677.24 1.575 680.216 .767 682.448 .454 683.936 .449 685.424 .611 687.656 1.111 692.864 2.561 694.352 2.785 695.84 2.848 697.328 2.743 699.56 2.305 706.256 .556 707.744 .435 709.232 .482 711.464 .85 714.44 1.689 717.416 2.502 719.648 2.822 721.136 2.833 722.624 2.677 724.856 2.183 730.808 .597 732.296 .445 733.784 .46 735.272 .641 737.504 1.161 742.712 2.595 744.2 2.801 745.688 2.844 747.176 2.719 749.408 2.259 755.36 .643 756.848 .461 758.336 .444 759.824 .595 762.056 1.083 768.008 2.675 769.496 2.833 770.984 2.823 772.472 2.648 774.704 2.133 779.912 .694 781.4 .483 782.888 .434 784.376 .554 786.608 1.008 793.304 2.741 794.792 2.848 796.28 2.786 798.512 2.4 801.488 1.551 804.464 .75 806.696 .45 808.184 .454 809.672 .624 811.904 1.133 817.112 2.576 818.6 2.792 820.088 2.847 821.576 2.733 823.808 2.285 830.504 .545 831.992 .433 833.48 .489 835.712 .868 838.688 1.713 841.664 2.519 843.896 2.827 845.384 2.829 846.872 2.665 849.104 2.161 854.312 .714 855.8 .493 857.288 .432 858.776 .541 861.008 .982 867.704 2.728 869.192 2.846 870.68 2.795 872.912 2.424 875.888 1.582 878.864 .772 881.096 .456 882.584 .448 884.072 .607 886.304 1.104 891.512 2.556 893 2.782 894.488 2.849 895.976 2.746 898.208 2.311 904.904 .559 906.392 .435 907.88 .48 910.112 .844 913.088 1.682 916.064 2.497 918.296 2.821 919.784 2.835 921.272 2.681 923.504 2.189 929.456 .6 930.944 .446 932.432 .459 933.92 .637 936.152 1.154 941.36 2.591 942.848 2.799 944.336 2.845 945.824 2.722 948.056 2.265 954.752 .535 956.24 .432 957.728 .497 959.96 .886 962.936 1.737 965.912 2.535 968.144 2.832 969.632 2.825 971.12 2.652 973.352 2.14 978.56 .699 980.048 .485 981.536 .434 983.024 .551 985.256 1.002 991.952 2.738 993.44 2.848 994.928 2.788 997.16 2.406 1000.136 1.559 1003.112 .755 1005.344 .451 1006.832 .452 1008.32 .62 1010.552 1.126 1015.76 2.571 1017.248 2.79 1018.736 2.847 1020.224 2.736 1022.456 2.291 1029.152 .548 1030.64 .433 1032.128 .487 1034.36 .862 1037.336 1.706 1040.312 2.514 1042.544 2.826 1044.032 2.831 1045.52 2.668 1047.752 2.168 1052.96 .719 1054.448 .495 1055.936 .432 1057.424 .538 1059.656 .976 1066.352 2.725 1067.84 2.846 1069.328 2.797 1071.56 2.43 1074.536 1.59 1077.512 .777 1079.744 .457 1081.232 .447 1082.72 .603 1084.952 1.098 1090.904 2.684 1092.392 2.835 1093.88 2.82 1095.368 2.638 1097.6 2.118 1102.808 .684 1104.296 .478 1105.784 .436 1107.272 .562 1109.504 1.022 1115.456 2.638 1115.456 2.638" transform="translate(7 61)"/>
  </g>
</svg>
