<svg xmlns="http://www.w3.org/2000/svg" width="1116" height="6" viewBox="0 0 1116 6">
  <g fill="none" fill-rule="evenodd" transform="translate(-7 -60)">
    <polygon points="0 125.28 1130.4 125.28 1130.4 0 0 0"/>
    <polyline stroke="#FFF" stroke-linecap="square" points=".2 2.941 6.896 1.287 9.872 .793 12.848 .558 15.824 .613 18.8 .952 21.776 1.526 26.24 2.648 31.448 3.928 34.424 4.446 37.4 4.711 40.376 4.687 43.352 4.377 46.328 3.824 50.792 2.716 56 1.419 58.976 .878 61.952 .584 64.928 .577 67.904 .858 70.88 1.388 75.344 2.481 81.296 3.952 84.272 4.461 87.248 4.715 90.224 4.68 93.2 4.36 96.176 3.799 100.64 2.686 105.848 1.395 108.824 .862 111.8 .578 114.776 .582 117.752 .874 120.728 1.412 125.192 2.51 131.144 3.975 134.12 4.475 137.096 4.719 140.072 4.673 143.048 4.343 146.024 3.775 150.488 2.656 155.696 1.371 158.672 .847 161.648 .573 164.624 .588 167.6 .89 170.576 1.436 175.04 2.54 180.248 3.841 183.224 4.388 186.2 4.691 189.176 4.707 192.152 4.435 195.128 3.912 198.848 3.019 205.544 1.348 208.52 .832 211.496 .568 214.472 .594 217.448 .906 220.424 1.46 224.888 2.569 230.096 3.865 233.072 4.405 236.048 4.697 239.024 4.702 242 4.419 244.976 3.888 249.44 2.794 255.392 1.324 258.368 .817 261.344 .564 264.32 .601 267.296 .923 270.272 1.485 274.736 2.599 279.944 3.889 282.92 4.42 285.896 4.703 288.872 4.697 291.848 4.404 294.824 3.864 299.288 2.765 305.24 1.301 308.216 .802 311.192 .56 314.168 .608 317.144 .94 320.12 1.51 324.584 2.629 329.792 3.913 332.768 4.436 335.744 4.708 338.72 4.691 341.696 4.387 344.672 3.84 349.136 2.735 354.344 1.434 357.32 .889 360.296 .588 363.272 .573 366.248 .848 369.224 1.372 372.944 2.266 379.64 3.936 382.616 4.451 385.592 4.712 388.568 4.684 391.544 4.371 394.52 3.815 398.984 2.705 404.192 1.41 407.168 .873 410.144 .582 413.12 .579 416.096 .863 419.072 1.396 423.536 2.491 429.488 3.96 432.464 4.466 435.44 4.717 438.416 4.678 441.392 4.354 444.368 3.791 448.832 2.676 454.04 1.386 457.016 .857 459.992 .577 462.968 .584 465.944 .879 468.92 1.42 473.384 2.521 479.336 3.983 482.312 4.48 485.288 4.721 488.264 4.67 491.24 4.337 494.216 3.766 498.68 2.646 503.888 1.363 506.864 .842 509.84 .571 512.816 .59 515.792 .896 518.768 1.444 523.232 2.55 528.44 3.85 531.416 4.394 534.392 4.693 537.368 4.706 540.344 4.43 543.32 3.903 547.04 3.009 553.736 1.339 556.712 .827 559.688 .567 562.664 .597 565.64 .912 568.616 1.469 573.08 2.58 578.288 3.874 581.264 4.41 584.24 4.699 587.216 4.7 590.192 4.414 593.168 3.88 597.632 2.784 603.584 1.316 606.56 .812 609.536 .563 612.512 .604 615.488 .929 618.464 1.493 622.928 2.609 628.136 3.898 631.112 4.426 634.088 4.704 637.064 4.695 640.04 4.398 643.016 3.856 647.48 2.754 652.688 1.45 655.664 .9 658.64 .592 661.616 .57 664.592 .838 667.568 1.357 671.288 2.247 677.984 3.921 680.96 4.441 683.936 4.709 686.912 4.689 689.888 4.382 692.864 3.831 697.328 2.725 702.536 1.426 705.512 .883 708.488 .586 711.464 .575 714.44 .853 717.416 1.381 721.88 2.472 727.832 3.945 730.808 4.456 733.784 4.714 736.76 4.682 739.736 4.365 742.712 3.807 747.176 2.695 752.384 1.402 755.36 .867 758.336 .58 761.312 .581 764.288 .869 767.264 1.404 771.728 2.501 777.68 3.968 780.656 4.471 783.632 4.718 786.608 4.675 789.584 4.348 792.56 3.782 797.024 2.666 802.232 1.378 805.208 .852 808.184 .575 811.16 .586 814.136 .885 817.112 1.429 821.576 2.531 826.784 3.834 829.76 4.383 832.736 4.689 835.712 4.709 838.688 4.44 841.664 3.919 845.384 3.028 852.08 1.355 855.056 .836 858.032 .57 861.008 .593 863.984 .901 866.96 1.453 871.424 2.56 876.632 3.858 879.608 4.4 882.584 4.695 885.56 4.704 888.536 4.424 891.512 3.895 895.976 2.803 901.928 1.331 904.904 .821 907.88 .565 910.856 .599 913.832 .918 916.808 1.477 921.272 2.59 926.48 3.882 929.456 4.416 932.432 4.701 935.408 4.698 938.384 4.408 941.36 3.871 945.824 2.774 951.776 1.308 954.752 .807 957.728 .561 960.704 .606 963.68 .935 966.656 1.502 971.12 2.62 976.328 3.906 979.304 4.431 982.28 4.706 985.256 4.693 988.232 4.392 991.208 3.847 995.672 2.744 1000.88 1.442 1003.856 .894 1006.832 .59 1009.808 .572 1012.784 .843 1015.76 1.365 1019.48 2.257 1026.176 3.929 1029.152 4.446 1032.128 4.711 1035.104 4.686 1038.08 4.376 1041.056 3.823 1045.52 2.714 1050.728 1.418 1053.704 .878 1056.68 .584 1059.656 .577 1062.632 .859 1065.608 1.389 1070.072 2.482 1076.024 3.953 1079 4.461 1081.976 4.715 1084.952 4.68 1087.928 4.359 1090.904 3.798 1095.368 2.685 1100.576 1.394 1103.552 .862 1106.528 .578 1109.504 .583 1112.48 .874 1115.456 1.413 1115.456 1.413" transform="translate(7 60)"/>
  </g>
</svg>
