<svg xmlns="http://www.w3.org/2000/svg" width="1116" height="16" viewBox="0 0 1116 16">
  <g fill="none" fill-rule="evenodd" transform="translate(-7 -55)">
    <polygon points="0 125.28 1130.4 125.28 1130.4 0 0 0"/>
    <polyline stroke="#FFF" stroke-linecap="square" points=".2 .924 1.688 .768 3.176 .857 4.664 1.187 6.152 1.747 7.64 2.517 9.872 4.004 12.104 5.782 18.8 11.389 21.032 12.851 22.52 13.601 24.008 14.138 25.496 14.444 26.984 14.507 28.472 14.326 29.96 13.907 31.448 13.264 32.936 12.421 35.168 10.849 38.144 8.378 42.608 4.592 44.84 2.99 46.328 2.121 47.816 1.449 49.304 .998 50.792 .783 52.28 .813 53.768 1.085 55.256 1.591 56.744 2.313 58.976 3.741 61.208 5.481 68.648 11.665 70.88 13.063 72.368 13.761 73.856 14.24 75.344 14.484 76.832 14.484 78.32 14.241 79.808 13.762 81.296 13.065 82.784 12.175 85.016 10.549 87.992 8.045 92.456 4.295 94.688 2.749 96.176 1.928 97.664 1.311 99.152 .92 100.64 .767 102.128 .86 103.616 1.194 105.104 1.758 106.592 2.531 108.824 4.021 111.056 5.801 117.752 11.406 119.984 12.864 121.472 13.611 122.96 14.145 124.448 14.447 125.936 14.506 127.424 14.322 128.912 13.899 130.4 13.253 131.888 12.407 134.12 10.831 137.096 8.359 141.56 4.574 143.792 2.975 145.28 2.109 146.768 1.441 148.256 .993 149.744 .782 151.232 .815 152.72 1.091 154.208 1.601 155.696 2.326 157.928 3.758 160.16 5.5 167.6 11.681 169.832 13.076 171.32 13.77 172.808 14.245 174.296 14.486 175.784 14.482 177.272 14.235 178.76 13.753 180.248 13.053 181.736 12.16 183.968 10.531 186.944 8.025 190.664 4.859 192.896 3.211 194.384 2.302 195.872 1.583 197.36 1.08 198.848 .811 200.336 .784 201.824 1.002 203.312 1.457 204.8 2.131 206.288 3.002 208.52 4.607 211.496 7.098 215.96 10.864 218.192 12.434 219.68 13.274 221.168 13.914 222.656 14.33 224.144 14.508 225.632 14.442 227.12 14.133 228.608 13.592 230.096 12.84 232.328 11.375 234.56 9.611 241.256 3.99 243.488 2.506 244.976 1.738 246.464 1.181 247.952 .854 249.44 .768 250.928 .927 252.416 1.326 253.904 1.949 255.392 2.775 257.624 4.328 260.6 6.785 265.064 10.583 267.296 12.203 268.784 13.088 270.272 13.779 271.76 14.251 273.248 14.487 274.736 14.48 276.224 14.229 277.712 13.744 279.2 13.041 280.688 12.145 282.92 10.513 285.896 8.005 289.616 4.84 291.848 3.196 293.336 2.29 294.824 1.574 296.312 1.074 297.8 .808 299.288 .786 300.776 1.008 302.264 1.466 303.752 2.143 305.24 3.017 307.472 4.625 310.448 7.118 314.912 10.882 317.144 12.448 318.632 13.286 320.12 13.922 321.608 14.335 323.096 14.509 324.584 14.439 326.072 14.126 327.56 13.582 329.048 12.827 331.28 11.358 333.512 9.592 340.208 3.973 342.44 2.493 343.928 1.728 345.416 1.174 346.904 .851 348.392 .769 349.88 .932 351.368 1.334 352.856 1.96 354.344 2.789 356.576 4.345 359.552 6.805 364.016 10.601 366.248 12.218 367.736 13.1 369.224 13.788 370.712 14.256 372.2 14.489 373.688 14.478 375.176 14.224 376.664 13.734 378.152 13.028 379.64 12.13 381.872 10.495 384.848 7.985 388.568 4.822 390.8 3.181 392.288 2.277 393.776 1.564 395.264 1.068 396.752 .806 398.24 .787 399.728 1.013 401.216 1.474 402.704 2.155 404.192 3.032 406.424 4.643 409.4 7.138 413.864 10.899 416.096 12.462 417.584 13.297 419.072 13.93 420.56 14.339 422.048 14.51 423.536 14.436 425.024 14.119 426.512 13.572 428 12.814 430.232 11.341 432.464 9.573 439.16 3.956 441.392 2.48 442.88 1.718 444.368 1.168 445.856 .848 447.344 .769 448.832 .936 450.32 1.342 451.808 1.971 453.296 2.803 455.528 4.363 458.504 6.825 462.968 10.619 465.2 12.233 466.688 13.112 468.176 13.797 469.664 14.262 471.152 14.491 472.64 14.476 474.128 14.218 475.616 13.725 477.104 13.016 478.592 12.115 480.824 10.477 484.544 7.316 488.264 4.226 490.496 2.693 491.984 1.884 493.472 1.28 494.96 .903 496.448 .766 497.936 .873 499.424 1.222 500.912 1.799 502.4 2.585 504.632 4.089 507.608 6.513 512.816 10.917 515.048 12.476 516.536 13.308 518.024 13.938 519.512 14.344 521 14.51 522.488 14.433 523.976 14.113 525.464 13.562 526.952 12.801 529.184 11.324 531.416 9.554 538.112 3.939 540.344 2.466 541.832 1.708 543.32 1.161 544.808 .844 546.296 .77 547.784 .941 549.272 1.35 550.76 1.983 552.248 2.817 554.48 4.38 557.456 6.844 561.92 10.637 564.152 12.248 565.64 13.124 567.128 13.805 568.616 14.267 570.104 14.492 571.592 14.474 573.08 14.212 574.568 13.716 576.056 13.003 578.288 11.586 580.52 9.854 587.96 3.662 590.192 2.252 591.68 1.546 593.168 1.057 594.656 .802 596.144 .791 597.632 1.024 599.12 1.492 600.608 2.18 602.096 3.062 604.328 4.679 607.304 7.178 611.768 10.934 614 12.491 615.488 13.32 616.976 13.946 618.464 14.348 619.952 14.511 621.44 14.429 622.928 14.106 624.416 13.552 625.904 12.788 628.136 11.308 630.368 9.535 637.064 3.922 639.296 2.453 640.784 1.698 642.272 1.154 643.76 .842 645.248 .771 646.736 .945 648.224 1.358 649.712 1.994 651.2 2.832 653.432 4.398 656.408 6.864 660.872 10.655 663.104 12.263 664.592 13.136 666.08 13.814 667.568 14.272 669.056 14.494 670.544 14.472 672.032 14.206 673.52 13.706 675.008 12.991 677.24 11.57 679.472 9.835 686.912 3.645 689.144 2.24 690.632 1.537 692.12 1.051 693.608 .8 695.096 .793 696.584 1.029 698.072 1.501 699.56 2.192 701.048 3.076 703.28 4.697 706.256 7.198 710.72 10.952 712.952 12.505 714.44 13.331 715.928 13.954 717.416 14.352 718.904 14.512 720.392 14.426 721.88 14.099 723.368 13.542 724.856 12.774 727.088 11.291 729.32 9.515 736.016 3.906 738.248 2.44 739.736 1.688 741.224 1.148 742.712 .839 744.2 .772 745.688 .95 747.176 1.366 748.664 2.005 750.152 2.846 752.384 4.415 755.36 6.884 759.824 10.672 762.056 12.277 763.544 13.148 765.032 13.823 766.52 14.277 768.008 14.496 769.496 14.469 770.984 14.2 772.472 13.697 773.96 12.978 776.192 11.553 778.424 9.816 785.864 3.629 788.096 2.227 789.584 1.527 791.072 1.045 792.56 .798 794.048 .794 795.536 1.035 797.024 1.51 798.512 2.204 800 3.091 802.232 4.715 805.208 7.218 809.672 10.969 811.904 12.519 813.392 13.342 814.88 13.962 816.368 14.357 817.856 14.512 819.344 14.423 820.832 14.092 822.32 13.532 823.808 12.761 826.04 11.274 828.272 9.496 834.968 3.889 837.2 2.427 838.688 1.678 840.176 1.141 841.664 .836 843.152 .773 844.64 .954 846.128 1.374 847.616 2.017 849.104 2.86 851.336 4.433 854.312 6.904 858.776 10.69 861.008 12.292 862.496 13.16 863.984 13.832 865.472 14.283 866.96 14.497 868.448 14.467 869.936 14.194 871.424 13.688 872.912 12.966 875.144 11.537 877.376 9.797 884.816 3.613 887.048 2.215 888.536 1.518 890.024 1.04 891.512 .796 893 .796 894.488 1.04 895.976 1.519 897.464 2.216 898.952 3.106 901.184 4.733 904.16 7.238 908.624 10.987 910.856 12.533 912.344 13.353 913.832 13.97 915.32 14.361 916.808 14.513 918.296 14.42 919.784 14.085 921.272 13.521 922.76 12.748 924.992 11.257 927.224 9.477 933.92 3.872 936.152 2.414 937.64 1.668 939.128 1.135 940.616 .833 942.104 .774 943.592 .959 945.08 1.382 946.568 2.028 948.056 2.875 950.288 4.451 953.264 6.924 957.728 10.708 959.96 12.307 961.448 13.172 962.936 13.84 964.424 14.288 965.912 14.498 967.4 14.465 968.888 14.188 970.376 13.678 971.864 12.953 974.096 11.521 976.328 9.778 983.768 3.597 986 2.203 987.488 1.509 988.976 1.034 990.464 .794 991.952 .798 993.44 1.046 994.928 1.528 996.416 2.228 997.904 3.121 1000.136 4.751 1003.112 7.257 1006.832 10.423 1009.064 12.071 1010.552 12.979 1012.04 13.698 1013.528 14.201 1015.016 14.47 1016.504 14.495 1017.992 14.277 1019.48 13.822 1020.968 13.147 1022.456 12.276 1024.688 10.671 1027.664 8.18 1032.128 4.414 1034.36 2.845 1035.848 2.005 1037.336 1.365 1038.824 .949 1040.312 .772 1041.8 .839 1043.288 1.148 1044.776 1.689 1046.264 2.441 1048.496 3.907 1050.728 5.671 1057.424 11.292 1059.656 12.775 1061.144 13.543 1062.632 14.1 1064.12 14.427 1065.608 14.512 1067.096 14.352 1068.584 13.953 1070.072 13.33 1071.56 12.504 1073.792 10.95 1076.768 8.493 1081.232 4.695 1083.464 3.075 1084.952 2.191 1086.44 1.5 1087.928 1.029 1089.416 .792 1090.904 .8 1092.392 1.051 1093.88 1.537 1095.368 2.241 1096.856 3.136 1099.088 4.769 1102.064 7.277 1105.784 10.442 1108.016 12.086 1109.504 12.992 1110.992 13.707 1112.48 14.207 1113.968 14.472 1115.456 14.494 1115.456 14.494" transform="translate(7 55)"/>
  </g>
</svg>
