<svg xmlns="http://www.w3.org/2000/svg" width="1116" height="11" viewBox="0 0 1116 11">
  <g fill="none" fill-rule="evenodd" transform="translate(-7 -57)">
    <polygon points="0 125.28 1130.4 125.28 1130.4 0 0 0"/>
    <polyline stroke="#FFF" stroke-linecap="square" points=".2 1.974 1.688 3.41 4.664 6.979 6.152 8.608 7.64 9.818 8.384 10.21 9.128 10.438 9.872 10.496 10.616 10.381 11.36 10.097 12.104 9.654 13.592 8.36 15.08 6.682 18.056 3.143 19.544 1.781 20.288 1.295 21.032 .964 21.776 .799 22.52 .807 23.264 .987 24.008 1.333 24.752 1.832 26.24 3.215 28.472 5.856 30.704 8.429 32.192 9.7 32.936 10.129 33.68 10.398 34.424 10.498 35.168 10.425 35.912 10.181 36.656 9.775 38.144 8.542 39.632 6.899 42.608 3.336 44.096 1.92 44.84 1.399 45.584 1.029 46.328 .824 47.072 .789 47.816 .928 48.56 1.235 49.304 1.698 50.792 3.025 53.024 5.633 55.256 8.244 56.744 9.574 57.488 10.04 58.232 10.349 58.976 10.49 59.72 10.458 60.464 10.255 61.208 9.888 62.696 8.717 64.184 7.112 67.904 2.749 69.392 1.512 70.136 1.104 70.88 .858 71.624 .782 72.368 .879 73.112 1.145 73.856 1.572 75.344 2.84 76.832 4.503 79.808 8.053 81.296 9.439 82.04 9.941 82.784 10.289 83.528 10.471 84.272 10.482 85.016 10.32 85.76 9.991 86.504 9.507 87.992 8.149 90.224 5.521 92.456 2.931 93.944 1.634 94.688 1.189 95.432 .902 96.176 .784 96.92 .839 97.664 1.066 98.408 1.455 99.896 2.661 101.384 4.288 105.104 8.631 106.592 9.833 107.336 10.219 108.08 10.443 108.824 10.495 109.568 10.375 110.312 10.085 111.056 9.638 112.544 8.337 114.032 6.655 117.008 3.119 118.496 1.764 119.24 1.282 119.984 .956 120.728 .797 121.472 .81 122.216 .995 122.96 1.346 123.704 1.85 125.192 3.239 127.424 5.884 129.656 8.452 131.144 9.716 131.888 10.14 132.632 10.404 133.376 10.498 134.12 10.42 134.864 10.171 135.608 9.76 137.096 8.519 138.584 6.871 141.56 3.311 143.048 1.902 143.792 1.385 144.536 1.02 145.28 .82 146.024 .791 146.768 .935 147.512 1.247 148.256 1.715 149.744 3.048 151.976 5.661 154.208 8.268 155.696 9.591 156.44 10.052 157.184 10.355 157.928 10.491 158.672 10.455 159.416 10.246 160.16 9.874 161.648 8.695 163.136 7.085 166.856 2.727 168.344 1.497 169.088 1.094 169.832 .853 170.576 .782 171.32 .884 172.064 1.156 172.808 1.588 174.296 2.863 175.784 4.53 178.76 8.078 180.248 9.457 180.992 9.954 181.736 10.297 182.48 10.474 183.224 10.479 183.968 10.312 184.712 9.978 185.456 9.49 186.944 8.125 189.176 5.493 191.408 2.908 192.896 1.618 193.64 1.177 194.384 .896 195.128 .783 195.872 .844 196.616 1.075 197.36 1.469 198.848 2.683 200.336 4.315 204.056 8.653 205.544 9.847 206.288 10.229 207.032 10.447 207.776 10.494 208.52 10.368 209.264 10.074 210.008 9.622 211.496 8.313 212.984 6.627 215.96 3.095 217.448 1.747 218.192 1.27 218.936 .949 219.68 .795 220.424 .813 221.168 1.004 221.912 1.359 223.4 2.51 224.888 4.102 228.608 8.475 230.096 9.731 230.84 10.151 231.584 10.41 232.328 10.499 233.072 10.414 233.816 10.16 234.56 9.745 236.048 8.496 237.536 6.844 240.512 3.287 242 1.884 242.744 1.372 243.488 1.012 244.232 .816 244.976 .793 245.72 .942 246.464 1.259 247.208 1.731 248.696 3.072 250.928 5.69 253.16 8.291 254.648 9.607 255.392 10.063 256.136 10.362 256.88 10.493 257.624 10.451 258.368 10.237 259.112 9.86 260.6 8.673 262.088 7.058 265.808 2.704 267.296 1.483 268.04 1.084 268.784 .848 269.528 .783 270.272 .89 271.016 1.167 271.76 1.603 273.248 2.886 274.736 4.558 277.712 8.102 279.2 9.474 279.944 9.967 280.688 10.305 281.432 10.477 282.176 10.477 282.92 10.304 283.664 9.966 284.408 9.473 285.896 8.1 288.128 5.465 290.36 2.884 291.848 1.602 292.592 1.166 293.336 .89 294.08 .783 294.824 .848 295.568 1.085 296.312 1.484 297.8 2.706 299.288 4.342 302.264 7.908 303.752 9.334 304.496 9.861 305.24 10.238 305.984 10.451 306.728 10.493 307.472 10.362 308.216 10.062 308.96 9.606 310.448 8.29 311.936 6.599 314.912 3.071 316.4 1.73 317.144 1.258 317.888 .942 318.632 .793 319.376 .817 320.12 1.012 320.864 1.373 322.352 2.532 323.84 4.129 327.56 8.498 329.048 9.746 329.792 10.161 330.536 10.415 331.28 10.499 332.024 10.409 332.768 10.15 333.512 9.73 335 8.473 336.488 6.817 339.464 3.262 340.952 1.866 341.696 1.358 342.44 1.003 343.184 .813 343.928 .795 344.672 .949 345.416 1.271 346.16 1.748 347.648 3.096 349.88 5.718 352.112 8.315 353.6 9.623 354.344 10.075 355.088 10.369 355.832 10.494 356.576 10.447 357.32 10.228 358.064 9.846 359.552 8.651 361.04 7.031 364.76 2.682 366.248 1.468 366.992 1.075 367.736 .844 368.48 .783 369.224 .896 369.968 1.178 370.712 1.619 372.2 2.909 373.688 4.585 376.664 8.127 378.152 9.492 378.896 9.979 379.64 10.313 380.384 10.48 381.128 10.474 381.872 10.296 382.616 9.953 383.36 9.456 384.848 8.076 387.08 5.437 389.312 2.861 390.8 1.586 391.544 1.155 392.288 .884 393.032 .782 393.776 .853 394.52 1.095 395.264 1.498 396.752 2.728 398.24 4.369 401.216 7.933 402.704 9.352 403.448 9.875 404.192 10.247 404.936 10.455 405.68 10.491 406.424 10.355 407.168 10.051 407.912 9.589 409.4 8.266 411.632 5.659 413.864 3.047 415.352 1.713 416.096 1.246 416.84 .935 417.584 .791 418.328 .82 419.072 1.021 419.816 1.386 421.304 2.553 422.792 4.156 426.512 8.521 428 9.761 428.744 10.171 429.488 10.42 430.232 10.498 430.976 10.404 431.72 10.139 432.464 9.715 433.952 8.45 435.44 6.789 438.416 3.237 439.904 1.848 440.648 1.345 441.392 .995 442.136 .81 442.88 .797 443.624 .957 444.368 1.283 445.112 1.765 446.6 3.12 448.832 5.746 451.064 8.339 452.552 9.639 453.296 10.086 454.04 10.375 454.784 10.495 455.528 10.442 456.272 10.219 457.016 9.832 458.504 8.629 459.992 7.004 463.712 2.659 465.2 1.454 465.944 1.065 466.688 .839 467.432 .784 468.176 .903 468.92 1.189 469.664 1.635 471.152 2.933 472.64 4.613 475.616 8.151 477.104 9.509 477.848 9.992 478.592 10.32 479.336 10.482 480.08 10.471 480.824 10.288 481.568 9.94 482.312 9.438 483.8 8.052 486.032 5.409 488.264 2.838 489.752 1.571 490.496 1.145 491.24 .878 491.984 .782 492.728 .858 493.472 1.105 494.216 1.513 495.704 2.751 497.192 4.397 500.168 7.958 501.656 9.37 502.4 9.889 503.144 10.256 503.888 10.459 504.632 10.49 505.376 10.348 506.12 10.039 506.864 9.573 508.352 8.242 510.584 5.631 512.816 3.023 514.304 1.697 515.048 1.234 515.792 .928 516.536 .789 517.28 .824 518.024 1.03 518.768 1.4 520.256 2.575 521.744 4.183 525.464 8.543 526.952 9.776 527.696 10.181 528.44 10.425 529.184 10.498 529.928 10.398 530.672 10.129 531.416 9.699 532.904 8.427 534.392 6.762 537.368 3.213 538.856 1.831 539.6 1.332 540.344 .987 541.088 .807 541.832 .8 542.576 .964 543.32 1.296 544.064 1.782 545.552 3.145 547.784 5.774 550.016 8.362 551.504 9.655 552.248 10.098 552.992 10.381 553.736 10.496 554.48 10.438 555.224 10.209 555.968 9.817 557.456 8.607 558.944 6.977 562.664 2.637 564.152 1.439 564.896 1.056 565.64 .835 566.384 .785 567.128 .909 567.872 1.201 568.616 1.651 570.104 2.956 571.592 4.641 574.568 8.175 576.056 9.526 576.8 10.004 577.544 10.328 578.288 10.484 579.032 10.468 579.776 10.28 580.52 9.926 581.264 9.42 582.752 8.027 584.984 5.38 587.216 2.815 588.704 1.556 589.448 1.134 590.192 .873 590.936 .782 591.68 .863 592.424 1.115 593.168 1.528 594.656 2.774 596.144 4.424 599.12 7.982 600.608 9.388 601.352 9.902 602.096 10.264 602.84 10.462 603.584 10.488 604.328 10.341 605.072 10.027 605.816 9.556 607.304 8.218 609.536 5.603 611.768 2.999 613.256 1.68 614 1.222 614.744 .921 615.488 .788 616.232 .828 616.976 1.039 617.72 1.414 619.208 2.597 620.696 4.21 624.416 8.566 625.904 9.791 626.648 10.191 627.392 10.43 628.136 10.498 628.88 10.392 629.624 10.118 630.368 9.684 631.856 8.404 633.344 6.734 636.32 3.189 637.808 1.813 638.552 1.319 639.296 .979 640.04 .804 640.784 .802 641.528 .972 642.272 1.309 643.016 1.799 644.504 3.169 646.736 5.802 648.968 8.385 650.456 9.671 651.2 10.109 651.944 10.387 652.688 10.497 653.432 10.434 654.176 10.199 654.92 9.803 656.408 8.584 657.896 6.95 660.872 3.383 662.36 1.955 663.104 1.425 663.848 1.046 664.592 .831 665.336 .787 666.08 .915 666.824 1.212 667.568 1.667 669.056 2.98 670.544 4.668 673.52 8.199 675.008 9.543 675.752 10.017 676.496 10.335 677.24 10.486 677.984 10.465 678.728 10.271 679.472 9.913 680.96 8.758 682.448 7.163 686.168 2.792 687.656 1.54 688.4 1.123 689.144 .867 689.888 .781 690.632 .868 691.376 1.125 692.12 1.543 693.608 2.797 695.096 4.451 698.072 8.007 699.56 9.406 700.304 9.916 701.048 10.273 701.792 10.465 702.536 10.486 703.28 10.334 704.024 10.015 704.768 9.539 706.256 8.194 708.488 5.575 710.72 2.975 712.208 1.664 712.952 1.21 713.696 .914 714.44 .786 715.184 .832 715.928 1.048 716.672 1.428 718.16 2.619 719.648 4.237 723.368 8.588 724.856 9.806 725.6 10.201 726.344 10.434 727.088 10.497 727.832 10.386 728.576 10.107 729.32 9.668 730.808 8.381 732.296 6.707 735.272 3.164 736.76 1.796 737.504 1.306 738.248 .971 738.992 .802 739.736 .805 740.48 .98 741.224 1.321 741.968 1.817 743.456 3.193 745.688 5.831 747.92 8.409 749.408 9.687 750.152 10.12 750.896 10.393 751.64 10.498 752.384 10.429 753.128 10.19 753.872 9.788 755.36 8.562 756.848 6.923 759.824 3.358 761.312 1.936 762.056 1.411 762.8 1.037 763.544 .827 764.288 .788 765.032 .922 765.776 1.224 766.52 1.683 768.008 3.004 770.24 5.608 772.472 8.223 773.96 9.559 774.704 10.029 775.448 10.342 776.192 10.488 776.936 10.461 777.68 10.263 778.424 9.9 779.912 8.736 781.4 7.136 785.12 2.769 786.608 1.525 787.352 1.113 788.096 .862 788.84 .782 789.584 .874 790.328 1.136 791.072 1.558 792.56 2.819 794.048 4.479 797.024 8.032 798.512 9.424 799.256 9.929 800 10.281 800.744 10.469 801.488 10.484 802.232 10.326 802.976 10.002 803.72 9.522 805.208 8.17 807.44 5.546 809.672 2.952 811.16 1.648 811.904 1.199 812.648 .908 813.392 .785 814.136 .836 814.88 1.057 815.624 1.442 817.112 2.641 818.6 4.264 822.32 8.611 823.808 9.82 824.552 10.211 825.296 10.439 826.04 10.496 826.784 10.38 827.528 10.096 828.272 9.652 829.76 8.358 831.248 6.679 834.224 3.14 835.712 1.779 836.456 1.294 837.2 .963 837.944 .799 838.688 .808 839.432 .988 840.176 1.334 840.92 1.834 842.408 3.218 844.64 5.859 846.872 8.432 848.36 9.702 849.104 10.131 849.848 10.399 850.592 10.498 851.336 10.424 852.08 10.18 852.824 9.773 854.312 8.539 855.8 6.895 858.776 3.333 860.264 1.918 861.008 1.398 861.752 1.028 862.496 .823 863.24 .79 863.984 .929 864.728 1.236 865.472 1.7 866.96 3.027 869.192 5.636 871.424 8.247 872.912 9.576 873.656 10.041 874.4 10.349 875.144 10.49 875.888 10.458 876.632 10.254 877.376 9.886 878.864 8.715 880.352 7.109 884.072 2.747 885.56 1.51 886.304 1.103 887.048 .857 887.792 .782 888.536 .879 889.28 1.147 890.024 1.574 891.512 2.842 893 4.506 895.976 8.056 897.464 9.441 898.208 9.942 898.952 10.29 899.696 10.472 900.44 10.482 901.184 10.319 901.928 9.99 902.672 9.505 904.16 8.146 906.392 5.518 908.624 2.928 910.112 1.632 910.856 1.187 911.6 .901 912.344 .784 913.088 .84 913.832 1.067 914.576 1.456 916.064 2.664 917.552 4.291 921.272 8.633 922.76 9.834 923.504 10.22 924.248 10.443 924.992 10.495 925.736 10.374 926.48 10.084 927.224 9.636 928.712 8.334 930.2 6.652 933.176 3.116 934.664 1.762 935.408 1.281 936.152 .955 936.896 .797 937.64 .811 938.384 .996 939.128 1.348 939.872 1.852 941.36 3.242 943.592 5.887 945.824 8.455 947.312 9.718 948.056 10.141 948.8 10.405 949.544 10.498 950.288 10.419 951.032 10.169 951.776 9.759 953.264 8.516 954.752 6.868 957.728 3.309 959.216 1.9 959.96 1.384 960.704 1.019 961.448 .819 962.192 .791 962.936 .936 963.68 1.248 964.424 1.716 965.912 3.051 968.144 5.665 970.376 8.27 971.864 9.592 972.608 10.053 973.352 10.356 974.096 10.492 974.84 10.454 975.584 10.245 976.328 9.872 977.816 8.693 979.304 7.082 983.024 2.724 984.512 1.496 985.256 1.093 986 .852 986.744 .782 987.488 .885 988.232 1.157 988.976 1.589 990.464 2.866 991.952 4.534 994.928 8.081 996.416 9.459 997.16 9.955 997.904 10.298 998.648 10.475 999.392 10.479 1000.136 10.311 1000.88 9.977 1001.624 9.488 1003.112 8.122 1005.344 5.49 1007.576 2.905 1009.064 1.616 1009.808 1.176 1010.552 .895 1011.296 .783 1012.04 .844 1012.784 1.076 1013.528 1.471 1015.016 2.686 1016.504 4.318 1020.224 8.655 1021.712 9.848 1022.456 10.23 1023.2 10.447 1023.944 10.494 1024.688 10.368 1025.432 10.073 1026.176 9.62 1027.664 8.311 1029.152 6.624 1032.128 3.092 1033.616 1.745 1034.36 1.269 1035.104 .948 1035.848 .795 1036.592 .814 1037.336 1.005 1038.08 1.361 1039.568 2.512 1041.056 4.105 1044.776 8.478 1046.264 9.733 1047.008 10.152 1047.752 10.41 1048.496 10.499 1049.24 10.414 1049.984 10.159 1050.728 9.743 1052.216 8.494 1053.704 6.841 1056.68 3.284 1058.168 1.882 1058.912 1.37 1059.656 1.011 1060.4 .816 1061.144 .793 1061.888 .943 1062.632 1.26 1063.376 1.733 1064.864 3.075 1067.096 5.693 1069.328 8.294 1070.816 9.609 1071.56 10.065 1072.304 10.363 1073.048 10.493 1073.792 10.45 1074.536 10.236 1075.28 9.858 1076.768 8.671 1078.256 7.055 1081.976 2.702 1083.464 1.481 1084.208 1.083 1084.952 .848 1085.696 .783 1086.44 .891 1087.184 1.168 1087.928 1.605 1089.416 2.889 1090.904 4.561 1093.88 8.105 1095.368 9.476 1096.112 9.968 1096.856 10.306 1097.6 10.477 1098.344 10.476 1099.088 10.303 1099.832 9.964 1100.576 9.471 1102.064 8.098 1104.296 5.462 1106.528 2.882 1108.016 1.6 1108.76 1.165 1109.504 .889 1110.248 .783 1110.992 .849 1111.736 1.086 1112.48 1.485 1113.968 2.708 1115.456 4.345 1115.456 4.345" transform="translate(7 57)"/>
  </g>
</svg>
