<svg width="30" height="30" viewBox="0 0 30 30" fill="none" xmlns="http://www.w3.org/2000/svg">
<path fill-rule="evenodd" clip-rule="evenodd" d="M15 30C23.2843 30 30 23.2843 30 15C30 6.71573 23.2843 0 15 0C6.71573 0 0 6.71573 0 15C0 23.2843 6.71573 30 15 30ZM14.8682 16.7775C16.5872 19.7343 18.0785 22.2993 20.4171 22.2993C21.0827 22.2993 23.0797 22.2993 26.4998 15.8493L25.0308 15.0689C22.2763 20.2105 20.8073 20.6237 20.4171 20.6237C19.0461 20.6237 17.7888 18.4627 16.3282 15.9523L16.3084 15.9181C16.2503 15.8186 16.1922 15.716 16.133 15.6115C16.0285 15.4269 15.9206 15.2364 15.8034 15.0459C15.6198 14.7475 15.4591 14.4491 15.2984 14.1507L15.2925 14.1406C13.5735 11.1838 12.0822 8.61886 9.7436 8.61886C9.07794 8.61886 7.08096 8.61886 3.66086 15.0689L5.1299 15.8493C7.88435 10.7077 9.35338 10.2945 9.7436 10.2945C11.1146 10.2945 12.3719 12.4555 13.8325 14.9659L13.8523 15C13.9104 15.0996 13.9685 15.2022 14.0277 15.3067C14.1322 15.4912 14.2401 15.6817 14.3573 15.8722C14.5409 16.1706 14.7016 16.469 14.8623 16.7674L14.8682 16.7775Z" fill="#C4C4C4"/>
</svg>
